{"glyphs":{"0":{"ha":813,"x_min":0,"x_max":0,"o":"m 406 971 b 28 486 197 971 28 754 b 406 0 28 218 197 0 b 783 486 614 0 783 218 b 406 971 783 754 614 971 z m 406 39 b 292 486 343 39 292 239 b 406 932 292 732 343 932 b 519 486 468 932 519 732 b 406 39 519 239 468 39 z "},"1":{"ha":824,"x_min":0,"x_max":0,"o":"m 638 115 b 638 814 638 310 638 650 b 638 971 638 892 638 971 l 292 971 b 75 864 165 971 101 963 b 72 849 74 858 72 854 b 71 849 71 849 71 849 b 88 760 67 818 71 788 b 268 711 124 696 206 675 b 315 892 331 749 351 829 b 307 904 313 896 310 900 b 313 936 297 918 296 931 b 374 861 344 946 374 897 b 374 114 374 678 374 306 b 257 18 371 81 306 24 b 257 1 257 15 257 1 l 754 1 b 754 18 754 1 754 15 b 638 115 704 24 638 83 z "},"2":{"ha":888,"x_min":0,"x_max":0,"o":"m 457 163 b 456 164 456 164 456 164 b 833 683 469 343 703 486 b 658 967 921 817 833 944 b 264 963 517 999 407 999 b 213 947 246 958 229 954 b 213 947 213 947 213 947 b 211 947 213 947 213 947 b 43 774 125 915 65 854 b 39 757 40 768 39 763 b 39 756 39 757 39 756 b 54 667 33 726 38 694 b 235 619 90 604 172 583 b 282 800 297 656 319 738 b 274 813 279 804 276 808 b 307 913 265 825 281 878 b 568 824 378 976 594 911 b 31 172 458 589 31 392 b 143 1 31 107 42 21 b 144 1 143 1 144 1 b 867 18 311 -37 611 -17 b 867 58 874 18 867 35 b 457 163 867 83 449 -7 z "},"3":{"ha":719,"x_min":0,"x_max":0,"o":"m 483 553 b 625 756 569 575 625 657 b 369 969 625 908 504 969 b 369 969 369 969 369 969 b 232 949 318 969 272 963 b 226 947 231 949 229 949 b 226 947 226 947 226 947 b 58 774 138 915 81 854 b 54 757 56 768 54 763 b 53 756 54 757 54 756 b 69 667 49 726 53 694 b 250 619 106 604 188 583 b 297 800 313 656 333 738 b 289 813 294 804 292 808 b 338 953 258 853 293 931 b 368 557 417 986 557 688 b 368 557 368 557 368 557 b 457 286 368 557 457 449 b 213 86 444 -28 279 25 b 207 214 172 133 196 206 b 297 335 258 232 294 278 b 169 471 300 407 243 468 b 83 443 138 472 107 461 b 133 93 -12 368 28 192 b 697 310 315 -115 697 25 b 696 314 697 311 697 313 b 483 553 692 432 569 522 z "},"4":{"ha":1068,"x_min":0,"x_max":0,"o":"m 883 115 b 883 814 883 310 883 650 b 883 971 883 892 883 971 l 618 971 l 503 971 b 503 954 503 971 503 956 b 618 858 551 949 617 892 b 618 449 618 757 618 601 l 258 450 b 229 1050 497 643 468 1090 b 140 733 22 1015 44 771 l 151 744 b 233 850 151 744 131 826 b 140 450 336 875 457 722 l 140 421 l 618 419 b 618 114 618 304 618 193 b 503 18 617 81 551 24 b 503 1 503 15 503 1 l 999 1 b 999 18 999 1 999 15 b 883 115 950 24 883 83 z "},"5":{"ha":739,"x_min":0,"x_max":0,"o":"m 392 617 b 315 599 358 615 333 608 b 315 863 315 668 315 785 l 315 861 b 376 936 315 897 344 947 b 369 940 375 938 372 939 l 415 940 b 444 904 456 938 457 922 b 436 892 442 900 439 896 b 483 711 399 829 421 749 b 664 760 546 675 626 696 b 679 849 681 788 685 818 b 679 849 679 849 679 849 b 676 864 679 854 678 858 b 460 971 650 963 586 971 l 51 971 b 51 949 51 971 51 963 b 51 549 51 878 51 608 b 100 549 60 549 78 549 b 269 549 171 549 161 549 b 458 206 306 544 500 510 b 200 110 417 -51 236 51 b 193 111 200 111 197 111 b 204 204 181 153 196 197 b 207 204 206 204 207 204 b 289 315 253 221 286 264 b 169 444 290 385 238 442 b 131 439 156 444 143 443 b 131 439 131 439 131 439 b 88 417 114 435 100 426 b 179 56 -14 339 50 135 b 183 54 181 56 182 54 b 706 293 372 -92 692 39 b 392 617 725 460 613 626 z "},"6":{"ha":808,"x_min":0,"x_max":0,"o":"m 411 625 b 311 614 376 625 343 621 b 317 718 313 649 314 685 b 317 718 317 718 317 718 b 317 724 317 719 317 722 b 329 854 321 775 325 821 b 578 965 372 1047 510 1015 b 579 883 613 931 592 892 b 574 881 578 882 576 882 b 493 769 528 864 494 821 b 611 642 490 701 543 644 b 651 647 625 642 639 643 b 674 656 660 649 667 653 b 622 992 803 719 751 900 b 622 992 622 992 622 992 b 125 890 469 1103 228 1044 b 99 846 117 881 108 865 b 49 256 43 721 15 381 b 49 256 49 256 49 256 b 411 -7 79 107 229 -7 b 779 310 614 -7 779 135 b 411 625 779 483 614 625 z m 411 18 b 301 283 354 18 306 135 b 303 363 301 283 301 314 b 411 600 313 497 357 600 b 522 310 472 600 522 471 b 411 18 522 149 472 18 z "},"7":{"ha":715,"x_min":0,"x_max":0,"o":"m 639 949 b 615 971 626 971 615 971 l 231 971 b 14 864 104 971 40 963 b 11 849 13 858 11 854 b 10 849 10 849 10 849 b 26 760 6 818 10 788 b 207 711 63 696 144 675 b 254 892 269 749 290 829 b 246 904 251 896 249 900 b 275 940 233 922 235 938 l 311 940 b 311 940 311 940 311 940 b 313 940 311 940 313 940 l 317 940 b 376 858 347 938 376 892 b 74 1 351 681 74 251 b 219 1 163 1 194 1 b 219 1 219 1 219 1 l 407 1 b 407 18 407 1 407 17 b 351 111 360 24 344 64 b 639 949 415 410 686 868 z "},"8":{"ha":708,"x_min":0,"x_max":0,"o":"m 472 660 b 569 857 515 689 569 747 b 142 857 569 1115 142 1076 b 253 638 142 786 193 714 b 21 253 161 599 21 497 b 686 274 21 -114 686 -78 b 472 660 686 463 576 574 z m 481 868 b 415 706 481 799 438 735 b 292 863 346 760 292 806 b 481 868 292 1013 481 1007 z m 139 274 b 297 582 139 465 225 547 b 433 274 367 492 433 392 b 139 274 433 26 139 -72 z "},"9":{"ha":808,"x_min":0,"x_max":0,"o":"m 758 786 b 758 786 758 786 758 786 b 397 1049 729 936 578 1049 b 29 733 193 1049 29 908 b 397 417 29 558 193 417 b 497 429 432 417 465 421 b 492 325 496 393 494 358 b 492 325 492 325 492 325 b 492 318 492 322 492 319 b 479 189 488 268 483 222 b 231 78 436 -4 299 28 b 229 160 194 111 217 150 b 235 161 231 160 232 161 b 315 272 281 178 314 221 b 196 400 318 340 265 399 b 157 396 183 401 169 400 b 135 386 149 393 142 390 b 185 50 6 324 57 142 b 186 50 186 50 186 50 b 683 151 339 -60 581 -1 b 710 197 692 163 700 176 b 758 786 764 321 792 661 z m 397 442 b 286 733 336 442 286 572 b 397 1025 286 894 336 1025 b 507 760 454 1025 501 908 b 506 681 507 760 507 729 b 397 442 496 544 451 442 z "},"\u0000":{"ha":0,"x_min":0,"x_max":0,"o":""},"\n":{"ha":0,"x_min":0,"x_max":0,"o":""}," ":{"ha":563,"x_min":0,"x_max":0,"o":""},"!":{"ha":475,"x_min":0,"x_max":0,"o":"m 239 207 b 101 69 163 207 101 146 b 239 -68 101 -6 163 -68 b 375 69 314 -68 375 -6 b 239 207 375 146 314 207 z m 239 1881 b -68 1574 69 1881 -68 1743 b -67 1550 -68 1567 -68 1560 l -67 1539 l -65 1531 b -64 1522 -64 1528 -64 1525 l 97 494 l 99 494 l 103 469 b 238 351 113 403 171 351 b 374 469 306 351 364 403 l 536 1501 l 536 1503 b 543 1547 539 1518 542 1532 l 543 1550 b 544 1574 544 1560 544 1567 b 239 1881 544 1743 407 1881 z "},"\"":{"ha":493,"x_min":0,"x_max":0,"o":"m 289 1172 l 289 982 l 342 790 l 428 790 l 483 990 l 483 1172 z m 13 982 l 65 790 l 151 790 l 207 990 l 207 1172 l 13 1172 z "},"#":{"ha":1211,"x_min":0,"x_max":0,"o":"m 1011 717 b 1204 717 1107 717 1204 717 l 1204 758 b 1136 761 1204 758 1179 761 b 874 761 1076 761 983 761 b 874 982 874 847 874 924 b 874 1176 874 1078 874 1176 l 733 1176 b 733 1108 733 1176 733 1151 b 733 761 733 1033 733 906 b 379 761 617 761 492 761 b 379 982 379 847 379 924 b 379 1176 379 1078 379 1176 l 336 1176 b 333 1108 336 1176 333 1151 b 333 761 333 1033 333 906 b 42 761 207 761 100 761 b 6 753 26 761 6 757 b 6 717 6 740 6 717 b 333 717 64 717 188 717 b 333 350 333 596 333 467 b 42 350 207 350 100 350 b 6 342 26 350 6 346 b 6 304 6 328 6 306 b 333 304 64 304 188 304 b 333 13 333 178 333 71 b 342 -24 333 -3 338 -24 b 379 -24 356 -24 379 -24 b 379 304 379 35 379 158 b 733 304 494 304 619 304 b 733 13 733 178 733 71 b 733 -22 733 -3 733 -14 b 874 -24 776 -22 872 -24 b 874 304 874 35 874 158 b 1011 304 926 304 972 304 b 1204 304 1107 304 1204 304 l 1204 347 b 1136 350 1204 347 1179 350 b 874 350 1076 350 983 350 b 874 717 874 469 874 599 b 1011 717 925 717 972 717 z m 733 350 b 379 350 617 350 492 350 b 379 717 379 469 379 599 b 733 717 494 717 619 717 b 733 350 733 596 733 467 z "},"$":{"ha":1169,"x_min":0,"x_max":0,"o":"m 700 779 b 582 840 656 800 617 819 b 582 1267 582 1006 582 1153 b 582 1368 582 1300 582 1335 b 597 1371 588 1368 592 1369 b 974 1285 715 1382 867 1347 b 846 1258 931 1290 886 1282 b 774 981 749 1201 717 1078 b 1050 908 829 885 954 851 b 1124 981 1082 926 1106 951 b 656 1460 1272 1226 954 1464 b 656 1461 656 1461 656 1461 b 621 1458 644 1460 632 1460 b 621 1458 621 1458 621 1458 b 619 1458 621 1458 621 1458 b 607 1457 615 1458 611 1457 b 607 1457 607 1457 607 1457 b 582 1454 599 1456 590 1456 b 582 1647 582 1564 582 1647 l 539 1647 b 536 1513 539 1647 536 1597 b 536 1449 536 1493 536 1471 b 308 543 -92 1346 -57 744 b 536 382 381 503 461 447 b 536 -300 536 136 536 -106 b 75 -1 325 -322 106 -174 b 349 -67 133 -93 254 -122 b 421 210 444 -11 478 114 b 143 283 365 307 240 340 b 58 186 104 260 75 225 b 58 186 58 186 58 186 b 381 -368 -99 -112 147 -328 b 381 -368 381 -368 381 -368 b 381 -368 381 -368 381 -368 b 483 -374 417 -374 451 -376 b 536 -372 501 -374 519 -374 b 536 -633 536 -482 536 -571 b 544 -704 536 -664 542 -704 b 582 -704 558 -704 582 -704 b 582 -369 582 -635 582 -517 b 700 779 1256 -303 1360 500 z m 536 867 b 536 1357 97 1135 347 1306 b 536 867 536 1224 536 1053 z m 582 -289 b 582 340 582 -103 582 118 b 582 -289 810 124 954 -167 z "},"%":{"ha":1499,"x_min":0,"x_max":0,"o":"m 1331 1539 l 1244 1596 b 1185 1501 1244 1596 1222 1561 b 219 4 990 1201 385 261 b 189 -43 206 -17 196 -32 b 274 -100 215 -60 274 -100 b 1160 1275 406 104 936 926 b 1331 1539 1244 1406 1331 1539 z m 358 947 b 554 949 361 947 433 922 b 842 1321 722 983 842 1143 b 456 1707 842 1535 668 1707 b 69 1321 242 1707 69 1535 b 358 947 69 1142 193 990 z m 456 1683 b 625 1321 549 1683 625 1522 b 456 958 625 1121 549 958 b 286 1321 363 958 286 1121 b 456 1683 286 1522 363 1683 z m 1107 550 b 721 164 893 550 721 378 b 1010 -210 721 -15 843 -167 b 1206 -208 1013 -210 1085 -235 b 1493 164 1372 -174 1493 -14 b 1107 550 1493 378 1319 550 z m 1107 -199 b 938 164 1014 -199 938 -36 b 1107 526 938 365 1014 526 b 1276 164 1200 526 1276 365 b 1107 -199 1276 -36 1200 -199 z "},"&":{"ha":1771,"x_min":0,"x_max":0,"o":"m 1685 322 b 1672 322 1683 325 1676 326 b 1358 247 1672 322 1643 210 b 1243 294 1326 251 1288 268 b 1371 642 1319 397 1368 515 b 851 854 1381 1322 715 1113 b 881 875 851 854 858 853 b 1024 636 782 1108 1411 1111 b 938 542 994 601 967 571 b 558 975 803 672 665 831 b 672 1332 622 1101 672 1226 b 254 1326 672 1654 254 1726 b 342 958 254 1229 288 1100 b 79 507 251 847 151 707 b 932 26 -174 -197 465 -242 b 1140 -117 1007 -47 1078 -97 b 1685 322 1454 -212 1774 151 z m 569 1332 b 467 1108 569 1254 528 1186 b 368 1340 406 1206 368 1289 b 569 1332 368 1568 569 1511 z m 296 413 b 436 747 306 500 367 619 b 682 329 507 604 592 458 b 296 413 439 182 276 247 z "},"'":{"ha":217,"x_min":0,"x_max":0,"o":"m 13 1172 l 13 982 l 65 790 l 151 790 l 207 990 l 207 1172 z "},"(":{"ha":1124,"x_min":0,"x_max":0,"o":"m 360 501 b 1054 1381 360 986 668 1381 b 817 1438 1054 1418 817 1438 b 36 501 386 1438 36 1018 b 817 -436 36 -17 386 -436 b 1054 -379 817 -436 1054 -418 b 360 501 807 -379 360 15 z "},")":{"ha":1124,"x_min":0,"x_max":0,"o":"m 306 1438 b 69 1381 306 1438 69 1419 b 763 501 315 1381 763 986 b 69 -379 763 15 454 -379 b 306 -436 69 -417 306 -436 b 1088 501 738 -436 1088 -17 b 306 1438 1088 1018 738 1438 z "},"*":{"ha":476,"x_min":0,"x_max":0,"o":"m 526 974 l 526 1022 b 493 1022 526 1022 514 1022 b 297 1022 453 1022 378 1022 b 447 1172 361 1086 419 1144 b 458 1183 453 1178 456 1181 b 425 1219 449 1194 425 1219 b 263 1057 399 1193 332 1128 b 263 1269 263 1147 263 1231 b 263 1286 263 1276 263 1282 b 213 1286 247 1286 214 1286 b 213 1057 213 1250 213 1157 b 63 1207 149 1121 90 1181 b 51 1219 58 1213 54 1217 b 15 1185 40 1208 17 1185 b 178 1022 42 1158 108 1093 b -33 1022 88 1022 4 1022 b -50 1022 -42 1022 -47 1022 b -51 974 -50 1008 -51 974 b 178 974 -14 974 79 974 b 82 876 140 936 106 901 b 15 811 49 844 15 811 l 50 776 b 74 799 50 776 60 785 b 213 938 103 828 156 881 b 213 803 213 885 213 838 b 213 708 213 757 213 708 l 263 708 b 263 742 263 708 263 721 b 263 938 263 782 263 857 b 358 842 300 901 333 867 b 424 776 390 810 424 776 l 460 811 b 436 835 460 811 450 819 b 297 974 407 863 354 915 b 433 974 350 974 399 974 b 526 974 479 974 526 974 z "},"+":{"ha":1204,"x_min":0,"x_max":0,"o":"m 1074 614 b 690 614 994 614 849 614 b 690 885 690 719 690 817 b 690 1057 690 969 690 1057 l 513 1057 b 513 996 513 1057 513 1035 b 513 614 513 918 513 771 b 101 614 338 614 175 614 b 71 614 88 614 78 614 b 69 436 71 593 69 436 b 513 436 140 436 322 436 b 513 24 513 261 513 99 b 513 -7 513 10 513 1 b 690 -8 533 -7 690 -8 b 690 436 690 63 690 246 b 963 436 796 436 893 436 b 1135 436 1047 436 1135 436 l 1135 614 b 1074 614 1133 614 1111 614 z "},",":{"ha":285,"x_min":0,"x_max":0,"o":"m 267 28 b 142 153 267 97 211 153 b 17 28 72 153 17 97 b 142 -97 17 -42 72 -97 b 149 -97 144 -97 146 -97 b 17 -222 108 -162 17 -222 l 71 -287 b 264 0 71 -287 238 -183 b 267 28 267 8 267 18 z "},"-":{"ha":679,"x_min":0,"x_max":0,"o":"m 629 414 b 32 414 510 414 135 414 b 14 414 24 414 18 414 b 13 347 14 394 13 349 b 561 347 94 347 422 347 b 667 347 613 347 667 347 l 667 414 b 629 414 667 414 653 414 z "},".":{"ha":285,"x_min":0,"x_max":0,"o":"m 142 153 b 17 28 72 153 17 97 b 142 -97 17 -42 72 -97 b 267 28 211 -97 267 -42 b 142 153 267 97 211 153 z "},"/":{"ha":806,"x_min":0,"x_max":0,"o":"m 618 1607 b 529 1286 618 1607 572 1444 b 69 -375 413 865 138 -128 b 189 -406 71 -375 153 -396 b 204 -349 192 -392 197 -374 b 704 1461 290 -39 604 1097 b 736 1574 725 1532 736 1574 z "},":":{"ha":304,"x_min":0,"x_max":0,"o":"m 151 153 b 26 28 82 153 26 97 b 151 -97 26 -42 82 -97 b 276 28 221 -97 276 -42 b 151 153 276 97 221 153 z m 151 543 b 276 668 221 543 276 599 b 151 793 276 738 221 793 b 26 668 82 793 26 738 b 151 543 26 599 82 543 z "},";":{"ha":318,"x_min":0,"x_max":0,"o":"m 168 543 b 293 668 238 543 293 599 b 168 793 293 738 238 793 b 43 668 99 793 43 738 b 168 543 43 599 99 543 z m 149 153 b 24 28 79 153 24 97 b 149 -97 24 -42 79 -97 b 156 -97 151 -97 153 -97 b 24 -221 115 -162 24 -221 l 78 -287 b 271 0 78 -287 244 -183 b 274 28 274 8 274 18 b 149 153 274 97 218 153 z "},"<":{"ha":460,"x_min":0,"x_max":0,"o":"m 454 689 l 454 714 b 10 419 454 714 10 525 b 454 113 10 314 454 113 l 454 139 b 229 419 454 139 229 289 b 454 689 229 553 454 689 z "},"=":{"ha":1124,"x_min":0,"x_max":0,"o":"m 1033 685 b 61 685 838 685 228 685 b 31 685 47 685 38 685 b 29 506 31 664 29 507 b 922 506 163 506 696 506 b 1094 506 1007 506 1094 506 l 1094 685 b 1033 685 1094 685 1071 685 z m 61 335 b 31 335 47 335 38 335 b 29 156 31 314 29 157 b 922 156 163 156 696 156 b 1094 156 1007 156 1094 156 l 1094 335 b 1033 335 1094 335 1071 335 b 61 335 838 335 228 335 z "},">":{"ha":460,"x_min":0,"x_max":0,"o":"m 4 714 l 4 689 b 231 419 4 689 231 553 b 4 139 231 289 4 139 l 4 113 b 449 419 4 113 449 314 b 4 714 449 525 4 714 z "},"?":{"ha":938,"x_min":0,"x_max":0,"o":"m 846 1626 b 386 1868 789 1768 631 1851 l 365 1868 b -12 1679 210 1868 47 1788 b -14 1508 -46 1622 -46 1565 l -8 1497 b 44 1444 4 1475 22 1457 b 118 1425 67 1432 92 1425 b 244 1497 169 1425 218 1453 b 192 1697 285 1567 261 1657 b 118 1717 169 1710 144 1717 b 100 1717 113 1717 106 1717 b 65 1718 100 1717 71 1713 b 71 1753 51 1733 71 1753 b 382 1851 156 1803 281 1851 b 435 1849 400 1851 418 1850 l 472 1842 b 650 1686 569 1817 633 1760 b 357 1250 674 1568 576 1422 b 42 526 117 1060 -28 728 b 357 350 82 411 190 350 b 447 356 386 350 415 351 b 453 375 449 361 451 367 b 678 1097 338 601 401 806 b 846 1626 840 1268 906 1476 z m 308 207 b 171 69 232 207 171 146 b 308 -68 171 -6 232 -68 b 446 69 383 -68 446 -6 b 308 207 446 146 383 207 z "},"@":{"ha":1721,"x_min":0,"x_max":0,"o":"m 860 1226 b 32 397 403 1226 32 856 b 860 -431 32 -60 403 -431 b 1689 397 1318 -431 1689 -60 b 860 1226 1689 856 1318 1226 z m 860 -340 b 122 397 453 -340 122 -10 b 860 1136 122 806 453 1136 b 1599 397 1268 1136 1599 806 b 860 -340 1599 -10 1268 -340 z m 1431 104 b 1251 174 1285 56 1256 133 b 1251 568 1251 400 1251 439 b 1251 590 1251 575 1251 583 b 1250 590 1251 590 1251 590 b 589 885 1232 918 846 1090 b 588 883 588 885 588 883 b 583 881 586 882 585 881 b 582 878 583 879 582 879 b 543 786 557 856 542 822 b 669 661 543 717 600 661 b 794 788 739 661 796 718 b 757 876 794 822 781 854 b 892 551 828 865 892 790 b 892 551 892 551 892 551 b 892 525 892 543 892 533 b 664 628 835 588 753 628 b 349 297 489 628 349 479 b 664 -33 349 115 489 -33 b 901 81 758 -33 843 11 b 1133 -42 929 18 1019 -42 b 1251 -26 1201 -42 1251 -26 b 1251 -26 1251 -26 1251 -26 b 1431 104 1365 7 1446 111 z m 824 53 b 699 297 754 53 699 163 b 824 542 699 432 754 542 b 892 501 849 542 872 526 b 892 118 892 394 892 269 b 894 97 892 111 893 104 b 824 53 875 69 850 53 z "},"A":{"ha":1036,"x_min":0,"x_max":0,"o":"m 978 107 b 978 107 978 107 978 107 l 806 856 b 860 960 797 908 814 960 b 860 974 860 963 860 974 b 649 981 860 974 697 975 b 229 961 544 993 375 1036 b 110 665 83 886 61 756 b 431 683 160 575 375 569 b 410 706 424 690 410 706 b 313 782 410 706 313 672 b 475 950 313 858 368 924 b 528 918 506 956 521 936 b 238 253 546 810 449 231 b 125 368 117 265 125 349 b 111 378 121 371 117 374 b 153 8 -6 333 -64 32 b 453 264 274 -4 376 108 b 501 303 469 290 485 303 l 607 303 b 607 303 607 303 607 303 b 667 239 626 303 658 288 b 692 107 676 189 685 144 b 690 107 692 107 690 107 b 636 19 696 79 654 22 b 636 6 636 18 636 6 l 1049 6 b 1049 19 1049 6 1049 18 b 978 107 1031 22 985 78 z m 569 640 b 603 576 574 660 593 624 b 603 576 603 576 603 576 b 638 396 614 517 626 456 b 596 333 638 396 642 333 l 511 333 b 501 381 492 333 497 363 b 569 640 532 465 556 556 z "},"B":{"ha":835,"x_min":0,"x_max":0,"o":"m 514 -290 b 511 472 953 -168 910 426 b 740 711 653 503 740 592 b 397 975 740 860 596 975 l 26 975 b 26 960 26 975 26 961 b 143 872 76 954 143 901 b 143 835 143 860 143 847 b 143 244 143 697 143 421 b 126 231 138 240 132 236 b 514 -290 -169 -22 71 -414 z m 513 711 b 407 506 513 624 474 550 b 407 915 407 665 407 831 b 513 711 472 868 513 794 z m 136 56 b 426 -8 207 126 363 107 b 422 231 461 -43 494 135 b 407 247 418 236 414 242 b 407 378 407 286 407 331 b 389 -201 568 293 588 -76 b 136 56 128 -364 3 -78 z "},"C":{"ha":801,"x_min":0,"x_max":0,"o":"m 793 263 b 788 267 793 272 790 267 b 319 781 242 60 140 581 b 563 878 393 863 486 892 b 571 875 565 876 568 875 b 575 875 572 875 574 875 b 697 715 646 857 697 800 b 660 746 688 726 675 738 b 481 699 597 783 517 763 b 528 518 443 636 464 556 b 706 563 589 482 668 503 b 708 567 707 564 707 565 b 711 572 710 568 710 571 b 226 829 871 865 501 1046 b 321 8 -83 585 -61 81 b 793 263 649 -53 794 206 z "},"D":{"ha":864,"x_min":0,"x_max":0,"o":"m 853 490 b 360 974 853 753 632 967 b 360 975 360 974 360 975 l -3 975 b -3 960 -3 975 -3 961 b 114 872 47 954 114 901 b 114 818 114 854 114 836 b 114 119 114 654 114 313 b -3 22 114 86 47 26 b -3 4 -3 19 -3 4 b 328 4 26 4 304 4 b 329 6 329 4 329 6 b 853 490 608 6 853 222 z m 569 490 b 378 69 569 317 501 163 b 378 911 378 254 378 738 b 569 490 501 817 569 664 z "},"E":{"ha":814,"x_min":0,"x_max":0,"o":"m 328 4 l 499 4 l 499 6 b 792 101 650 4 757 4 b 799 126 794 110 797 118 b 799 128 799 126 799 128 b 783 217 804 157 799 189 b 603 264 746 279 665 300 b 556 83 539 228 518 146 b 563 71 557 79 560 75 b 499 36 575 54 543 39 l 443 36 b 378 111 404 36 379 75 b 378 414 378 189 378 299 b 429 469 381 440 400 469 l 467 469 b 467 469 467 469 467 469 b 467 469 467 469 467 469 b 553 414 496 469 550 433 b 568 414 556 414 568 414 l 568 556 b 553 556 568 556 556 556 b 467 500 550 536 496 500 b 467 500 467 500 467 500 l 442 500 b 378 575 404 501 379 540 b 378 865 378 686 378 790 b 443 943 378 901 403 943 l 499 943 b 563 908 543 940 575 926 b 554 896 560 904 557 900 b 603 715 518 833 539 751 b 783 763 665 679 746 700 b 799 851 799 790 804 822 b 799 853 799 851 799 853 b 792 878 797 861 794 869 b 499 974 756 975 650 975 l 499 975 l -3 975 b -3 960 -3 975 -3 961 b 114 872 47 954 114 901 b 114 818 114 854 114 836 b 114 119 114 654 114 313 b -3 22 114 86 47 26 b -3 4 -3 19 -3 4 b 328 4 26 4 304 4 z "},"F":{"ha":789,"x_min":0,"x_max":0,"o":"m 244 7 l 492 7 b 492 24 492 7 492 21 b 376 118 443 28 378 86 b 376 413 376 196 376 301 b 428 469 379 440 399 469 l 464 469 b 464 469 464 469 464 469 b 464 468 464 469 464 469 b 551 414 493 468 549 433 b 565 414 553 414 565 414 l 565 554 b 551 554 565 554 553 554 b 464 500 549 536 493 500 b 464 500 464 500 464 500 l 439 500 b 376 575 401 500 378 540 b 376 863 376 685 376 789 b 440 942 376 899 401 942 l 496 942 b 560 906 542 939 572 924 b 553 893 557 901 554 897 b 600 714 515 831 538 750 b 779 761 663 678 743 699 b 794 850 796 789 800 821 b 794 850 794 850 794 850 b 788 875 793 858 792 867 b 497 971 753 972 647 972 l 497 972 l -3 972 b -3 957 -3 972 -3 958 b 113 869 47 953 113 899 b 113 815 113 853 113 833 b 113 121 113 653 113 313 b -3 24 113 88 47 28 b -3 7 -3 21 -3 7 z "},"G":{"ha":865,"x_min":0,"x_max":0,"o":"m 485 22 b 485 7 485 19 485 7 l 856 7 b 856 22 856 7 856 19 b 801 108 838 25 801 79 b 801 150 801 122 801 136 b 801 200 801 169 801 186 b 801 344 801 319 801 244 l 801 533 b 788 533 801 533 794 533 b 461 397 757 501 661 397 l 461 382 b 515 336 461 382 492 379 b 329 371 531 285 460 242 b 357 863 222 479 228 754 b 742 715 599 1067 757 903 b 707 744 733 726 721 738 b 528 697 644 782 565 760 b 575 518 492 635 513 554 b 754 565 638 482 718 503 b 763 582 758 571 761 576 b 769 604 767 589 768 597 b 139 792 894 1039 392 1147 b 175 101 -8 585 -64 254 b 538 100 311 15 446 40 b 485 22 532 69 501 25 z "},"H":{"ha":1275,"x_min":0,"x_max":0,"o":"m 711 24 b 596 121 663 29 596 88 b 596 475 596 215 596 347 l 899 475 b 899 118 899 342 899 210 b 783 24 896 86 832 29 b 783 7 783 21 783 7 l 1276 7 b 1276 24 1276 7 1276 21 b 1161 121 1228 29 1161 88 b 1161 815 1161 313 1161 653 b 1161 869 1161 835 1161 853 b 1276 957 1161 900 1228 953 b 1276 972 1276 958 1276 972 l 783 972 b 783 957 783 972 783 958 b 899 872 832 953 896 901 b 899 504 899 782 899 644 l 596 504 b 596 815 596 625 596 740 b 596 871 596 835 596 853 b 711 957 596 900 663 953 b 711 972 711 958 711 972 b 246 972 710 972 247 972 l 213 972 b 1 875 104 969 29 954 b -7 850 -3 868 -4 858 b -7 850 -7 850 -7 850 b 10 761 -11 821 -7 789 b 189 714 46 699 126 678 b 236 893 251 750 272 831 b 228 906 233 897 231 901 b 279 940 217 922 242 935 b 333 863 313 933 333 896 b 333 119 333 679 333 310 b 217 24 331 86 265 29 b 217 7 217 21 217 7 l 711 7 b 711 24 711 7 711 21 z "},"I":{"ha":710,"x_min":0,"x_max":0,"o":"m 711 7 b 711 24 711 7 711 21 b 596 121 663 29 596 88 b 596 815 596 313 596 653 b 596 869 596 833 596 853 b 711 957 596 900 663 953 b 711 972 711 958 711 972 b 246 972 710 972 247 972 l 213 972 l 213 971 b 1 875 104 969 29 954 b -7 850 -3 867 -4 858 b -7 850 -7 850 -7 850 b 10 761 -11 821 -7 789 b 189 714 46 699 126 678 b 236 893 251 750 272 831 b 228 906 233 897 231 901 b 279 940 217 921 242 935 b 333 863 313 933 333 896 b 333 118 333 679 333 310 b 217 24 331 86 265 28 b 217 7 217 21 217 7 z "},"J":{"ha":792,"x_min":0,"x_max":0,"o":"m 551 972 b 332 972 550 972 333 972 l 299 972 l 299 971 b 88 875 192 969 117 954 b 81 850 85 867 82 858 b 81 850 81 850 81 850 b 96 761 75 821 81 789 b 276 714 133 699 214 678 b 324 893 339 750 360 831 b 315 906 321 897 318 901 b 365 940 304 921 328 935 b 419 863 399 933 419 896 b 419 110 419 676 419 299 b 419 110 419 110 419 110 b 419 103 419 107 419 106 b 419 60 419 88 419 72 b 276 -139 414 -94 344 -136 b 264 -136 272 -137 269 -137 b 114 -18 157 -128 101 -15 b 139 -18 122 -18 131 -19 b 264 118 211 -15 267 46 b 126 243 261 190 200 247 b 43 208 94 242 65 229 b 143 -151 -51 122 17 -68 b 682 79 344 -299 674 -196 b 683 79 682 79 683 79 b 683 815 683 199 683 611 b 683 869 683 833 683 853 b 799 957 683 899 749 951 b 799 971 799 958 799 971 l 551 971 z "},"K":{"ha":1035,"x_min":0,"x_max":0,"o":"m 1000 311 b 986 299 994 307 992 304 b 925 246 990 286 972 254 b 517 603 736 211 714 701 l 728 844 b 746 774 728 821 733 796 b 925 726 782 711 863 690 b 972 907 988 764 1010 844 b 793 954 936 969 856 990 b 754 918 778 944 764 932 l 376 486 b 376 815 376 613 376 736 b 376 869 376 833 376 853 b 492 957 376 899 442 953 b 492 972 492 958 492 972 l -3 972 b -3 957 -3 972 -3 958 b 113 872 46 953 110 901 b 113 118 113 692 113 313 b -3 24 110 86 46 29 b -3 7 -3 21 -3 7 l 492 7 b 492 24 492 7 492 21 b 376 121 442 29 376 88 b 376 442 376 207 376 324 l 378 443 b 894 79 488 411 557 -181 b 1000 311 1076 232 1033 285 z "},"L":{"ha":789,"x_min":0,"x_max":0,"o":"m 788 103 b 794 128 792 111 793 119 b 794 129 794 128 794 128 b 779 217 800 158 796 189 b 600 264 743 281 663 301 b 553 85 538 228 515 147 b 560 72 554 81 557 76 b 496 38 572 56 542 40 l 440 38 b 376 113 403 38 378 78 b 376 874 376 306 376 693 b 492 957 382 904 444 953 b 492 972 492 958 492 972 l -3 972 b -3 957 -3 972 -3 958 b 113 869 47 953 113 899 b 113 815 113 853 113 833 b 113 121 113 653 113 313 b -3 24 113 88 47 28 b -3 7 -3 21 -3 7 b 326 7 26 7 303 7 l 497 7 b 788 103 647 6 753 6 z "},"M":{"ha":1507,"x_min":0,"x_max":0,"o":"m 1261 972 l 1014 972 b 1014 957 1014 972 1014 958 b 1104 911 1044 954 1081 933 l 889 392 l 675 971 l 410 971 b 142 957 322 971 222 974 b 57 940 113 961 83 956 b -7 850 22 921 0 888 b -7 850 -7 850 -7 850 b 10 761 -11 821 -7 789 b 189 714 46 699 126 678 b 236 893 251 750 272 831 b 228 906 233 897 231 901 b 272 929 222 914 243 922 b 390 897 321 933 360 919 b 390 121 390 731 390 325 b 389 121 389 121 389 121 b 274 24 389 88 324 29 b 274 7 274 21 274 7 l 535 7 b 535 24 535 7 535 21 b 419 115 488 28 425 82 b 419 815 419 307 419 650 b 419 868 419 833 419 851 b 456 804 436 847 449 825 l 742 36 l 768 24 l 1125 885 b 1129 872 1128 881 1129 875 b 1129 119 1129 692 1129 314 b 1014 24 1128 86 1063 29 b 1014 7 1014 21 1014 7 l 1508 7 b 1508 24 1508 7 1508 21 b 1393 121 1458 29 1393 88 b 1393 815 1393 314 1393 653 b 1393 871 1393 835 1393 853 b 1508 957 1393 900 1458 953 b 1508 972 1508 958 1508 972 z "},"N":{"ha":1103,"x_min":0,"x_max":0,"o":"m 1104 24 b 989 121 1056 29 989 88 b 989 815 989 313 989 653 b 989 869 989 833 989 853 b 1104 957 989 900 1056 953 b 1104 972 1104 958 1104 972 l 610 972 b 610 957 610 972 610 958 b 726 872 658 953 724 901 b 726 418 726 764 726 586 l 347 971 l 257 971 b 257 972 257 971 257 972 l -3 972 b -3 956 -3 972 -3 957 b 113 858 47 950 113 890 b 113 858 113 858 113 858 b 113 121 113 674 113 311 b 113 121 113 121 113 121 b -3 24 113 88 47 29 b -3 7 -3 21 -3 7 l 257 7 b 257 24 257 7 257 21 b 143 115 211 28 149 82 b 143 815 143 307 143 650 b 143 850 143 826 143 839 l 650 38 b 610 24 638 29 624 25 b 610 7 610 21 610 7 l 669 7 l 671 4 l 674 7 l 1104 7 b 1104 24 1104 7 1104 21 z "},"O":{"ha":990,"x_min":0,"x_max":0,"o":"m 618 22 b 976 489 826 67 976 265 b 494 972 976 756 761 972 b 11 489 228 972 11 756 b 374 21 11 264 165 75 b 618 22 376 21 467 -10 z m 494 943 b 706 489 611 943 706 739 b 494 35 706 239 611 35 b 282 489 378 35 282 239 b 494 943 282 739 378 943 z "},"P":{"ha":992,"x_min":0,"x_max":0,"o":"m 810 483 b 992 710 922 528 992 604 b 711 968 992 842 876 947 b 651 972 711 969 651 972 b 246 972 650 972 247 972 l 213 972 l 213 971 b 1 875 104 969 29 954 b -7 850 -3 867 -4 858 b -7 850 -7 850 -7 850 b 10 761 -11 821 -7 789 b 189 714 46 699 126 678 b 236 893 251 750 272 831 b 228 906 233 897 231 901 b 279 940 217 921 242 935 b 333 863 313 933 333 896 b 333 118 333 679 333 310 b 217 24 331 86 265 28 b 217 7 217 21 217 7 l 711 7 b 711 24 711 7 711 21 b 596 121 663 29 596 88 b 596 428 596 204 596 315 b 810 483 625 428 751 461 z m 596 472 b 596 815 596 604 596 732 b 596 869 596 833 596 853 b 640 926 596 886 615 908 b 765 710 717 879 765 801 b 596 472 765 596 699 507 z "},"Q":{"ha":996,"x_min":0,"x_max":0,"o":"m 375 21 b 414 13 388 18 401 15 b 924 -312 583 -49 690 -418 b 976 7 1114 -226 976 7 l 951 7 b 872 -122 951 7 993 -122 b 618 22 760 -122 697 -10 b 976 489 825 76 976 265 b 494 972 976 756 761 972 b 11 489 228 972 11 756 b 374 21 11 264 165 75 b 368 21 369 21 368 21 b 375 21 371 21 374 21 z m 494 943 b 706 489 611 943 706 739 b 494 35 706 239 611 35 b 282 489 378 35 282 239 b 494 943 282 739 378 943 z "},"R":{"ha":1199,"x_min":0,"x_max":0,"o":"m 1189 304 b 1175 293 1183 300 1181 297 b 1114 225 1179 279 1163 225 b 908 418 992 225 996 314 b 810 483 879 453 846 474 b 992 710 924 522 992 604 b 711 968 992 842 876 947 b 651 972 711 969 651 972 b 246 972 650 972 247 972 l 213 972 l 213 971 b 1 875 104 969 29 954 b -7 850 -3 867 -4 858 b -7 850 -7 850 -7 850 b 10 761 -11 821 -7 789 b 189 714 46 699 126 678 b 236 893 251 750 272 831 b 228 906 233 897 231 901 b 279 940 217 921 242 935 b 333 863 313 933 333 896 b 333 118 333 679 333 310 b 217 24 331 86 265 28 b 217 7 217 21 217 7 l 711 7 b 711 24 711 7 711 21 b 596 121 663 29 596 88 b 596 428 596 204 596 315 b 1083 72 778 364 739 -193 b 1189 304 1218 179 1222 279 z m 596 472 b 596 815 596 604 596 732 b 596 869 596 833 596 853 b 640 926 596 886 615 908 b 765 710 717 879 765 801 b 596 472 765 596 699 507 z "},"S":{"ha":783,"x_min":0,"x_max":0,"o":"m 464 654 b 397 1036 -4 881 267 1018 b 642 982 475 1044 572 1022 b 558 964 614 985 585 979 b 511 785 496 928 475 847 b 692 738 549 722 629 701 b 739 785 711 750 728 767 b 436 1094 835 943 629 1097 b 436 1096 436 1094 436 1096 b 414 1094 428 1094 421 1094 b 414 1094 414 1094 414 1094 b 413 1093 414 1094 413 1093 b 404 1093 410 1093 407 1093 b 211 501 -50 1050 -33 636 b 372 -42 418 388 731 63 b 60 149 232 -65 81 35 b 238 107 99 90 176 71 b 283 286 300 143 321 224 b 104 333 247 349 167 369 b 50 269 79 318 60 296 b 49 271 49 271 49 271 b 257 -89 -53 76 107 -62 b 258 -89 257 -89 258 -89 b 258 -89 258 -89 258 -89 b 325 -92 281 -93 303 -93 b 464 654 817 -96 911 465 z "},"T":{"ha":1161,"x_min":0,"x_max":0,"o":"m 1079 967 b 1026 972 1061 972 1044 975 l 581 972 l 133 972 b 82 967 117 975 99 972 b -1 800 13 943 -25 869 b 165 718 22 732 96 694 b 247 883 233 740 271 815 b 207 943 239 908 225 928 l 453 943 b 449 917 450 936 449 926 b 449 118 449 764 449 332 b 333 24 446 86 382 28 b 333 7 333 21 333 7 l 828 7 b 828 24 828 7 828 21 b 713 121 778 28 713 88 b 713 815 713 313 713 653 b 713 943 713 864 713 913 l 954 943 b 913 883 936 928 921 908 b 996 718 890 815 926 740 b 1163 800 1064 694 1139 732 b 1079 967 1185 869 1149 943 z "},"U":{"ha":956,"x_min":0,"x_max":0,"o":"m 836 971 l 706 971 b 706 954 706 971 706 956 b 821 863 753 949 815 896 b 821 568 821 782 821 690 b 821 443 821 518 821 465 b 554 121 821 253 725 121 b 368 419 383 121 368 263 b 368 815 368 526 368 657 b 368 869 368 833 368 853 b 483 957 368 900 433 953 b 483 972 483 958 483 972 l -11 972 b -11 957 -11 972 -11 958 b 104 872 38 953 101 901 b 104 361 104 703 104 500 b 108 353 104 358 106 356 b 549 13 135 150 285 13 b 850 443 800 13 850 310 b 850 446 850 444 850 446 b 850 479 850 454 850 465 b 850 857 850 603 850 739 b 850 857 850 857 850 857 b 967 954 850 890 917 949 b 967 971 967 956 967 971 z "},"V":{"ha":754,"x_min":0,"x_max":0,"o":"m 756 910 b 619 1035 753 982 692 1038 b 494 897 547 1031 490 969 b 631 772 497 825 558 769 b 699 794 656 774 679 782 l 497 100 b 494 106 496 101 496 104 b 494 106 494 106 494 106 l 296 969 l 68 969 b -14 943 68 969 -22 971 b 54 890 38 958 49 911 b 210 106 96 724 175 301 b 210 106 210 106 210 106 b 154 18 215 78 174 22 b 154 4 154 17 154 4 l 567 4 b 567 18 567 4 567 17 b 517 64 556 21 533 42 l 747 857 b 756 910 754 874 757 890 z "},"W":{"ha":1310,"x_min":0,"x_max":0,"o":"m 1311 910 b 1174 1035 1308 982 1246 1038 b 1049 897 1101 1031 1046 969 b 1186 772 1051 825 1113 769 b 1254 794 1211 774 1235 782 l 1061 133 l 885 838 l 657 838 b 575 811 657 838 567 840 b 643 760 626 826 638 781 b 657 701 647 742 651 722 l 490 124 l 296 969 l 68 969 b -14 943 68 969 -22 971 b 54 890 38 958 49 911 b 210 106 96 724 175 301 b 210 106 210 106 210 106 b 154 18 215 78 174 22 b 154 4 154 17 154 4 l 567 4 b 567 18 567 4 567 17 b 508 76 553 21 525 50 l 669 642 b 785 99 710 468 758 231 b 731 18 785 69 747 21 b 731 4 731 17 731 4 l 1142 4 b 1142 18 1142 4 1142 17 b 1078 86 1126 21 1094 57 l 1303 857 b 1311 910 1308 874 1311 890 z "},"X":{"ha":1085,"x_min":0,"x_max":0,"o":"m 1053 4 b 1053 19 1053 4 1053 17 b 965 99 1036 22 986 71 l 794 508 b 917 957 1186 675 1129 976 b 867 946 896 956 875 950 b 865 939 863 943 865 939 b 761 589 925 879 929 725 l 600 972 l 567 972 b 246 972 565 972 247 972 l 213 972 l 213 971 b 1 875 104 969 29 954 b -6 850 -3 867 -4 858 b -7 850 -6 850 -7 850 b 10 761 -11 821 -7 789 b 189 714 46 699 126 678 b 236 893 251 750 272 831 b 228 906 233 897 231 901 b 294 942 215 924 249 939 l 317 942 b 360 890 346 932 354 906 b 528 472 394 806 461 639 b 325 11 68 335 103 3 b 376 21 346 11 368 17 b 378 26 381 22 378 26 b 554 406 317 96 326 272 b 675 106 601 290 644 181 b 642 19 696 54 660 22 b 642 4 642 17 642 4 z "},"Y":{"ha":1306,"x_min":0,"x_max":0,"o":"m 1065 24 b 950 121 1015 29 950 88 l 950 421 b 1254 890 951 425 1122 697 b 1324 946 1267 908 1290 946 b 1242 971 1332 974 1242 971 l 1014 971 l 818 696 l 621 971 l 567 971 l 567 972 b 246 972 565 972 247 972 l 213 972 l 213 971 b 1 875 104 969 29 954 b -6 850 -3 867 -4 858 b -7 850 -7 850 -7 850 b 10 761 -11 821 -7 789 b 189 714 46 699 126 678 b 236 893 251 750 272 831 b 228 906 233 897 231 901 b 294 942 215 924 249 939 l 311 942 b 311 940 311 942 311 942 b 381 890 347 940 368 908 b 686 421 519 688 686 421 b 686 118 686 314 686 215 b 571 24 683 86 619 28 b 571 7 571 21 571 7 l 1065 7 b 1065 24 1065 7 1065 21 z "},"Z":{"ha":885,"x_min":0,"x_max":0,"o":"m 574 49 b 508 49 551 49 529 49 b 440 136 458 49 442 93 l 440 135 b 815 686 425 331 678 476 b 597 971 910 828 800 965 l 597 972 b 276 972 596 972 278 972 l 243 972 l 243 971 b 32 875 135 969 60 954 b 25 850 28 867 26 858 b 24 850 25 850 25 850 b 40 761 19 821 24 789 b 219 714 76 699 157 678 b 267 893 282 750 303 831 b 258 906 264 897 261 901 b 325 942 246 924 279 939 l 576 942 b 17 178 592 656 17 431 b 171 3 17 103 31 3 b 267 3 200 3 235 3 b 303 3 279 3 292 3 b 375 3 343 3 375 3 b 858 3 542 3 858 3 b 858 11 858 3 858 8 b 858 26 858 15 858 21 l 858 335 b 842 335 858 335 844 335 b 574 49 842 186 725 49 z "},"[":{"ha":328,"x_min":0,"x_max":0,"o":"m 279 1371 b 461 1371 347 1371 418 1371 b 533 1371 496 1371 533 1371 l 533 1428 b 507 1428 533 1428 524 1428 b 279 1428 463 1428 368 1428 b 100 1428 203 1428 132 1428 l 49 1428 b 49 1321 49 1428 49 1389 b 49 -376 49 981 49 -85 b 49 -432 49 -400 49 -419 b 192 -432 83 -432 143 -432 b 461 -432 282 -432 399 -432 b 533 -432 496 -432 533 -432 l 533 -375 b 507 -375 533 -375 524 -375 b 279 -375 463 -375 368 -375 b 279 1126 279 -75 279 760 b 279 1371 279 1218 279 1313 z "},"\\":{"ha":806,"x_min":0,"x_max":0,"o":"m 276 1286 b 188 1607 233 1444 188 1607 l 69 1574 b 100 1461 69 1574 81 1532 b 601 -349 201 1097 515 -39 b 617 -406 608 -374 613 -392 b 736 -375 653 -396 735 -375 b 276 1286 667 -128 393 865 z "},"]":{"ha":328,"x_min":0,"x_max":0,"o":"m 49 1428 b -181 1428 -40 1428 -136 1428 b -206 1428 -196 1428 -206 1428 l -206 1371 b -133 1371 -206 1371 -169 1371 b 49 1371 -90 1371 -21 1371 b 49 1126 49 1313 49 1219 b 49 -375 49 760 49 -75 b -181 -375 -40 -375 -136 -375 b -206 -375 -196 -375 -206 -375 l -206 -432 b -133 -432 -206 -432 -169 -432 b 135 -432 -71 -432 46 -432 b 279 -432 185 -432 243 -432 b 279 -376 279 -419 279 -400 b 279 1321 279 -85 279 981 b 279 1428 279 1389 279 1428 b 49 1428 247 1428 124 1428 z "},"^":{"ha":700,"x_min":0,"x_max":0,"o":"m 344 1425 b 49 981 239 1425 49 981 l 75 981 b 344 1206 75 981 210 1206 b 624 981 475 1206 624 981 l 650 981 b 344 1425 650 981 450 1425 z "},"_":{"ha":1163,"x_min":0,"x_max":0,"o":"m 1053 -215 b 81 -215 857 -215 247 -215 b 50 -215 67 -215 57 -215 b 49 -393 50 -235 49 -393 b 942 -393 182 -393 715 -393 b 1114 -393 1026 -393 1114 -393 l 1114 -215 b 1053 -215 1114 -215 1090 -215 z "},"`":{"ha":371,"x_min":0,"x_max":0,"o":"m 204 1364 l 49 1364 l 257 1117 l 321 1117 z "},"a":{"ha":799,"x_min":0,"x_max":0,"o":"m 806 106 b 674 156 699 69 678 126 b 674 463 674 332 674 354 b 674 463 674 463 674 463 b 186 679 660 703 375 831 b 186 678 186 678 186 678 b 182 675 185 676 183 676 b 182 674 182 675 182 675 b 153 606 164 657 153 633 b 246 514 153 556 194 514 b 338 607 297 514 339 556 b 311 672 338 633 328 656 b 408 460 360 665 404 614 b 408 414 408 447 408 432 b 242 489 367 461 307 489 b 10 246 114 489 10 381 b 242 3 10 113 114 3 b 411 81 308 3 368 33 b 586 -3 424 40 494 -3 b 588 -3 586 -3 586 -3 b 588 -3 588 -3 588 -3 b 590 -3 588 -3 589 -3 b 674 6 639 -3 674 6 b 674 8 674 6 674 7 b 674 8 674 8 674 8 b 674 8 674 8 674 8 b 806 106 757 33 817 110 z m 408 96 b 360 67 394 78 378 67 b 268 246 308 67 268 147 b 360 426 268 346 308 426 b 408 397 378 426 394 415 b 408 96 408 311 408 186 z "},"b":{"ha":878,"x_min":0,"x_max":0,"o":"m 553 703 b 331 581 465 703 386 656 b 331 635 331 600 331 617 b 331 781 331 696 331 747 l 331 969 b 315 969 331 969 324 969 b -11 832 286 938 189 832 l -11 817 b 67 697 -11 817 50 811 b 67 97 67 547 67 251 b 13 15 63 68 29 18 b 13 0 13 14 13 0 l 378 0 b 553 -69 428 -44 488 -69 b 858 317 721 -69 858 103 b 553 703 858 529 721 703 z m 425 31 b 340 69 394 31 365 46 b 331 103 335 82 331 93 b 331 144 331 117 331 131 b 331 553 331 256 331 417 b 425 601 358 583 390 601 b 594 317 518 601 594 474 b 425 31 594 158 518 31 z "},"c":{"ha":657,"x_min":0,"x_max":0,"o":"m 639 239 b 497 149 586 185 539 158 b 450 144 482 146 467 144 b 446 144 449 144 447 144 b 342 194 396 149 360 176 b 279 351 310 231 289 285 b 390 696 251 526 290 676 b 533 638 440 704 518 686 b 474 563 549 592 511 569 b 354 431 407 556 354 500 b 486 299 354 358 413 299 b 615 407 550 299 604 346 b 351 721 647 521 636 742 b 350 721 350 721 350 721 b 15 351 185 713 15 539 b 335 3 15 160 165 3 b 486 50 390 3 442 19 b 486 50 486 50 486 50 b 575 135 518 69 550 101 b 596 161 585 146 592 154 b 639 239 628 206 646 242 z "},"d":{"ha":926,"x_min":0,"x_max":0,"o":"m 931 108 b 799 165 814 69 800 140 b 799 635 799 300 799 493 b 799 779 799 696 799 747 l 799 969 b 783 969 799 969 792 969 b 457 832 754 938 657 832 l 457 817 b 533 697 457 817 517 811 b 533 604 533 671 533 639 b 322 701 479 665 404 701 b 17 354 153 701 17 546 b 322 7 17 163 153 7 b 535 106 406 7 481 44 b 711 0 546 56 618 0 b 778 7 739 0 763 3 b 796 11 785 7 790 8 b 799 11 797 11 799 11 b 931 108 882 36 942 113 z m 533 132 b 450 97 508 110 481 97 b 281 354 356 97 281 213 b 450 611 281 496 356 611 b 533 578 481 611 508 599 b 533 132 533 424 533 229 z "},"e":{"ha":646,"x_min":0,"x_max":0,"o":"m 638 239 b 497 149 586 185 539 158 b 450 144 482 146 467 144 b 446 144 449 144 447 144 b 342 194 396 149 360 176 b 279 351 310 231 289 285 b 275 382 278 361 276 371 b 532 351 329 267 468 258 b 351 721 632 497 585 735 b 350 721 350 721 350 721 b 15 351 185 713 15 539 b 335 3 15 160 165 3 b 486 50 390 3 442 19 b 486 50 486 50 486 50 b 575 135 518 69 550 101 b 596 161 585 146 592 154 b 638 239 628 206 646 242 z m 404 690 b 274 401 506 644 410 313 b 404 690 260 569 308 714 z "},"f":{"ha":651,"x_min":0,"x_max":0,"o":"m 536 940 b 536 940 536 940 536 940 b 81 674 340 1061 72 918 b 81 497 81 640 81 575 l 10 497 l 10 468 l 81 468 b 81 100 81 342 81 193 b 26 15 79 71 44 18 b 26 0 26 14 26 0 l 400 0 b 400 15 400 0 400 14 b 346 101 382 18 346 72 b 346 156 346 118 346 138 b 346 468 346 256 346 368 l 471 468 l 471 497 l 346 497 b 346 674 346 567 346 628 b 458 914 346 865 401 914 b 540 808 567 900 553 806 b 515 811 532 810 524 811 b 383 679 443 811 383 751 b 515 547 383 606 443 547 b 639 632 572 547 621 582 b 536 940 688 726 653 876 z "},"g":{"ha":950,"x_min":0,"x_max":0,"o":"m 908 763 b 613 644 749 801 654 710 b 403 699 551 679 481 699 b 22 364 193 699 22 549 b 315 36 22 204 147 71 b 156 -4 264 21 226 -4 b 49 93 92 -4 49 46 b 29 93 49 99 31 99 b 92 -68 18 47 43 -36 b 375 -85 192 -132 288 -79 b 515 -281 454 -92 508 -129 b 158 -494 526 -599 210 -542 b 150 -428 135 -464 142 -426 b 175 -429 158 -429 167 -429 b 300 -292 247 -426 304 -364 b 163 -165 297 -219 236 -162 b 43 -256 107 -168 60 -206 b 132 -543 3 -344 35 -476 b 779 -271 335 -697 800 -531 b 779 -268 779 -269 779 -269 b 503 39 767 -87 649 6 b 785 363 665 78 785 208 b 651 618 785 465 732 557 b 889 644 756 750 818 663 b 908 763 950 631 1008 738 z m 403 60 b 285 364 338 60 285 196 b 403 667 285 531 338 667 b 522 364 469 667 522 531 b 403 60 522 196 469 60 z "},"h":{"ha":942,"x_min":0,"x_max":0,"o":"m 949 113 b 858 103 911 100 882 99 b 790 469 763 138 736 243 b 571 699 849 714 571 699 b 331 557 475 689 382 618 b 331 631 331 582 331 607 b 331 776 331 693 331 744 l 331 967 b 315 967 331 967 324 967 b -11 829 286 935 189 829 l -11 814 b 67 694 -11 814 50 808 b 67 94 67 544 67 249 b 13 13 63 65 29 15 b 13 -3 13 10 13 -3 l 386 -3 b 386 13 386 -3 386 10 b 331 100 367 15 331 69 b 331 142 331 113 331 128 b 331 507 331 240 331 381 b 496 607 367 554 428 611 b 522 597 507 606 515 601 b 551 64 575 533 403 281 b 607 17 567 40 586 25 b 607 17 607 17 607 17 b 796 11 669 -17 758 1 b 949 113 888 36 960 118 z "},"i":{"ha":472,"x_min":0,"x_max":0,"o":"m 479 106 b 346 163 361 67 347 136 b 346 364 346 251 346 311 b 346 510 346 414 346 457 l 346 699 b 331 699 346 699 339 699 b 4 561 301 667 204 561 l 4 547 b 82 428 4 547 65 542 b 82 115 82 338 82 222 b 260 -3 82 63 158 -3 b 326 4 286 -3 310 0 b 344 8 332 4 338 6 b 346 8 346 8 346 8 b 479 106 431 32 490 110 z m 214 703 b 346 835 286 703 346 763 b 214 967 346 907 286 967 b 82 835 140 967 82 907 b 214 703 82 763 140 703 z "},"j":{"ha":539,"x_min":0,"x_max":0,"o":"m 322 706 b 454 838 396 706 454 765 b 322 969 454 911 396 969 b 190 838 250 969 190 911 b 322 706 190 765 250 706 z m 478 703 b 151 565 449 669 351 565 l 151 550 b 229 431 151 550 213 544 b 229 413 229 425 229 418 b 229 -106 229 229 229 10 b 115 -346 229 -299 172 -346 b 33 -240 8 -332 21 -237 b 58 -243 42 -242 50 -243 b 190 -111 131 -243 190 -183 b 58 21 190 -37 131 21 b -65 -64 1 21 -46 -14 b 38 -374 -112 -158 -79 -308 b 493 -106 233 -493 501 -351 b 493 367 493 -33 493 199 l 493 703 b 478 703 493 703 486 703 z "},"k":{"ha":864,"x_min":0,"x_max":0,"o":"m 872 106 b 736 146 801 94 757 125 b 490 507 599 304 490 507 l 572 597 b 572 597 572 597 572 597 l 578 604 b 683 685 610 638 667 682 b 683 699 683 686 683 699 l 479 699 b 479 685 479 699 479 686 b 521 585 518 685 551 631 l 331 375 b 331 632 331 464 331 556 b 331 776 331 693 331 744 l 331 967 b 315 967 331 967 324 967 b -11 829 286 935 189 829 l -11 814 b 67 694 -11 814 50 808 b 67 94 67 544 67 249 b 13 13 63 65 29 15 b 13 -3 13 10 13 -3 l 386 -3 b 386 13 386 -3 386 10 b 331 100 367 15 331 69 b 331 142 331 113 331 128 b 331 331 331 196 331 261 l 335 335 l 475 115 b 653 -3 475 115 551 -3 b 719 3 681 -3 704 0 b 738 7 725 4 732 6 b 739 8 739 8 739 8 b 872 106 824 32 883 110 z "},"l":{"ha":433,"x_min":0,"x_max":0,"o":"m 439 108 b 306 165 321 69 307 140 b 306 635 306 300 306 493 b 306 779 306 696 306 747 l 306 969 b 290 969 306 969 299 969 b -36 832 261 938 164 832 l -36 817 b 42 697 -36 817 25 811 b 42 118 42 539 42 235 b 219 0 42 65 118 0 b 286 7 247 0 269 3 b 304 11 292 7 297 8 b 306 11 306 11 306 11 b 439 108 390 36 450 113 z "},"m":{"ha":1382,"x_min":0,"x_max":0,"o":"m 1388 113 b 1299 103 1351 100 1322 99 b 1231 469 1203 138 1176 243 b 1011 699 1289 714 1011 699 b 778 565 919 689 831 624 b 778 581 778 569 778 575 b 600 699 778 633 701 699 b 533 692 572 699 549 694 b 515 688 528 690 521 689 b 514 688 514 688 514 688 b 514 688 514 688 514 688 b 349 600 458 672 397 638 l 349 699 b 333 699 349 699 342 699 b 7 561 304 667 207 561 l 7 547 b 85 428 7 547 68 542 b 85 94 85 332 85 189 b 31 13 81 65 47 15 b 31 -3 31 10 31 -3 l 404 -3 b 404 13 404 -3 404 10 b 349 100 385 15 349 69 b 349 142 349 113 349 128 b 349 364 349 242 349 307 b 349 510 349 414 349 457 l 349 558 b 458 600 381 585 418 603 b 514 532 506 592 513 551 b 514 510 514 525 514 517 b 514 186 514 432 514 308 b 514 115 514 163 514 139 b 692 -3 514 63 590 -3 b 758 4 719 -3 743 0 b 776 8 764 4 769 6 b 778 8 778 8 778 8 b 911 106 863 33 922 110 b 778 163 793 67 779 136 b 778 186 778 171 778 179 b 778 510 778 342 778 407 b 778 517 778 511 778 514 b 936 607 815 561 872 611 b 963 597 947 606 956 601 b 992 64 1015 533 843 281 b 1047 17 1007 40 1026 25 b 1047 17 1047 17 1047 17 b 1236 11 1110 -17 1199 1 b 1388 113 1328 36 1400 118 z "},"n":{"ha":932,"x_min":0,"x_max":0,"o":"m 939 113 b 849 103 901 100 872 99 b 781 469 753 138 726 243 b 561 699 839 714 561 699 b 349 586 482 690 403 639 l 349 699 b 333 699 349 699 342 699 b 7 561 304 667 207 561 l 7 547 b 85 428 7 547 68 542 b 85 94 85 332 85 189 b 31 13 81 65 47 15 b 31 -3 31 10 31 -3 l 404 -3 b 404 13 404 -3 404 10 b 349 100 385 15 349 69 b 349 142 349 113 349 128 b 349 364 349 242 349 307 b 349 510 349 414 349 457 l 349 539 b 486 607 385 576 433 610 b 513 597 497 606 506 601 b 542 64 567 533 393 281 b 597 17 557 40 576 25 b 597 17 597 17 597 17 b 786 11 660 -17 749 1 b 939 113 878 36 950 118 z "},"o":{"ha":833,"x_min":0,"x_max":0,"o":"m 417 701 b 14 347 194 701 14 543 b 417 -7 14 151 194 -7 b 819 347 639 -7 819 151 b 417 701 819 543 639 701 z m 417 26 b 290 347 347 26 290 171 b 417 668 290 525 347 668 b 542 347 486 668 542 525 b 417 26 542 171 486 26 z "},"p":{"ha":878,"x_min":0,"x_max":0,"o":"m 553 768 b 378 699 488 768 426 742 l 11 699 b 11 683 11 699 11 685 b 67 601 29 681 63 631 b 65 601 65 601 65 601 b 65 -261 65 492 65 -60 b -67 -312 61 -292 42 -347 b 65 -408 -78 -307 -18 -383 b 65 -408 65 -408 65 -408 b 153 -419 65 -408 101 -419 b 153 -419 153 -419 153 -419 b 153 -419 153 -419 153 -419 b 331 -301 254 -419 331 -356 b 331 118 331 -236 331 -61 b 553 -4 386 43 465 -4 b 858 382 721 -4 858 169 b 553 768 858 596 721 768 z m 425 97 b 331 146 390 97 357 115 b 331 596 331 344 331 540 b 339 629 331 606 333 617 b 425 668 364 653 393 668 b 594 382 518 668 594 540 b 425 97 594 225 518 97 z "},"q":{"ha":867,"x_min":0,"x_max":0,"o":"m 932 -308 b 800 -258 825 -344 804 -287 b 800 604 800 -56 800 496 b 800 604 800 604 800 604 b 854 688 803 635 836 685 b 854 703 854 689 854 703 l 481 703 b 481 701 481 703 481 701 b 324 754 435 735 381 754 b 18 381 154 754 18 588 b 324 7 18 174 154 7 b 535 111 406 7 481 47 b 535 -299 535 -64 535 -235 b 713 -417 535 -351 613 -417 b 714 -417 713 -417 713 -417 b 714 -417 714 -417 714 -417 b 800 -406 764 -417 800 -406 b 800 -406 800 -406 800 -406 b 932 -308 883 -381 943 -304 z m 535 140 b 451 104 510 118 482 104 b 282 381 357 104 282 228 b 451 657 282 533 357 657 b 529 625 479 657 506 644 b 535 601 533 617 535 608 b 535 140 535 550 535 344 z "},"r":{"ha":764,"x_min":0,"x_max":0,"o":"m 611 699 b 349 478 456 715 379 564 b 349 510 349 488 349 499 l 349 699 b 333 699 349 699 342 699 b 7 561 304 667 207 561 l 7 547 b 85 428 7 547 68 542 b 85 94 85 332 85 189 b 31 13 81 65 47 15 b 31 -3 31 10 31 -3 l 404 -3 b 404 13 404 -3 404 10 b 349 100 385 15 349 69 b 349 142 349 113 349 128 b 349 364 349 242 349 307 b 349 378 349 368 349 374 b 551 668 394 571 494 651 b 667 618 624 690 667 650 b 632 578 667 586 646 576 b 608 581 624 579 615 581 b 476 449 535 581 476 521 b 608 317 476 375 535 317 b 735 415 669 317 721 358 b 611 699 782 522 749 685 z "},"s":{"ha":647,"x_min":0,"x_max":0,"o":"m 636 161 b 363 528 618 369 407 464 b 506 642 244 686 435 707 b 521 675 515 633 535 664 b 185 440 322 836 103 613 b 374 144 215 353 364 324 b 174 -93 382 -93 260 -111 b 126 1 107 -68 115 3 b 151 0 135 0 143 0 b 276 138 224 3 281 64 b 139 264 274 210 213 267 b 19 174 83 261 36 224 b 136 -132 -24 76 17 -71 b 138 -132 138 -132 138 -132 b 638 158 344 -242 656 -86 b 636 161 638 160 636 161 z "},"t":{"ha":490,"x_min":0,"x_max":0,"o":"m 492 108 b 358 165 374 69 360 140 b 358 635 358 300 358 493 b 358 672 358 647 358 660 l 457 672 l 457 701 l 358 701 b 358 779 358 733 358 760 l 358 969 b 343 969 358 969 351 969 b 17 832 314 938 217 832 l 17 817 b 93 701 17 817 76 813 l -4 701 l -4 672 l 94 672 b 94 118 94 508 94 229 b 272 0 94 65 171 0 b 339 7 300 0 324 4 b 357 11 344 8 350 10 b 358 11 358 11 358 11 b 492 108 443 36 503 113 z "},"u":{"ha":968,"x_min":0,"x_max":0,"o":"m 974 106 b 840 163 856 67 842 136 b 840 599 840 328 840 490 b 896 685 842 628 878 681 b 896 699 896 686 896 699 l 522 699 b 522 685 522 699 522 686 b 576 599 540 681 575 628 b 576 208 576 508 576 339 b 401 94 542 158 476 90 b 346 163 354 103 347 144 b 346 364 346 251 346 311 b 346 510 346 414 346 457 l 346 699 b 331 699 346 699 339 699 b 4 561 301 667 204 561 l 4 547 b 82 428 4 547 65 542 b 82 115 82 338 82 222 b 260 -3 82 63 158 -3 b 326 4 288 -3 310 0 b 344 8 332 4 338 6 b 346 8 346 8 346 8 b 346 8 346 8 346 8 b 576 158 432 32 529 100 b 576 115 576 143 576 129 b 754 -3 576 63 653 -3 b 821 4 782 -3 806 0 b 839 8 826 4 833 6 b 840 8 840 8 840 8 b 974 106 925 32 985 110 z "},"v":{"ha":689,"x_min":0,"x_max":0,"o":"m 631 742 b 608 756 624 747 617 753 b 608 757 608 757 608 757 b 518 768 582 771 550 775 b 418 611 447 753 403 682 b 576 511 435 540 504 494 b 590 515 581 513 585 513 b 600 426 613 522 617 478 l 515 161 b 432 174 482 93 440 149 b 313 597 381 319 338 485 b 367 685 313 626 349 681 b 367 699 367 686 367 699 l -7 699 b -7 685 -7 699 -7 686 b 40 628 6 682 28 654 b 47 597 43 618 44 608 b 47 597 47 597 47 597 b 49 597 49 597 49 597 b 179 115 86 456 142 232 b 357 -3 196 64 257 0 b 424 4 386 -4 408 0 l 424 3 b 549 167 519 22 539 133 b 549 167 549 167 549 167 l 628 418 b 631 742 678 569 717 675 z "},"w":{"ha":1149,"x_min":0,"x_max":0,"o":"m 1090 742 b 1068 756 1083 747 1076 753 b 1068 757 1068 757 1068 757 b 978 768 1042 771 1010 775 b 878 611 907 753 863 682 b 1035 511 893 540 964 494 b 1049 515 1040 513 1044 513 b 1058 426 1072 522 1075 478 l 975 163 b 975 161 975 163 975 163 b 890 174 942 93 900 149 b 771 597 839 319 797 485 b 826 683 771 626 807 681 b 826 699 826 686 826 699 l 451 699 b 451 683 451 699 451 686 b 499 628 465 682 488 654 b 507 597 501 618 504 608 b 507 597 507 597 507 597 b 507 597 507 597 507 597 b 574 343 526 525 550 432 l 515 161 b 432 174 483 93 440 149 b 313 597 381 319 338 485 b 367 683 313 626 349 681 b 367 699 367 686 367 699 l -7 699 b -7 683 -7 699 -7 686 b 40 628 7 682 28 654 b 47 597 43 618 44 608 b 47 597 47 597 47 597 b 49 597 49 597 49 597 b 179 115 86 456 142 232 b 357 -3 196 64 257 0 b 424 3 386 -4 408 0 b 549 167 519 22 539 133 l 588 289 b 639 115 606 222 624 161 b 817 -3 656 64 715 0 b 883 3 844 -4 868 0 b 986 97 939 15 969 57 l 986 99 l 988 100 b 1006 160 997 124 1001 146 l 1088 418 b 1090 742 1138 569 1175 675 z "},"x":{"ha":774,"x_min":0,"x_max":0,"o":"m 764 157 b 668 153 721 113 694 126 b 485 425 608 235 542 332 l 682 625 b 769 685 714 654 756 682 b 769 699 769 686 769 699 l 575 699 b 575 685 575 699 575 686 b 624 607 606 685 633 647 l 469 450 b 385 604 436 507 406 560 b 424 685 379 638 407 682 b 424 699 424 686 424 699 l -6 699 b -6 685 -6 699 -6 686 b 72 601 13 682 44 653 b 75 597 74 600 74 599 b 75 597 75 597 75 597 b 279 256 128 501 211 367 l 118 92 b 13 13 86 60 29 15 b 13 -3 13 10 13 -3 l 207 -3 b 207 13 207 -3 207 10 b 158 92 175 13 147 51 l 294 231 b 364 118 322 186 346 147 b 532 -3 392 72 431 0 b 599 4 560 -4 583 0 l 599 3 b 771 161 693 22 761 128 b 764 157 771 163 769 164 z "},"y":{"ha":846,"x_min":0,"x_max":0,"o":"m 789 699 l 631 699 b 631 685 631 699 631 686 b 697 594 667 685 711 643 l 693 582 l 532 139 b 474 175 506 132 479 158 b 318 597 418 321 354 485 b 365 685 307 631 346 681 b 365 699 365 686 365 699 l -8 699 b -8 685 -8 699 -8 686 b 42 628 4 682 28 656 b 222 115 90 490 182 240 b 378 -1 238 68 290 10 b 399 -3 383 -3 390 -3 b 400 -3 399 -3 400 -3 b 421 -3 407 -3 414 -3 b 476 -11 442 -3 464 -3 l 411 -193 b 410 -193 411 -193 410 -193 b 200 -374 372 -301 283 -376 b 185 -371 197 -372 192 -371 b 153 -364 172 -369 163 -367 b 107 -328 136 -356 121 -344 b 104 -331 106 -329 106 -329 b 103 -282 88 -306 96 -281 b 128 -285 111 -283 119 -285 b 260 -153 200 -285 260 -225 b 128 -21 260 -79 200 -21 b 4 -106 71 -21 24 -56 b 107 -414 -43 -200 -10 -350 b 119 -418 111 -417 115 -417 b 460 -206 232 -457 399 -378 l 754 599 b 857 683 776 642 839 681 b 857 699 857 686 857 699 z "},"z":{"ha":788,"x_min":0,"x_max":0,"o":"m 761 210 b 581 257 724 272 643 293 b 533 76 518 221 496 139 b 542 64 536 72 539 68 b 518 36 549 53 539 43 b 407 119 453 31 407 47 b 683 486 425 222 590 347 b 519 699 751 589 665 694 b 519 699 519 699 519 699 l 322 699 b 28 601 169 699 63 700 b 19 576 24 593 22 585 b 19 576 19 576 19 576 b 36 486 15 546 19 514 b 217 439 72 424 154 403 b 264 619 279 476 300 557 b 256 632 261 624 258 628 b 306 667 244 647 268 661 b 482 629 393 671 504 671 b 492 647 483 632 486 639 b 35 115 424 465 35 286 b 213 -3 35 61 113 -3 b 236 -3 219 -3 228 -3 b 235 -3 236 -3 235 -3 l 460 -1 b 461 -1 460 -1 461 -1 b 769 94 621 -3 733 -7 b 776 119 774 103 775 111 b 776 121 776 119 776 121 b 776 121 776 121 776 121 b 761 210 782 150 778 182 z "},"{":{"ha":639,"x_min":0,"x_max":0,"o":"m 589 -199 b 589 265 589 -17 589 143 b 589 475 589 364 589 438 b 589 503 589 475 589 486 b 589 503 589 503 589 503 b 589 714 589 556 589 667 b 589 1206 589 838 589 1010 b 699 1438 589 1422 699 1388 b 313 1197 315 1438 313 1224 b 313 713 313 1032 313 849 b 69 510 311 644 174 521 b 69 503 69 508 69 507 b 69 475 69 493 69 475 b 69 468 69 472 69 469 b 313 265 174 457 311 333 b 313 -190 313 133 313 -36 b 699 -432 313 -217 315 -432 b 589 -199 699 -381 589 -415 z "},"|":{"ha":200,"x_min":0,"x_max":0,"o":"m 49 1185 b 49 -336 49 879 49 -76 b 49 -385 49 -358 49 -374 b 151 -386 79 -385 150 -386 b 151 1010 151 -178 151 657 b 151 1279 151 1143 151 1279 l 49 1279 b 49 1185 49 1279 49 1244 z "},"}":{"ha":639,"x_min":0,"x_max":0,"o":"m 326 713 b 326 1197 326 849 326 1032 b -61 1438 326 1224 322 1438 b 49 1206 -61 1388 49 1422 b 49 714 49 1010 49 838 b 49 503 49 667 49 556 b 49 475 49 486 49 475 b 49 265 49 438 49 364 b 49 -199 49 143 49 -18 b -61 -432 49 -415 -61 -381 b 326 -190 322 -432 326 -217 b 326 265 326 -36 326 132 b 568 468 326 333 465 457 b 568 475 568 469 568 472 b 568 503 568 475 568 493 b 568 510 568 507 568 508 b 326 713 465 521 326 644 z "},"~":{"ha":883,"x_min":0,"x_max":0,"o":"m 771 474 b 489 460 686 389 615 410 b 14 397 364 508 192 575 l 110 301 b 440 333 225 417 315 382 b 650 281 504 308 575 281 b 867 378 721 281 793 304 z "},"":{"ha":563,"x_min":0,"x_max":0,"o":""},"":{"ha":663,"x_min":0,"x_max":0,"o":"m 536 672 l 129 672 b 18 582 68 672 18 632 l 18 358 b 129 268 18 308 68 268 l 536 268 b 647 358 597 268 647 308 l 647 582 b 536 672 647 632 597 672 z m 624 358 b 536 288 624 319 585 288 l 129 288 b 42 358 82 288 42 319 l 42 582 b 129 653 42 621 82 653 l 536 653 b 624 582 585 653 624 621 l 624 358 z m 171 508 l 215 508 l 215 529 l 171 529 l 171 544 l 221 544 l 221 565 l 136 565 l 136 481 l 171 481 l 171 508 z m 268 503 l 278 503 l 296 481 l 333 481 l 311 507 b 331 533 324 513 331 521 b 283 565 331 553 313 565 l 232 565 l 232 481 l 268 481 l 268 503 z m 268 543 l 281 543 b 296 533 290 543 296 540 b 281 524 296 528 290 524 l 268 524 l 268 543 z m 432 503 l 379 503 l 379 514 l 424 514 l 424 535 l 379 535 l 379 544 l 431 544 l 431 565 l 344 565 l 344 481 l 432 481 l 432 503 z m 533 503 l 481 503 l 481 514 l 525 514 l 525 535 l 481 535 l 481 544 l 532 544 l 532 565 l 446 565 l 446 481 l 533 481 l 533 503 z m 156 396 l 142 425 l 119 425 l 146 376 l 165 376 l 192 425 l 171 425 l 156 396 z m 214 394 l 240 394 l 240 407 l 214 407 l 214 413 l 243 413 l 243 425 l 193 425 l 193 376 l 244 376 l 244 389 l 214 389 l 214 394 z m 310 407 b 282 425 310 418 300 425 l 253 425 l 253 376 l 274 376 l 274 389 l 279 389 l 289 376 l 311 376 l 299 392 b 310 407 306 394 310 400 z m 281 401 l 274 401 l 274 413 l 281 413 b 289 407 286 413 289 410 b 281 401 289 403 286 401 z m 336 411 b 343 414 336 413 338 414 b 361 410 349 414 354 413 l 367 422 b 343 426 361 425 351 426 b 315 410 325 426 315 419 b 349 390 315 392 349 396 b 342 388 349 389 347 388 b 321 392 335 388 326 389 l 314 379 b 340 375 321 376 331 375 b 369 392 360 375 369 382 b 336 411 369 410 336 404 z m 375 376 l 396 376 l 396 425 l 375 425 l 375 376 z m 439 426 b 404 400 418 426 404 415 b 439 375 404 386 418 375 b 474 400 458 375 474 386 b 439 426 474 415 458 426 z m 439 388 b 425 400 431 388 425 393 b 439 413 425 408 431 413 b 453 400 446 413 453 408 b 439 388 453 393 446 388 z m 521 403 l 497 425 l 481 425 l 481 376 l 501 376 l 501 399 l 524 376 l 542 376 l 542 425 l 521 425 l 521 403 z "},"":{"ha":663,"x_min":0,"x_max":0,"o":"m 536 672 l 129 672 b 18 582 68 672 18 632 l 18 358 b 129 268 18 308 68 268 l 536 268 b 647 358 597 268 647 308 l 647 582 b 536 672 647 632 597 672 z m 624 358 b 536 288 624 319 585 288 l 129 288 b 42 358 82 288 42 319 l 42 582 b 129 653 42 621 82 653 l 536 653 b 624 582 585 653 624 621 l 624 358 z m 171 508 l 215 508 l 215 529 l 171 529 l 171 544 l 221 544 l 221 565 l 136 565 l 136 481 l 171 481 l 171 508 z m 268 503 l 278 503 l 296 481 l 333 481 l 311 507 b 331 533 324 513 331 521 b 283 565 331 553 313 565 l 232 565 l 232 481 l 268 481 l 268 503 z m 268 543 l 281 543 b 296 533 290 543 296 540 b 281 524 296 528 290 524 l 268 524 l 268 543 z m 432 503 l 379 503 l 379 514 l 424 514 l 424 535 l 379 535 l 379 544 l 431 544 l 431 565 l 344 565 l 344 481 l 432 481 l 432 503 z m 533 503 l 481 503 l 481 514 l 525 514 l 525 535 l 481 535 l 481 544 l 532 544 l 532 565 l 446 565 l 446 481 l 533 481 l 533 503 z m 156 396 l 142 425 l 119 425 l 146 376 l 165 376 l 192 425 l 171 425 l 156 396 z m 214 394 l 240 394 l 240 407 l 214 407 l 214 413 l 243 413 l 243 425 l 193 425 l 193 376 l 244 376 l 244 389 l 214 389 l 214 394 z m 310 407 b 282 425 310 418 300 425 l 253 425 l 253 376 l 274 376 l 274 389 l 279 389 l 289 376 l 311 376 l 299 392 b 310 407 306 394 310 400 z m 281 401 l 274 401 l 274 413 l 281 413 b 289 407 286 413 289 410 b 281 401 289 403 286 401 z m 336 411 b 343 414 336 413 338 414 b 361 410 349 414 354 413 l 367 422 b 343 426 361 425 351 426 b 315 410 325 426 315 419 b 349 390 315 392 349 396 b 342 388 349 389 347 388 b 321 392 335 388 326 389 l 314 379 b 340 375 321 376 331 375 b 369 392 360 375 369 382 b 336 411 369 410 336 404 z m 375 376 l 396 376 l 396 425 l 375 425 l 375 376 z m 439 426 b 404 400 418 426 404 415 b 439 375 404 386 418 375 b 474 400 458 375 474 386 b 439 426 474 415 458 426 z m 439 388 b 425 400 431 388 425 393 b 439 413 425 408 431 413 b 453 400 446 413 453 408 b 439 388 453 393 446 388 z m 521 403 l 497 425 l 481 425 l 481 376 l 501 376 l 501 399 l 524 376 l 542 376 l 542 425 l 521 425 l 521 403 z "},"":{"ha":663,"x_min":0,"x_max":0,"o":"m 536 672 l 129 672 b 18 582 68 672 18 632 l 18 358 b 129 268 18 308 68 268 l 536 268 b 647 358 597 268 647 308 l 647 582 b 536 672 647 632 597 672 z m 624 358 b 536 288 624 319 585 288 l 129 288 b 42 358 82 288 42 319 l 42 582 b 129 653 42 621 82 653 l 536 653 b 624 582 585 653 624 621 l 624 358 z m 171 508 l 215 508 l 215 529 l 171 529 l 171 544 l 221 544 l 221 565 l 136 565 l 136 481 l 171 481 l 171 508 z m 268 503 l 278 503 l 296 481 l 333 481 l 311 507 b 331 533 324 513 331 521 b 283 565 331 553 313 565 l 232 565 l 232 481 l 268 481 l 268 503 z m 268 543 l 281 543 b 296 533 290 543 296 540 b 281 524 296 528 290 524 l 268 524 l 268 543 z m 432 503 l 379 503 l 379 514 l 424 514 l 424 535 l 379 535 l 379 544 l 431 544 l 431 565 l 344 565 l 344 481 l 432 481 l 432 503 z m 533 503 l 481 503 l 481 514 l 525 514 l 525 535 l 481 535 l 481 544 l 532 544 l 532 565 l 446 565 l 446 481 l 533 481 l 533 503 z m 156 396 l 142 425 l 119 425 l 146 376 l 165 376 l 192 425 l 171 425 l 156 396 z m 214 394 l 240 394 l 240 407 l 214 407 l 214 413 l 243 413 l 243 425 l 193 425 l 193 376 l 244 376 l 244 389 l 214 389 l 214 394 z m 310 407 b 282 425 310 418 300 425 l 253 425 l 253 376 l 274 376 l 274 389 l 279 389 l 289 376 l 311 376 l 299 392 b 310 407 306 394 310 400 z m 281 401 l 274 401 l 274 413 l 281 413 b 289 407 286 413 289 410 b 281 401 289 403 286 401 z m 336 411 b 343 414 336 413 338 414 b 361 410 349 414 354 413 l 367 422 b 343 426 361 425 351 426 b 315 410 325 426 315 419 b 349 390 315 392 349 396 b 342 388 349 389 347 388 b 321 392 335 388 326 389 l 314 379 b 340 375 321 376 331 375 b 369 392 360 375 369 382 b 336 411 369 410 336 404 z m 375 376 l 396 376 l 396 425 l 375 425 l 375 376 z m 439 426 b 404 400 418 426 404 415 b 439 375 404 386 418 375 b 474 400 458 375 474 386 b 439 426 474 415 458 426 z m 439 388 b 425 400 431 388 425 393 b 439 413 425 408 431 413 b 453 400 446 413 453 408 b 439 388 453 393 446 388 z m 521 403 l 497 425 l 481 425 l 481 376 l 501 376 l 501 399 l 524 376 l 542 376 l 542 425 l 521 425 l 521 403 z "},"":{"ha":663,"x_min":0,"x_max":0,"o":"m 536 672 l 129 672 b 18 582 68 672 18 632 l 18 358 b 129 268 18 308 68 268 l 536 268 b 647 358 597 268 647 308 l 647 582 b 536 672 647 632 597 672 z m 624 358 b 536 288 624 319 585 288 l 129 288 b 42 358 82 288 42 319 l 42 582 b 129 653 42 621 82 653 l 536 653 b 624 582 585 653 624 621 l 624 358 z m 171 508 l 215 508 l 215 529 l 171 529 l 171 544 l 221 544 l 221 565 l 136 565 l 136 481 l 171 481 l 171 508 z m 268 503 l 278 503 l 296 481 l 333 481 l 311 507 b 331 533 324 513 331 521 b 283 565 331 553 313 565 l 232 565 l 232 481 l 268 481 l 268 503 z m 268 543 l 281 543 b 296 533 290 543 296 540 b 281 524 296 528 290 524 l 268 524 l 268 543 z m 432 503 l 379 503 l 379 514 l 424 514 l 424 535 l 379 535 l 379 544 l 431 544 l 431 565 l 344 565 l 344 481 l 432 481 l 432 503 z m 533 503 l 481 503 l 481 514 l 525 514 l 525 535 l 481 535 l 481 544 l 532 544 l 532 565 l 446 565 l 446 481 l 533 481 l 533 503 z m 156 396 l 142 425 l 119 425 l 146 376 l 165 376 l 192 425 l 171 425 l 156 396 z m 214 394 l 240 394 l 240 407 l 214 407 l 214 413 l 243 413 l 243 425 l 193 425 l 193 376 l 244 376 l 244 389 l 214 389 l 214 394 z m 310 407 b 282 425 310 418 300 425 l 253 425 l 253 376 l 274 376 l 274 389 l 279 389 l 289 376 l 311 376 l 299 392 b 310 407 306 394 310 400 z m 281 401 l 274 401 l 274 413 l 281 413 b 289 407 286 413 289 410 b 281 401 289 403 286 401 z m 336 411 b 343 414 336 413 338 414 b 361 410 349 414 354 413 l 367 422 b 343 426 361 425 351 426 b 315 410 325 426 315 419 b 349 390 315 392 349 396 b 342 388 349 389 347 388 b 321 392 335 388 326 389 l 314 379 b 340 375 321 376 331 375 b 369 392 360 375 369 382 b 336 411 369 410 336 404 z m 375 376 l 396 376 l 396 425 l 375 425 l 375 376 z m 439 426 b 404 400 418 426 404 415 b 439 375 404 386 418 375 b 474 400 458 375 474 386 b 439 426 474 415 458 426 z m 439 388 b 425 400 431 388 425 393 b 439 413 425 408 431 413 b 453 400 446 413 453 408 b 439 388 453 393 446 388 z m 521 403 l 497 425 l 481 425 l 481 376 l 501 376 l 501 399 l 524 376 l 542 376 l 542 425 l 521 425 l 521 403 z "},"":{"ha":663,"x_min":0,"x_max":0,"o":"m 536 672 l 129 672 b 18 582 68 672 18 632 l 18 358 b 129 268 18 308 68 268 l 536 268 b 647 358 597 268 647 308 l 647 582 b 536 672 647 632 597 672 z m 624 358 b 536 288 624 319 585 288 l 129 288 b 42 358 82 288 42 319 l 42 582 b 129 653 42 621 82 653 l 536 653 b 624 582 585 653 624 621 l 624 358 z m 171 508 l 215 508 l 215 529 l 171 529 l 171 544 l 221 544 l 221 565 l 136 565 l 136 481 l 171 481 l 171 508 z m 268 503 l 278 503 l 296 481 l 333 481 l 311 507 b 331 533 324 513 331 521 b 283 565 331 553 313 565 l 232 565 l 232 481 l 268 481 l 268 503 z m 268 543 l 281 543 b 296 533 290 543 296 540 b 281 524 296 528 290 524 l 268 524 l 268 543 z m 432 503 l 379 503 l 379 514 l 424 514 l 424 535 l 379 535 l 379 544 l 431 544 l 431 565 l 344 565 l 344 481 l 432 481 l 432 503 z m 533 503 l 481 503 l 481 514 l 525 514 l 525 535 l 481 535 l 481 544 l 532 544 l 532 565 l 446 565 l 446 481 l 533 481 l 533 503 z m 156 396 l 142 425 l 119 425 l 146 376 l 165 376 l 192 425 l 171 425 l 156 396 z m 214 394 l 240 394 l 240 407 l 214 407 l 214 413 l 243 413 l 243 425 l 193 425 l 193 376 l 244 376 l 244 389 l 214 389 l 214 394 z m 310 407 b 282 425 310 418 300 425 l 253 425 l 253 376 l 274 376 l 274 389 l 279 389 l 289 376 l 311 376 l 299 392 b 310 407 306 394 310 400 z m 281 401 l 274 401 l 274 413 l 281 413 b 289 407 286 413 289 410 b 281 401 289 403 286 401 z m 336 411 b 343 414 336 413 338 414 b 361 410 349 414 354 413 l 367 422 b 343 426 361 425 351 426 b 315 410 325 426 315 419 b 349 390 315 392 349 396 b 342 388 349 389 347 388 b 321 392 335 388 326 389 l 314 379 b 340 375 321 376 331 375 b 369 392 360 375 369 382 b 336 411 369 410 336 404 z m 375 376 l 396 376 l 396 425 l 375 425 l 375 376 z m 439 426 b 404 400 418 426 404 415 b 439 375 404 386 418 375 b 474 400 458 375 474 386 b 439 426 474 415 458 426 z m 439 388 b 425 400 431 388 425 393 b 439 413 425 408 431 413 b 453 400 446 413 453 408 b 439 388 453 393 446 388 z m 521 403 l 497 425 l 481 425 l 481 376 l 501 376 l 501 399 l 524 376 l 542 376 l 542 425 l 521 425 l 521 403 z "},"":{"ha":663,"x_min":0,"x_max":0,"o":"m 536 672 l 129 672 b 18 582 68 672 18 632 l 18 358 b 129 268 18 308 68 268 l 536 268 b 647 358 597 268 647 308 l 647 582 b 536 672 647 632 597 672 z m 624 358 b 536 288 624 319 585 288 l 129 288 b 42 358 82 288 42 319 l 42 582 b 129 653 42 621 82 653 l 536 653 b 624 582 585 653 624 621 l 624 358 z m 171 508 l 215 508 l 215 529 l 171 529 l 171 544 l 221 544 l 221 565 l 136 565 l 136 481 l 171 481 l 171 508 z m 268 503 l 278 503 l 296 481 l 333 481 l 311 507 b 331 533 324 513 331 521 b 283 565 331 553 313 565 l 232 565 l 232 481 l 268 481 l 268 503 z m 268 543 l 281 543 b 296 533 290 543 296 540 b 281 524 296 528 290 524 l 268 524 l 268 543 z m 432 503 l 379 503 l 379 514 l 424 514 l 424 535 l 379 535 l 379 544 l 431 544 l 431 565 l 344 565 l 344 481 l 432 481 l 432 503 z m 533 503 l 481 503 l 481 514 l 525 514 l 525 535 l 481 535 l 481 544 l 532 544 l 532 565 l 446 565 l 446 481 l 533 481 l 533 503 z m 156 396 l 142 425 l 119 425 l 146 376 l 165 376 l 192 425 l 171 425 l 156 396 z m 214 394 l 240 394 l 240 407 l 214 407 l 214 413 l 243 413 l 243 425 l 193 425 l 193 376 l 244 376 l 244 389 l 214 389 l 214 394 z m 310 407 b 282 425 310 418 300 425 l 253 425 l 253 376 l 274 376 l 274 389 l 279 389 l 289 376 l 311 376 l 299 392 b 310 407 306 394 310 400 z m 281 401 l 274 401 l 274 413 l 281 413 b 289 407 286 413 289 410 b 281 401 289 403 286 401 z m 336 411 b 343 414 336 413 338 414 b 361 410 349 414 354 413 l 367 422 b 343 426 361 425 351 426 b 315 410 325 426 315 419 b 349 390 315 392 349 396 b 342 388 349 389 347 388 b 321 392 335 388 326 389 l 314 379 b 340 375 321 376 331 375 b 369 392 360 375 369 382 b 336 411 369 410 336 404 z m 375 376 l 396 376 l 396 425 l 375 425 l 375 376 z m 439 426 b 404 400 418 426 404 415 b 439 375 404 386 418 375 b 474 400 458 375 474 386 b 439 426 474 415 458 426 z m 439 388 b 425 400 431 388 425 393 b 439 413 425 408 431 413 b 453 400 446 413 453 408 b 439 388 453 393 446 388 z m 521 403 l 497 425 l 481 425 l 481 376 l 501 376 l 501 399 l 524 376 l 542 376 l 542 425 l 521 425 l 521 403 z "},"":{"ha":663,"x_min":0,"x_max":0,"o":"m 536 672 l 129 672 b 18 582 68 672 18 632 l 18 358 b 129 268 18 308 68 268 l 536 268 b 647 358 597 268 647 308 l 647 582 b 536 672 647 632 597 672 z m 624 358 b 536 288 624 319 585 288 l 129 288 b 42 358 82 288 42 319 l 42 582 b 129 653 42 621 82 653 l 536 653 b 624 582 585 653 624 621 l 624 358 z m 171 508 l 215 508 l 215 529 l 171 529 l 171 544 l 221 544 l 221 565 l 136 565 l 136 481 l 171 481 l 171 508 z m 268 503 l 278 503 l 296 481 l 333 481 l 311 507 b 331 533 324 513 331 521 b 283 565 331 553 313 565 l 232 565 l 232 481 l 268 481 l 268 503 z m 268 543 l 281 543 b 296 533 290 543 296 540 b 281 524 296 528 290 524 l 268 524 l 268 543 z m 432 503 l 379 503 l 379 514 l 424 514 l 424 535 l 379 535 l 379 544 l 431 544 l 431 565 l 344 565 l 344 481 l 432 481 l 432 503 z m 533 503 l 481 503 l 481 514 l 525 514 l 525 535 l 481 535 l 481 544 l 532 544 l 532 565 l 446 565 l 446 481 l 533 481 l 533 503 z m 156 396 l 142 425 l 119 425 l 146 376 l 165 376 l 192 425 l 171 425 l 156 396 z m 214 394 l 240 394 l 240 407 l 214 407 l 214 413 l 243 413 l 243 425 l 193 425 l 193 376 l 244 376 l 244 389 l 214 389 l 214 394 z m 310 407 b 282 425 310 418 300 425 l 253 425 l 253 376 l 274 376 l 274 389 l 279 389 l 289 376 l 311 376 l 299 392 b 310 407 306 394 310 400 z m 281 401 l 274 401 l 274 413 l 281 413 b 289 407 286 413 289 410 b 281 401 289 403 286 401 z m 336 411 b 343 414 336 413 338 414 b 361 410 349 414 354 413 l 367 422 b 343 426 361 425 351 426 b 315 410 325 426 315 419 b 349 390 315 392 349 396 b 342 388 349 389 347 388 b 321 392 335 388 326 389 l 314 379 b 340 375 321 376 331 375 b 369 392 360 375 369 382 b 336 411 369 410 336 404 z m 375 376 l 396 376 l 396 425 l 375 425 l 375 376 z m 439 426 b 404 400 418 426 404 415 b 439 375 404 386 418 375 b 474 400 458 375 474 386 b 439 426 474 415 458 426 z m 439 388 b 425 400 431 388 425 393 b 439 413 425 408 431 413 b 453 400 446 413 453 408 b 439 388 453 393 446 388 z m 521 403 l 497 425 l 481 425 l 481 376 l 501 376 l 501 399 l 524 376 l 542 376 l 542 425 l 521 425 l 521 403 z "},"":{"ha":663,"x_min":0,"x_max":0,"o":"m 536 672 l 129 672 b 18 582 68 672 18 632 l 18 358 b 129 268 18 308 68 268 l 536 268 b 647 358 597 268 647 308 l 647 582 b 536 672 647 632 597 672 z m 624 358 b 536 288 624 319 585 288 l 129 288 b 42 358 82 288 42 319 l 42 582 b 129 653 42 621 82 653 l 536 653 b 624 582 585 653 624 621 l 624 358 z m 171 508 l 215 508 l 215 529 l 171 529 l 171 544 l 221 544 l 221 565 l 136 565 l 136 481 l 171 481 l 171 508 z m 268 503 l 278 503 l 296 481 l 333 481 l 311 507 b 331 533 324 513 331 521 b 283 565 331 553 313 565 l 232 565 l 232 481 l 268 481 l 268 503 z m 268 543 l 281 543 b 296 533 290 543 296 540 b 281 524 296 528 290 524 l 268 524 l 268 543 z m 432 503 l 379 503 l 379 514 l 424 514 l 424 535 l 379 535 l 379 544 l 431 544 l 431 565 l 344 565 l 344 481 l 432 481 l 432 503 z m 533 503 l 481 503 l 481 514 l 525 514 l 525 535 l 481 535 l 481 544 l 532 544 l 532 565 l 446 565 l 446 481 l 533 481 l 533 503 z m 156 396 l 142 425 l 119 425 l 146 376 l 165 376 l 192 425 l 171 425 l 156 396 z m 214 394 l 240 394 l 240 407 l 214 407 l 214 413 l 243 413 l 243 425 l 193 425 l 193 376 l 244 376 l 244 389 l 214 389 l 214 394 z m 310 407 b 282 425 310 418 300 425 l 253 425 l 253 376 l 274 376 l 274 389 l 279 389 l 289 376 l 311 376 l 299 392 b 310 407 306 394 310 400 z m 281 401 l 274 401 l 274 413 l 281 413 b 289 407 286 413 289 410 b 281 401 289 403 286 401 z m 336 411 b 343 414 336 413 338 414 b 361 410 349 414 354 413 l 367 422 b 343 426 361 425 351 426 b 315 410 325 426 315 419 b 349 390 315 392 349 396 b 342 388 349 389 347 388 b 321 392 335 388 326 389 l 314 379 b 340 375 321 376 331 375 b 369 392 360 375 369 382 b 336 411 369 410 336 404 z m 375 376 l 396 376 l 396 425 l 375 425 l 375 376 z m 439 426 b 404 400 418 426 404 415 b 439 375 404 386 418 375 b 474 400 458 375 474 386 b 439 426 474 415 458 426 z m 439 388 b 425 400 431 388 425 393 b 439 413 425 408 431 413 b 453 400 446 413 453 408 b 439 388 453 393 446 388 z m 521 403 l 497 425 l 481 425 l 481 376 l 501 376 l 501 399 l 524 376 l 542 376 l 542 425 l 521 425 l 521 403 z "},"":{"ha":663,"x_min":0,"x_max":0,"o":"m 536 672 l 129 672 b 18 582 68 672 18 632 l 18 358 b 129 268 18 308 68 268 l 536 268 b 647 358 597 268 647 308 l 647 582 b 536 672 647 632 597 672 z m 624 358 b 536 288 624 319 585 288 l 129 288 b 42 358 82 288 42 319 l 42 582 b 129 653 42 621 82 653 l 536 653 b 624 582 585 653 624 621 l 624 358 z m 171 508 l 215 508 l 215 529 l 171 529 l 171 544 l 221 544 l 221 565 l 136 565 l 136 481 l 171 481 l 171 508 z m 268 503 l 278 503 l 296 481 l 333 481 l 311 507 b 331 533 324 513 331 521 b 283 565 331 553 313 565 l 232 565 l 232 481 l 268 481 l 268 503 z m 268 543 l 281 543 b 296 533 290 543 296 540 b 281 524 296 528 290 524 l 268 524 l 268 543 z m 432 503 l 379 503 l 379 514 l 424 514 l 424 535 l 379 535 l 379 544 l 431 544 l 431 565 l 344 565 l 344 481 l 432 481 l 432 503 z m 533 503 l 481 503 l 481 514 l 525 514 l 525 535 l 481 535 l 481 544 l 532 544 l 532 565 l 446 565 l 446 481 l 533 481 l 533 503 z m 156 396 l 142 425 l 119 425 l 146 376 l 165 376 l 192 425 l 171 425 l 156 396 z m 214 394 l 240 394 l 240 407 l 214 407 l 214 413 l 243 413 l 243 425 l 193 425 l 193 376 l 244 376 l 244 389 l 214 389 l 214 394 z m 310 407 b 282 425 310 418 300 425 l 253 425 l 253 376 l 274 376 l 274 389 l 279 389 l 289 376 l 311 376 l 299 392 b 310 407 306 394 310 400 z m 281 401 l 274 401 l 274 413 l 281 413 b 289 407 286 413 289 410 b 281 401 289 403 286 401 z m 336 411 b 343 414 336 413 338 414 b 361 410 349 414 354 413 l 367 422 b 343 426 361 425 351 426 b 315 410 325 426 315 419 b 349 390 315 392 349 396 b 342 388 349 389 347 388 b 321 392 335 388 326 389 l 314 379 b 340 375 321 376 331 375 b 369 392 360 375 369 382 b 336 411 369 410 336 404 z m 375 376 l 396 376 l 396 425 l 375 425 l 375 376 z m 439 426 b 404 400 418 426 404 415 b 439 375 404 386 418 375 b 474 400 458 375 474 386 b 439 426 474 415 458 426 z m 439 388 b 425 400 431 388 425 393 b 439 413 425 408 431 413 b 453 400 446 413 453 408 b 439 388 453 393 446 388 z m 521 403 l 497 425 l 481 425 l 481 376 l 501 376 l 501 399 l 524 376 l 542 376 l 542 425 l 521 425 l 521 403 z "},"":{"ha":663,"x_min":0,"x_max":0,"o":"m 536 672 l 129 672 b 18 582 68 672 18 632 l 18 358 b 129 268 18 308 68 268 l 536 268 b 647 358 597 268 647 308 l 647 582 b 536 672 647 632 597 672 z m 624 358 b 536 288 624 319 585 288 l 129 288 b 42 358 82 288 42 319 l 42 582 b 129 653 42 621 82 653 l 536 653 b 624 582 585 653 624 621 l 624 358 z m 171 508 l 215 508 l 215 529 l 171 529 l 171 544 l 221 544 l 221 565 l 136 565 l 136 481 l 171 481 l 171 508 z m 268 503 l 278 503 l 296 481 l 333 481 l 311 507 b 331 533 324 513 331 521 b 283 565 331 553 313 565 l 232 565 l 232 481 l 268 481 l 268 503 z m 268 543 l 281 543 b 296 533 290 543 296 540 b 281 524 296 528 290 524 l 268 524 l 268 543 z m 432 503 l 379 503 l 379 514 l 424 514 l 424 535 l 379 535 l 379 544 l 431 544 l 431 565 l 344 565 l 344 481 l 432 481 l 432 503 z m 533 503 l 481 503 l 481 514 l 525 514 l 525 535 l 481 535 l 481 544 l 532 544 l 532 565 l 446 565 l 446 481 l 533 481 l 533 503 z m 156 396 l 142 425 l 119 425 l 146 376 l 165 376 l 192 425 l 171 425 l 156 396 z m 214 394 l 240 394 l 240 407 l 214 407 l 214 413 l 243 413 l 243 425 l 193 425 l 193 376 l 244 376 l 244 389 l 214 389 l 214 394 z m 310 407 b 282 425 310 418 300 425 l 253 425 l 253 376 l 274 376 l 274 389 l 279 389 l 289 376 l 311 376 l 299 392 b 310 407 306 394 310 400 z m 281 401 l 274 401 l 274 413 l 281 413 b 289 407 286 413 289 410 b 281 401 289 403 286 401 z m 336 411 b 343 414 336 413 338 414 b 361 410 349 414 354 413 l 367 422 b 343 426 361 425 351 426 b 315 410 325 426 315 419 b 349 390 315 392 349 396 b 342 388 349 389 347 388 b 321 392 335 388 326 389 l 314 379 b 340 375 321 376 331 375 b 369 392 360 375 369 382 b 336 411 369 410 336 404 z m 375 376 l 396 376 l 396 425 l 375 425 l 375 376 z m 439 426 b 404 400 418 426 404 415 b 439 375 404 386 418 375 b 474 400 458 375 474 386 b 439 426 474 415 458 426 z m 439 388 b 425 400 431 388 425 393 b 439 413 425 408 431 413 b 453 400 446 413 453 408 b 439 388 453 393 446 388 z m 521 403 l 497 425 l 481 425 l 481 376 l 501 376 l 501 399 l 524 376 l 542 376 l 542 425 l 521 425 l 521 403 z "},"":{"ha":663,"x_min":0,"x_max":0,"o":"m 536 672 l 129 672 b 18 582 68 672 18 632 l 18 358 b 129 268 18 308 68 268 l 536 268 b 647 358 597 268 647 308 l 647 582 b 536 672 647 632 597 672 z m 624 358 b 536 288 624 319 585 288 l 129 288 b 42 358 82 288 42 319 l 42 582 b 129 653 42 621 82 653 l 536 653 b 624 582 585 653 624 621 l 624 358 z m 171 508 l 215 508 l 215 529 l 171 529 l 171 544 l 221 544 l 221 565 l 136 565 l 136 481 l 171 481 l 171 508 z m 268 503 l 278 503 l 296 481 l 333 481 l 311 507 b 331 533 324 513 331 521 b 283 565 331 553 313 565 l 232 565 l 232 481 l 268 481 l 268 503 z m 268 543 l 281 543 b 296 533 290 543 296 540 b 281 524 296 528 290 524 l 268 524 l 268 543 z m 432 503 l 379 503 l 379 514 l 424 514 l 424 535 l 379 535 l 379 544 l 431 544 l 431 565 l 344 565 l 344 481 l 432 481 l 432 503 z m 533 503 l 481 503 l 481 514 l 525 514 l 525 535 l 481 535 l 481 544 l 532 544 l 532 565 l 446 565 l 446 481 l 533 481 l 533 503 z m 156 396 l 142 425 l 119 425 l 146 376 l 165 376 l 192 425 l 171 425 l 156 396 z m 214 394 l 240 394 l 240 407 l 214 407 l 214 413 l 243 413 l 243 425 l 193 425 l 193 376 l 244 376 l 244 389 l 214 389 l 214 394 z m 310 407 b 282 425 310 418 300 425 l 253 425 l 253 376 l 274 376 l 274 389 l 279 389 l 289 376 l 311 376 l 299 392 b 310 407 306 394 310 400 z m 281 401 l 274 401 l 274 413 l 281 413 b 289 407 286 413 289 410 b 281 401 289 403 286 401 z m 336 411 b 343 414 336 413 338 414 b 361 410 349 414 354 413 l 367 422 b 343 426 361 425 351 426 b 315 410 325 426 315 419 b 349 390 315 392 349 396 b 342 388 349 389 347 388 b 321 392 335 388 326 389 l 314 379 b 340 375 321 376 331 375 b 369 392 360 375 369 382 b 336 411 369 410 336 404 z m 375 376 l 396 376 l 396 425 l 375 425 l 375 376 z m 439 426 b 404 400 418 426 404 415 b 439 375 404 386 418 375 b 474 400 458 375 474 386 b 439 426 474 415 458 426 z m 439 388 b 425 400 431 388 425 393 b 439 413 425 408 431 413 b 453 400 446 413 453 408 b 439 388 453 393 446 388 z m 521 403 l 497 425 l 481 425 l 481 376 l 501 376 l 501 399 l 524 376 l 542 376 l 542 425 l 521 425 l 521 403 z "},"":{"ha":663,"x_min":0,"x_max":0,"o":"m 536 672 l 129 672 b 18 582 68 672 18 632 l 18 358 b 129 268 18 308 68 268 l 536 268 b 647 358 597 268 647 308 l 647 582 b 536 672 647 632 597 672 z m 624 358 b 536 288 624 319 585 288 l 129 288 b 42 358 82 288 42 319 l 42 582 b 129 653 42 621 82 653 l 536 653 b 624 582 585 653 624 621 l 624 358 z m 171 508 l 215 508 l 215 529 l 171 529 l 171 544 l 221 544 l 221 565 l 136 565 l 136 481 l 171 481 l 171 508 z m 268 503 l 278 503 l 296 481 l 333 481 l 311 507 b 331 533 324 513 331 521 b 283 565 331 553 313 565 l 232 565 l 232 481 l 268 481 l 268 503 z m 268 543 l 281 543 b 296 533 290 543 296 540 b 281 524 296 528 290 524 l 268 524 l 268 543 z m 432 503 l 379 503 l 379 514 l 424 514 l 424 535 l 379 535 l 379 544 l 431 544 l 431 565 l 344 565 l 344 481 l 432 481 l 432 503 z m 533 503 l 481 503 l 481 514 l 525 514 l 525 535 l 481 535 l 481 544 l 532 544 l 532 565 l 446 565 l 446 481 l 533 481 l 533 503 z m 156 396 l 142 425 l 119 425 l 146 376 l 165 376 l 192 425 l 171 425 l 156 396 z m 214 394 l 240 394 l 240 407 l 214 407 l 214 413 l 243 413 l 243 425 l 193 425 l 193 376 l 244 376 l 244 389 l 214 389 l 214 394 z m 310 407 b 282 425 310 418 300 425 l 253 425 l 253 376 l 274 376 l 274 389 l 279 389 l 289 376 l 311 376 l 299 392 b 310 407 306 394 310 400 z m 281 401 l 274 401 l 274 413 l 281 413 b 289 407 286 413 289 410 b 281 401 289 403 286 401 z m 336 411 b 343 414 336 413 338 414 b 361 410 349 414 354 413 l 367 422 b 343 426 361 425 351 426 b 315 410 325 426 315 419 b 349 390 315 392 349 396 b 342 388 349 389 347 388 b 321 392 335 388 326 389 l 314 379 b 340 375 321 376 331 375 b 369 392 360 375 369 382 b 336 411 369 410 336 404 z m 375 376 l 396 376 l 396 425 l 375 425 l 375 376 z m 439 426 b 404 400 418 426 404 415 b 439 375 404 386 418 375 b 474 400 458 375 474 386 b 439 426 474 415 458 426 z m 439 388 b 425 400 431 388 425 393 b 439 413 425 408 431 413 b 453 400 446 413 453 408 b 439 388 453 393 446 388 z m 521 403 l 497 425 l 481 425 l 481 376 l 501 376 l 501 399 l 524 376 l 542 376 l 542 425 l 521 425 l 521 403 z "},"":{"ha":0,"x_min":0,"x_max":0,"o":""},"":{"ha":663,"x_min":0,"x_max":0,"o":"m 536 672 l 129 672 b 18 582 68 672 18 632 l 18 358 b 129 268 18 308 68 268 l 536 268 b 647 358 597 268 647 308 l 647 582 b 536 672 647 632 597 672 z m 624 358 b 536 288 624 319 585 288 l 129 288 b 42 358 82 288 42 319 l 42 582 b 129 653 42 621 82 653 l 536 653 b 624 582 585 653 624 621 l 624 358 z m 171 508 l 215 508 l 215 529 l 171 529 l 171 544 l 221 544 l 221 565 l 136 565 l 136 481 l 171 481 l 171 508 z m 268 503 l 278 503 l 296 481 l 333 481 l 311 507 b 331 533 324 513 331 521 b 283 565 331 553 313 565 l 232 565 l 232 481 l 268 481 l 268 503 z m 268 543 l 281 543 b 296 533 290 543 296 540 b 281 524 296 528 290 524 l 268 524 l 268 543 z m 432 503 l 379 503 l 379 514 l 424 514 l 424 535 l 379 535 l 379 544 l 431 544 l 431 565 l 344 565 l 344 481 l 432 481 l 432 503 z m 533 503 l 481 503 l 481 514 l 525 514 l 525 535 l 481 535 l 481 544 l 532 544 l 532 565 l 446 565 l 446 481 l 533 481 l 533 503 z m 156 396 l 142 425 l 119 425 l 146 376 l 165 376 l 192 425 l 171 425 l 156 396 z m 214 394 l 240 394 l 240 407 l 214 407 l 214 413 l 243 413 l 243 425 l 193 425 l 193 376 l 244 376 l 244 389 l 214 389 l 214 394 z m 310 407 b 282 425 310 418 300 425 l 253 425 l 253 376 l 274 376 l 274 389 l 279 389 l 289 376 l 311 376 l 299 392 b 310 407 306 394 310 400 z m 281 401 l 274 401 l 274 413 l 281 413 b 289 407 286 413 289 410 b 281 401 289 403 286 401 z m 336 411 b 343 414 336 413 338 414 b 361 410 349 414 354 413 l 367 422 b 343 426 361 425 351 426 b 315 410 325 426 315 419 b 349 390 315 392 349 396 b 342 388 349 389 347 388 b 321 392 335 388 326 389 l 314 379 b 340 375 321 376 331 375 b 369 392 360 375 369 382 b 336 411 369 410 336 404 z m 375 376 l 396 376 l 396 425 l 375 425 l 375 376 z m 439 426 b 404 400 418 426 404 415 b 439 375 404 386 418 375 b 474 400 458 375 474 386 b 439 426 474 415 458 426 z m 439 388 b 425 400 431 388 425 393 b 439 413 425 408 431 413 b 453 400 446 413 453 408 b 439 388 453 393 446 388 z m 521 403 l 497 425 l 481 425 l 481 376 l 501 376 l 501 399 l 524 376 l 542 376 l 542 425 l 521 425 l 521 403 z "},"":{"ha":663,"x_min":0,"x_max":0,"o":"m 536 672 l 129 672 b 18 582 68 672 18 632 l 18 358 b 129 268 18 308 68 268 l 536 268 b 647 358 597 268 647 308 l 647 582 b 536 672 647 632 597 672 z m 624 358 b 536 288 624 319 585 288 l 129 288 b 42 358 82 288 42 319 l 42 582 b 129 653 42 621 82 653 l 536 653 b 624 582 585 653 624 621 l 624 358 z m 171 508 l 215 508 l 215 529 l 171 529 l 171 544 l 221 544 l 221 565 l 136 565 l 136 481 l 171 481 l 171 508 z m 268 503 l 278 503 l 296 481 l 333 481 l 311 507 b 331 533 324 513 331 521 b 283 565 331 553 313 565 l 232 565 l 232 481 l 268 481 l 268 503 z m 268 543 l 281 543 b 296 533 290 543 296 540 b 281 524 296 528 290 524 l 268 524 l 268 543 z m 432 503 l 379 503 l 379 514 l 424 514 l 424 535 l 379 535 l 379 544 l 431 544 l 431 565 l 344 565 l 344 481 l 432 481 l 432 503 z m 533 503 l 481 503 l 481 514 l 525 514 l 525 535 l 481 535 l 481 544 l 532 544 l 532 565 l 446 565 l 446 481 l 533 481 l 533 503 z m 156 396 l 142 425 l 119 425 l 146 376 l 165 376 l 192 425 l 171 425 l 156 396 z m 214 394 l 240 394 l 240 407 l 214 407 l 214 413 l 243 413 l 243 425 l 193 425 l 193 376 l 244 376 l 244 389 l 214 389 l 214 394 z m 310 407 b 282 425 310 418 300 425 l 253 425 l 253 376 l 274 376 l 274 389 l 279 389 l 289 376 l 311 376 l 299 392 b 310 407 306 394 310 400 z m 281 401 l 274 401 l 274 413 l 281 413 b 289 407 286 413 289 410 b 281 401 289 403 286 401 z m 336 411 b 343 414 336 413 338 414 b 361 410 349 414 354 413 l 367 422 b 343 426 361 425 351 426 b 315 410 325 426 315 419 b 349 390 315 392 349 396 b 342 388 349 389 347 388 b 321 392 335 388 326 389 l 314 379 b 340 375 321 376 331 375 b 369 392 360 375 369 382 b 336 411 369 410 336 404 z m 375 376 l 396 376 l 396 425 l 375 425 l 375 376 z m 439 426 b 404 400 418 426 404 415 b 439 375 404 386 418 375 b 474 400 458 375 474 386 b 439 426 474 415 458 426 z m 439 388 b 425 400 431 388 425 393 b 439 413 425 408 431 413 b 453 400 446 413 453 408 b 439 388 453 393 446 388 z m 521 403 l 497 425 l 481 425 l 481 376 l 501 376 l 501 399 l 524 376 l 542 376 l 542 425 l 521 425 l 521 403 z "},"":{"ha":663,"x_min":0,"x_max":0,"o":"m 536 672 l 129 672 b 18 582 68 672 18 632 l 18 358 b 129 268 18 308 68 268 l 536 268 b 647 358 597 268 647 308 l 647 582 b 536 672 647 632 597 672 z m 624 358 b 536 288 624 319 585 288 l 129 288 b 42 358 82 288 42 319 l 42 582 b 129 653 42 621 82 653 l 536 653 b 624 582 585 653 624 621 l 624 358 z m 171 508 l 215 508 l 215 529 l 171 529 l 171 544 l 221 544 l 221 565 l 136 565 l 136 481 l 171 481 l 171 508 z m 268 503 l 278 503 l 296 481 l 333 481 l 311 507 b 331 533 324 513 331 521 b 283 565 331 553 313 565 l 232 565 l 232 481 l 268 481 l 268 503 z m 268 543 l 281 543 b 296 533 290 543 296 540 b 281 524 296 528 290 524 l 268 524 l 268 543 z m 432 503 l 379 503 l 379 514 l 424 514 l 424 535 l 379 535 l 379 544 l 431 544 l 431 565 l 344 565 l 344 481 l 432 481 l 432 503 z m 533 503 l 481 503 l 481 514 l 525 514 l 525 535 l 481 535 l 481 544 l 532 544 l 532 565 l 446 565 l 446 481 l 533 481 l 533 503 z m 156 396 l 142 425 l 119 425 l 146 376 l 165 376 l 192 425 l 171 425 l 156 396 z m 214 394 l 240 394 l 240 407 l 214 407 l 214 413 l 243 413 l 243 425 l 193 425 l 193 376 l 244 376 l 244 389 l 214 389 l 214 394 z m 310 407 b 282 425 310 418 300 425 l 253 425 l 253 376 l 274 376 l 274 389 l 279 389 l 289 376 l 311 376 l 299 392 b 310 407 306 394 310 400 z m 281 401 l 274 401 l 274 413 l 281 413 b 289 407 286 413 289 410 b 281 401 289 403 286 401 z m 336 411 b 343 414 336 413 338 414 b 361 410 349 414 354 413 l 367 422 b 343 426 361 425 351 426 b 315 410 325 426 315 419 b 349 390 315 392 349 396 b 342 388 349 389 347 388 b 321 392 335 388 326 389 l 314 379 b 340 375 321 376 331 375 b 369 392 360 375 369 382 b 336 411 369 410 336 404 z m 375 376 l 396 376 l 396 425 l 375 425 l 375 376 z m 439 426 b 404 400 418 426 404 415 b 439 375 404 386 418 375 b 474 400 458 375 474 386 b 439 426 474 415 458 426 z m 439 388 b 425 400 431 388 425 393 b 439 413 425 408 431 413 b 453 400 446 413 453 408 b 439 388 453 393 446 388 z m 521 403 l 497 425 l 481 425 l 481 376 l 501 376 l 501 399 l 524 376 l 542 376 l 542 425 l 521 425 l 521 403 z "},"":{"ha":663,"x_min":0,"x_max":0,"o":"m 536 672 l 129 672 b 18 582 68 672 18 632 l 18 358 b 129 268 18 308 68 268 l 536 268 b 647 358 597 268 647 308 l 647 582 b 536 672 647 632 597 672 z m 624 358 b 536 288 624 319 585 288 l 129 288 b 42 358 82 288 42 319 l 42 582 b 129 653 42 621 82 653 l 536 653 b 624 582 585 653 624 621 l 624 358 z m 171 508 l 215 508 l 215 529 l 171 529 l 171 544 l 221 544 l 221 565 l 136 565 l 136 481 l 171 481 l 171 508 z m 268 503 l 278 503 l 296 481 l 333 481 l 311 507 b 331 533 324 513 331 521 b 283 565 331 553 313 565 l 232 565 l 232 481 l 268 481 l 268 503 z m 268 543 l 281 543 b 296 533 290 543 296 540 b 281 524 296 528 290 524 l 268 524 l 268 543 z m 432 503 l 379 503 l 379 514 l 424 514 l 424 535 l 379 535 l 379 544 l 431 544 l 431 565 l 344 565 l 344 481 l 432 481 l 432 503 z m 533 503 l 481 503 l 481 514 l 525 514 l 525 535 l 481 535 l 481 544 l 532 544 l 532 565 l 446 565 l 446 481 l 533 481 l 533 503 z m 156 396 l 142 425 l 119 425 l 146 376 l 165 376 l 192 425 l 171 425 l 156 396 z m 214 394 l 240 394 l 240 407 l 214 407 l 214 413 l 243 413 l 243 425 l 193 425 l 193 376 l 244 376 l 244 389 l 214 389 l 214 394 z m 310 407 b 282 425 310 418 300 425 l 253 425 l 253 376 l 274 376 l 274 389 l 279 389 l 289 376 l 311 376 l 299 392 b 310 407 306 394 310 400 z m 281 401 l 274 401 l 274 413 l 281 413 b 289 407 286 413 289 410 b 281 401 289 403 286 401 z m 336 411 b 343 414 336 413 338 414 b 361 410 349 414 354 413 l 367 422 b 343 426 361 425 351 426 b 315 410 325 426 315 419 b 349 390 315 392 349 396 b 342 388 349 389 347 388 b 321 392 335 388 326 389 l 314 379 b 340 375 321 376 331 375 b 369 392 360 375 369 382 b 336 411 369 410 336 404 z m 375 376 l 396 376 l 396 425 l 375 425 l 375 376 z m 439 426 b 404 400 418 426 404 415 b 439 375 404 386 418 375 b 474 400 458 375 474 386 b 439 426 474 415 458 426 z m 439 388 b 425 400 431 388 425 393 b 439 413 425 408 431 413 b 453 400 446 413 453 408 b 439 388 453 393 446 388 z m 521 403 l 497 425 l 481 425 l 481 376 l 501 376 l 501 399 l 524 376 l 542 376 l 542 425 l 521 425 l 521 403 z "},"":{"ha":663,"x_min":0,"x_max":0,"o":"m 536 672 l 129 672 b 18 582 68 672 18 632 l 18 358 b 129 268 18 308 68 268 l 536 268 b 647 358 597 268 647 308 l 647 582 b 536 672 647 632 597 672 z m 624 358 b 536 288 624 319 585 288 l 129 288 b 42 358 82 288 42 319 l 42 582 b 129 653 42 621 82 653 l 536 653 b 624 582 585 653 624 621 l 624 358 z m 171 508 l 215 508 l 215 529 l 171 529 l 171 544 l 221 544 l 221 565 l 136 565 l 136 481 l 171 481 l 171 508 z m 268 503 l 278 503 l 296 481 l 333 481 l 311 507 b 331 533 324 513 331 521 b 283 565 331 553 313 565 l 232 565 l 232 481 l 268 481 l 268 503 z m 268 543 l 281 543 b 296 533 290 543 296 540 b 281 524 296 528 290 524 l 268 524 l 268 543 z m 432 503 l 379 503 l 379 514 l 424 514 l 424 535 l 379 535 l 379 544 l 431 544 l 431 565 l 344 565 l 344 481 l 432 481 l 432 503 z m 533 503 l 481 503 l 481 514 l 525 514 l 525 535 l 481 535 l 481 544 l 532 544 l 532 565 l 446 565 l 446 481 l 533 481 l 533 503 z m 156 396 l 142 425 l 119 425 l 146 376 l 165 376 l 192 425 l 171 425 l 156 396 z m 214 394 l 240 394 l 240 407 l 214 407 l 214 413 l 243 413 l 243 425 l 193 425 l 193 376 l 244 376 l 244 389 l 214 389 l 214 394 z m 310 407 b 282 425 310 418 300 425 l 253 425 l 253 376 l 274 376 l 274 389 l 279 389 l 289 376 l 311 376 l 299 392 b 310 407 306 394 310 400 z m 281 401 l 274 401 l 274 413 l 281 413 b 289 407 286 413 289 410 b 281 401 289 403 286 401 z m 336 411 b 343 414 336 413 338 414 b 361 410 349 414 354 413 l 367 422 b 343 426 361 425 351 426 b 315 410 325 426 315 419 b 349 390 315 392 349 396 b 342 388 349 389 347 388 b 321 392 335 388 326 389 l 314 379 b 340 375 321 376 331 375 b 369 392 360 375 369 382 b 336 411 369 410 336 404 z m 375 376 l 396 376 l 396 425 l 375 425 l 375 376 z m 439 426 b 404 400 418 426 404 415 b 439 375 404 386 418 375 b 474 400 458 375 474 386 b 439 426 474 415 458 426 z m 439 388 b 425 400 431 388 425 393 b 439 413 425 408 431 413 b 453 400 446 413 453 408 b 439 388 453 393 446 388 z m 521 403 l 497 425 l 481 425 l 481 376 l 501 376 l 501 399 l 524 376 l 542 376 l 542 425 l 521 425 l 521 403 z "},"":{"ha":663,"x_min":0,"x_max":0,"o":"m 536 672 l 129 672 b 18 582 68 672 18 632 l 18 358 b 129 268 18 308 68 268 l 536 268 b 647 358 597 268 647 308 l 647 582 b 536 672 647 632 597 672 z m 624 358 b 536 288 624 319 585 288 l 129 288 b 42 358 82 288 42 319 l 42 582 b 129 653 42 621 82 653 l 536 653 b 624 582 585 653 624 621 l 624 358 z m 171 508 l 215 508 l 215 529 l 171 529 l 171 544 l 221 544 l 221 565 l 136 565 l 136 481 l 171 481 l 171 508 z m 268 503 l 278 503 l 296 481 l 333 481 l 311 507 b 331 533 324 513 331 521 b 283 565 331 553 313 565 l 232 565 l 232 481 l 268 481 l 268 503 z m 268 543 l 281 543 b 296 533 290 543 296 540 b 281 524 296 528 290 524 l 268 524 l 268 543 z m 432 503 l 379 503 l 379 514 l 424 514 l 424 535 l 379 535 l 379 544 l 431 544 l 431 565 l 344 565 l 344 481 l 432 481 l 432 503 z m 533 503 l 481 503 l 481 514 l 525 514 l 525 535 l 481 535 l 481 544 l 532 544 l 532 565 l 446 565 l 446 481 l 533 481 l 533 503 z m 156 396 l 142 425 l 119 425 l 146 376 l 165 376 l 192 425 l 171 425 l 156 396 z m 214 394 l 240 394 l 240 407 l 214 407 l 214 413 l 243 413 l 243 425 l 193 425 l 193 376 l 244 376 l 244 389 l 214 389 l 214 394 z m 310 407 b 282 425 310 418 300 425 l 253 425 l 253 376 l 274 376 l 274 389 l 279 389 l 289 376 l 311 376 l 299 392 b 310 407 306 394 310 400 z m 281 401 l 274 401 l 274 413 l 281 413 b 289 407 286 413 289 410 b 281 401 289 403 286 401 z m 336 411 b 343 414 336 413 338 414 b 361 410 349 414 354 413 l 367 422 b 343 426 361 425 351 426 b 315 410 325 426 315 419 b 349 390 315 392 349 396 b 342 388 349 389 347 388 b 321 392 335 388 326 389 l 314 379 b 340 375 321 376 331 375 b 369 392 360 375 369 382 b 336 411 369 410 336 404 z m 375 376 l 396 376 l 396 425 l 375 425 l 375 376 z m 439 426 b 404 400 418 426 404 415 b 439 375 404 386 418 375 b 474 400 458 375 474 386 b 439 426 474 415 458 426 z m 439 388 b 425 400 431 388 425 393 b 439 413 425 408 431 413 b 453 400 446 413 453 408 b 439 388 453 393 446 388 z m 521 403 l 497 425 l 481 425 l 481 376 l 501 376 l 501 399 l 524 376 l 542 376 l 542 425 l 521 425 l 521 403 z "},"":{"ha":663,"x_min":0,"x_max":0,"o":"m 536 672 l 129 672 b 18 582 68 672 18 632 l 18 358 b 129 268 18 308 68 268 l 536 268 b 647 358 597 268 647 308 l 647 582 b 536 672 647 632 597 672 z m 624 358 b 536 288 624 319 585 288 l 129 288 b 42 358 82 288 42 319 l 42 582 b 129 653 42 621 82 653 l 536 653 b 624 582 585 653 624 621 l 624 358 z m 171 508 l 215 508 l 215 529 l 171 529 l 171 544 l 221 544 l 221 565 l 136 565 l 136 481 l 171 481 l 171 508 z m 268 503 l 278 503 l 296 481 l 333 481 l 311 507 b 331 533 324 513 331 521 b 283 565 331 553 313 565 l 232 565 l 232 481 l 268 481 l 268 503 z m 268 543 l 281 543 b 296 533 290 543 296 540 b 281 524 296 528 290 524 l 268 524 l 268 543 z m 432 503 l 379 503 l 379 514 l 424 514 l 424 535 l 379 535 l 379 544 l 431 544 l 431 565 l 344 565 l 344 481 l 432 481 l 432 503 z m 533 503 l 481 503 l 481 514 l 525 514 l 525 535 l 481 535 l 481 544 l 532 544 l 532 565 l 446 565 l 446 481 l 533 481 l 533 503 z m 156 396 l 142 425 l 119 425 l 146 376 l 165 376 l 192 425 l 171 425 l 156 396 z m 214 394 l 240 394 l 240 407 l 214 407 l 214 413 l 243 413 l 243 425 l 193 425 l 193 376 l 244 376 l 244 389 l 214 389 l 214 394 z m 310 407 b 282 425 310 418 300 425 l 253 425 l 253 376 l 274 376 l 274 389 l 279 389 l 289 376 l 311 376 l 299 392 b 310 407 306 394 310 400 z m 281 401 l 274 401 l 274 413 l 281 413 b 289 407 286 413 289 410 b 281 401 289 403 286 401 z m 336 411 b 343 414 336 413 338 414 b 361 410 349 414 354 413 l 367 422 b 343 426 361 425 351 426 b 315 410 325 426 315 419 b 349 390 315 392 349 396 b 342 388 349 389 347 388 b 321 392 335 388 326 389 l 314 379 b 340 375 321 376 331 375 b 369 392 360 375 369 382 b 336 411 369 410 336 404 z m 375 376 l 396 376 l 396 425 l 375 425 l 375 376 z m 439 426 b 404 400 418 426 404 415 b 439 375 404 386 418 375 b 474 400 458 375 474 386 b 439 426 474 415 458 426 z m 439 388 b 425 400 431 388 425 393 b 439 413 425 408 431 413 b 453 400 446 413 453 408 b 439 388 453 393 446 388 z m 521 403 l 497 425 l 481 425 l 481 376 l 501 376 l 501 399 l 524 376 l 542 376 l 542 425 l 521 425 l 521 403 z "},"":{"ha":663,"x_min":0,"x_max":0,"o":"m 536 672 l 129 672 b 18 582 68 672 18 632 l 18 358 b 129 268 18 308 68 268 l 536 268 b 647 358 597 268 647 308 l 647 582 b 536 672 647 632 597 672 z m 624 358 b 536 288 624 319 585 288 l 129 288 b 42 358 82 288 42 319 l 42 582 b 129 653 42 621 82 653 l 536 653 b 624 582 585 653 624 621 l 624 358 z m 171 508 l 215 508 l 215 529 l 171 529 l 171 544 l 221 544 l 221 565 l 136 565 l 136 481 l 171 481 l 171 508 z m 268 503 l 278 503 l 296 481 l 333 481 l 311 507 b 331 533 324 513 331 521 b 283 565 331 553 313 565 l 232 565 l 232 481 l 268 481 l 268 503 z m 268 543 l 281 543 b 296 533 290 543 296 540 b 281 524 296 528 290 524 l 268 524 l 268 543 z m 432 503 l 379 503 l 379 514 l 424 514 l 424 535 l 379 535 l 379 544 l 431 544 l 431 565 l 344 565 l 344 481 l 432 481 l 432 503 z m 533 503 l 481 503 l 481 514 l 525 514 l 525 535 l 481 535 l 481 544 l 532 544 l 532 565 l 446 565 l 446 481 l 533 481 l 533 503 z m 156 396 l 142 425 l 119 425 l 146 376 l 165 376 l 192 425 l 171 425 l 156 396 z m 214 394 l 240 394 l 240 407 l 214 407 l 214 413 l 243 413 l 243 425 l 193 425 l 193 376 l 244 376 l 244 389 l 214 389 l 214 394 z m 310 407 b 282 425 310 418 300 425 l 253 425 l 253 376 l 274 376 l 274 389 l 279 389 l 289 376 l 311 376 l 299 392 b 310 407 306 394 310 400 z m 281 401 l 274 401 l 274 413 l 281 413 b 289 407 286 413 289 410 b 281 401 289 403 286 401 z m 336 411 b 343 414 336 413 338 414 b 361 410 349 414 354 413 l 367 422 b 343 426 361 425 351 426 b 315 410 325 426 315 419 b 349 390 315 392 349 396 b 342 388 349 389 347 388 b 321 392 335 388 326 389 l 314 379 b 340 375 321 376 331 375 b 369 392 360 375 369 382 b 336 411 369 410 336 404 z m 375 376 l 396 376 l 396 425 l 375 425 l 375 376 z m 439 426 b 404 400 418 426 404 415 b 439 375 404 386 418 375 b 474 400 458 375 474 386 b 439 426 474 415 458 426 z m 439 388 b 425 400 431 388 425 393 b 439 413 425 408 431 413 b 453 400 446 413 453 408 b 439 388 453 393 446 388 z m 521 403 l 497 425 l 481 425 l 481 376 l 501 376 l 501 399 l 524 376 l 542 376 l 542 425 l 521 425 l 521 403 z "},"":{"ha":663,"x_min":0,"x_max":0,"o":"m 536 672 l 129 672 b 18 582 68 672 18 632 l 18 358 b 129 268 18 308 68 268 l 536 268 b 647 358 597 268 647 308 l 647 582 b 536 672 647 632 597 672 z m 624 358 b 536 288 624 319 585 288 l 129 288 b 42 358 82 288 42 319 l 42 582 b 129 653 42 621 82 653 l 536 653 b 624 582 585 653 624 621 l 624 358 z m 171 508 l 215 508 l 215 529 l 171 529 l 171 544 l 221 544 l 221 565 l 136 565 l 136 481 l 171 481 l 171 508 z m 268 503 l 278 503 l 296 481 l 333 481 l 311 507 b 331 533 324 513 331 521 b 283 565 331 553 313 565 l 232 565 l 232 481 l 268 481 l 268 503 z m 268 543 l 281 543 b 296 533 290 543 296 540 b 281 524 296 528 290 524 l 268 524 l 268 543 z m 432 503 l 379 503 l 379 514 l 424 514 l 424 535 l 379 535 l 379 544 l 431 544 l 431 565 l 344 565 l 344 481 l 432 481 l 432 503 z m 533 503 l 481 503 l 481 514 l 525 514 l 525 535 l 481 535 l 481 544 l 532 544 l 532 565 l 446 565 l 446 481 l 533 481 l 533 503 z m 156 396 l 142 425 l 119 425 l 146 376 l 165 376 l 192 425 l 171 425 l 156 396 z m 214 394 l 240 394 l 240 407 l 214 407 l 214 413 l 243 413 l 243 425 l 193 425 l 193 376 l 244 376 l 244 389 l 214 389 l 214 394 z m 310 407 b 282 425 310 418 300 425 l 253 425 l 253 376 l 274 376 l 274 389 l 279 389 l 289 376 l 311 376 l 299 392 b 310 407 306 394 310 400 z m 281 401 l 274 401 l 274 413 l 281 413 b 289 407 286 413 289 410 b 281 401 289 403 286 401 z m 336 411 b 343 414 336 413 338 414 b 361 410 349 414 354 413 l 367 422 b 343 426 361 425 351 426 b 315 410 325 426 315 419 b 349 390 315 392 349 396 b 342 388 349 389 347 388 b 321 392 335 388 326 389 l 314 379 b 340 375 321 376 331 375 b 369 392 360 375 369 382 b 336 411 369 410 336 404 z m 375 376 l 396 376 l 396 425 l 375 425 l 375 376 z m 439 426 b 404 400 418 426 404 415 b 439 375 404 386 418 375 b 474 400 458 375 474 386 b 439 426 474 415 458 426 z m 439 388 b 425 400 431 388 425 393 b 439 413 425 408 431 413 b 453 400 446 413 453 408 b 439 388 453 393 446 388 z m 521 403 l 497 425 l 481 425 l 481 376 l 501 376 l 501 399 l 524 376 l 542 376 l 542 425 l 521 425 l 521 403 z "},"":{"ha":663,"x_min":0,"x_max":0,"o":"m 536 672 l 129 672 b 18 582 68 672 18 632 l 18 358 b 129 268 18 308 68 268 l 536 268 b 647 358 597 268 647 308 l 647 582 b 536 672 647 632 597 672 z m 624 358 b 536 288 624 319 585 288 l 129 288 b 42 358 82 288 42 319 l 42 582 b 129 653 42 621 82 653 l 536 653 b 624 582 585 653 624 621 l 624 358 z m 171 508 l 215 508 l 215 529 l 171 529 l 171 544 l 221 544 l 221 565 l 136 565 l 136 481 l 171 481 l 171 508 z m 268 503 l 278 503 l 296 481 l 333 481 l 311 507 b 331 533 324 513 331 521 b 283 565 331 553 313 565 l 232 565 l 232 481 l 268 481 l 268 503 z m 268 543 l 281 543 b 296 533 290 543 296 540 b 281 524 296 528 290 524 l 268 524 l 268 543 z m 432 503 l 379 503 l 379 514 l 424 514 l 424 535 l 379 535 l 379 544 l 431 544 l 431 565 l 344 565 l 344 481 l 432 481 l 432 503 z m 533 503 l 481 503 l 481 514 l 525 514 l 525 535 l 481 535 l 481 544 l 532 544 l 532 565 l 446 565 l 446 481 l 533 481 l 533 503 z m 156 396 l 142 425 l 119 425 l 146 376 l 165 376 l 192 425 l 171 425 l 156 396 z m 214 394 l 240 394 l 240 407 l 214 407 l 214 413 l 243 413 l 243 425 l 193 425 l 193 376 l 244 376 l 244 389 l 214 389 l 214 394 z m 310 407 b 282 425 310 418 300 425 l 253 425 l 253 376 l 274 376 l 274 389 l 279 389 l 289 376 l 311 376 l 299 392 b 310 407 306 394 310 400 z m 281 401 l 274 401 l 274 413 l 281 413 b 289 407 286 413 289 410 b 281 401 289 403 286 401 z m 336 411 b 343 414 336 413 338 414 b 361 410 349 414 354 413 l 367 422 b 343 426 361 425 351 426 b 315 410 325 426 315 419 b 349 390 315 392 349 396 b 342 388 349 389 347 388 b 321 392 335 388 326 389 l 314 379 b 340 375 321 376 331 375 b 369 392 360 375 369 382 b 336 411 369 410 336 404 z m 375 376 l 396 376 l 396 425 l 375 425 l 375 376 z m 439 426 b 404 400 418 426 404 415 b 439 375 404 386 418 375 b 474 400 458 375 474 386 b 439 426 474 415 458 426 z m 439 388 b 425 400 431 388 425 393 b 439 413 425 408 431 413 b 453 400 446 413 453 408 b 439 388 453 393 446 388 z m 521 403 l 497 425 l 481 425 l 481 376 l 501 376 l 501 399 l 524 376 l 542 376 l 542 425 l 521 425 l 521 403 z "},"":{"ha":663,"x_min":0,"x_max":0,"o":"m 536 672 l 129 672 b 18 582 68 672 18 632 l 18 358 b 129 268 18 308 68 268 l 536 268 b 647 358 597 268 647 308 l 647 582 b 536 672 647 632 597 672 z m 624 358 b 536 288 624 319 585 288 l 129 288 b 42 358 82 288 42 319 l 42 582 b 129 653 42 621 82 653 l 536 653 b 624 582 585 653 624 621 l 624 358 z m 171 508 l 215 508 l 215 529 l 171 529 l 171 544 l 221 544 l 221 565 l 136 565 l 136 481 l 171 481 l 171 508 z m 268 503 l 278 503 l 296 481 l 333 481 l 311 507 b 331 533 324 513 331 521 b 283 565 331 553 313 565 l 232 565 l 232 481 l 268 481 l 268 503 z m 268 543 l 281 543 b 296 533 290 543 296 540 b 281 524 296 528 290 524 l 268 524 l 268 543 z m 432 503 l 379 503 l 379 514 l 424 514 l 424 535 l 379 535 l 379 544 l 431 544 l 431 565 l 344 565 l 344 481 l 432 481 l 432 503 z m 533 503 l 481 503 l 481 514 l 525 514 l 525 535 l 481 535 l 481 544 l 532 544 l 532 565 l 446 565 l 446 481 l 533 481 l 533 503 z m 156 396 l 142 425 l 119 425 l 146 376 l 165 376 l 192 425 l 171 425 l 156 396 z m 214 394 l 240 394 l 240 407 l 214 407 l 214 413 l 243 413 l 243 425 l 193 425 l 193 376 l 244 376 l 244 389 l 214 389 l 214 394 z m 310 407 b 282 425 310 418 300 425 l 253 425 l 253 376 l 274 376 l 274 389 l 279 389 l 289 376 l 311 376 l 299 392 b 310 407 306 394 310 400 z m 281 401 l 274 401 l 274 413 l 281 413 b 289 407 286 413 289 410 b 281 401 289 403 286 401 z m 336 411 b 343 414 336 413 338 414 b 361 410 349 414 354 413 l 367 422 b 343 426 361 425 351 426 b 315 410 325 426 315 419 b 349 390 315 392 349 396 b 342 388 349 389 347 388 b 321 392 335 388 326 389 l 314 379 b 340 375 321 376 331 375 b 369 392 360 375 369 382 b 336 411 369 410 336 404 z m 375 376 l 396 376 l 396 425 l 375 425 l 375 376 z m 439 426 b 404 400 418 426 404 415 b 439 375 404 386 418 375 b 474 400 458 375 474 386 b 439 426 474 415 458 426 z m 439 388 b 425 400 431 388 425 393 b 439 413 425 408 431 413 b 453 400 446 413 453 408 b 439 388 453 393 446 388 z m 521 403 l 497 425 l 481 425 l 481 376 l 501 376 l 501 399 l 524 376 l 542 376 l 542 425 l 521 425 l 521 403 z "},"":{"ha":663,"x_min":0,"x_max":0,"o":"m 536 672 l 129 672 b 18 582 68 672 18 632 l 18 358 b 129 268 18 308 68 268 l 536 268 b 647 358 597 268 647 308 l 647 582 b 536 672 647 632 597 672 z m 624 358 b 536 288 624 319 585 288 l 129 288 b 42 358 82 288 42 319 l 42 582 b 129 653 42 621 82 653 l 536 653 b 624 582 585 653 624 621 l 624 358 z m 171 508 l 215 508 l 215 529 l 171 529 l 171 544 l 221 544 l 221 565 l 136 565 l 136 481 l 171 481 l 171 508 z m 268 503 l 278 503 l 296 481 l 333 481 l 311 507 b 331 533 324 513 331 521 b 283 565 331 553 313 565 l 232 565 l 232 481 l 268 481 l 268 503 z m 268 543 l 281 543 b 296 533 290 543 296 540 b 281 524 296 528 290 524 l 268 524 l 268 543 z m 432 503 l 379 503 l 379 514 l 424 514 l 424 535 l 379 535 l 379 544 l 431 544 l 431 565 l 344 565 l 344 481 l 432 481 l 432 503 z m 533 503 l 481 503 l 481 514 l 525 514 l 525 535 l 481 535 l 481 544 l 532 544 l 532 565 l 446 565 l 446 481 l 533 481 l 533 503 z m 156 396 l 142 425 l 119 425 l 146 376 l 165 376 l 192 425 l 171 425 l 156 396 z m 214 394 l 240 394 l 240 407 l 214 407 l 214 413 l 243 413 l 243 425 l 193 425 l 193 376 l 244 376 l 244 389 l 214 389 l 214 394 z m 310 407 b 282 425 310 418 300 425 l 253 425 l 253 376 l 274 376 l 274 389 l 279 389 l 289 376 l 311 376 l 299 392 b 310 407 306 394 310 400 z m 281 401 l 274 401 l 274 413 l 281 413 b 289 407 286 413 289 410 b 281 401 289 403 286 401 z m 336 411 b 343 414 336 413 338 414 b 361 410 349 414 354 413 l 367 422 b 343 426 361 425 351 426 b 315 410 325 426 315 419 b 349 390 315 392 349 396 b 342 388 349 389 347 388 b 321 392 335 388 326 389 l 314 379 b 340 375 321 376 331 375 b 369 392 360 375 369 382 b 336 411 369 410 336 404 z m 375 376 l 396 376 l 396 425 l 375 425 l 375 376 z m 439 426 b 404 400 418 426 404 415 b 439 375 404 386 418 375 b 474 400 458 375 474 386 b 439 426 474 415 458 426 z m 439 388 b 425 400 431 388 425 393 b 439 413 425 408 431 413 b 453 400 446 413 453 408 b 439 388 453 393 446 388 z m 521 403 l 497 425 l 481 425 l 481 376 l 501 376 l 501 399 l 524 376 l 542 376 l 542 425 l 521 425 l 521 403 z "},"":{"ha":663,"x_min":0,"x_max":0,"o":"m 536 672 l 129 672 b 18 582 68 672 18 632 l 18 358 b 129 268 18 308 68 268 l 536 268 b 647 358 597 268 647 308 l 647 582 b 536 672 647 632 597 672 z m 624 358 b 536 288 624 319 585 288 l 129 288 b 42 358 82 288 42 319 l 42 582 b 129 653 42 621 82 653 l 536 653 b 624 582 585 653 624 621 l 624 358 z m 171 508 l 215 508 l 215 529 l 171 529 l 171 544 l 221 544 l 221 565 l 136 565 l 136 481 l 171 481 l 171 508 z m 268 503 l 278 503 l 296 481 l 333 481 l 311 507 b 331 533 324 513 331 521 b 283 565 331 553 313 565 l 232 565 l 232 481 l 268 481 l 268 503 z m 268 543 l 281 543 b 296 533 290 543 296 540 b 281 524 296 528 290 524 l 268 524 l 268 543 z m 432 503 l 379 503 l 379 514 l 424 514 l 424 535 l 379 535 l 379 544 l 431 544 l 431 565 l 344 565 l 344 481 l 432 481 l 432 503 z m 533 503 l 481 503 l 481 514 l 525 514 l 525 535 l 481 535 l 481 544 l 532 544 l 532 565 l 446 565 l 446 481 l 533 481 l 533 503 z m 156 396 l 142 425 l 119 425 l 146 376 l 165 376 l 192 425 l 171 425 l 156 396 z m 214 394 l 240 394 l 240 407 l 214 407 l 214 413 l 243 413 l 243 425 l 193 425 l 193 376 l 244 376 l 244 389 l 214 389 l 214 394 z m 310 407 b 282 425 310 418 300 425 l 253 425 l 253 376 l 274 376 l 274 389 l 279 389 l 289 376 l 311 376 l 299 392 b 310 407 306 394 310 400 z m 281 401 l 274 401 l 274 413 l 281 413 b 289 407 286 413 289 410 b 281 401 289 403 286 401 z m 336 411 b 343 414 336 413 338 414 b 361 410 349 414 354 413 l 367 422 b 343 426 361 425 351 426 b 315 410 325 426 315 419 b 349 390 315 392 349 396 b 342 388 349 389 347 388 b 321 392 335 388 326 389 l 314 379 b 340 375 321 376 331 375 b 369 392 360 375 369 382 b 336 411 369 410 336 404 z m 375 376 l 396 376 l 396 425 l 375 425 l 375 376 z m 439 426 b 404 400 418 426 404 415 b 439 375 404 386 418 375 b 474 400 458 375 474 386 b 439 426 474 415 458 426 z m 439 388 b 425 400 431 388 425 393 b 439 413 425 408 431 413 b 453 400 446 413 453 408 b 439 388 453 393 446 388 z m 521 403 l 497 425 l 481 425 l 481 376 l 501 376 l 501 399 l 524 376 l 542 376 l 542 425 l 521 425 l 521 403 z "},"":{"ha":663,"x_min":0,"x_max":0,"o":"m 536 672 l 129 672 b 18 582 68 672 18 632 l 18 358 b 129 268 18 308 68 268 l 536 268 b 647 358 597 268 647 308 l 647 582 b 536 672 647 632 597 672 z m 624 358 b 536 288 624 319 585 288 l 129 288 b 42 358 82 288 42 319 l 42 582 b 129 653 42 621 82 653 l 536 653 b 624 582 585 653 624 621 l 624 358 z m 171 508 l 215 508 l 215 529 l 171 529 l 171 544 l 221 544 l 221 565 l 136 565 l 136 481 l 171 481 l 171 508 z m 268 503 l 278 503 l 296 481 l 333 481 l 311 507 b 331 533 324 513 331 521 b 283 565 331 553 313 565 l 232 565 l 232 481 l 268 481 l 268 503 z m 268 543 l 281 543 b 296 533 290 543 296 540 b 281 524 296 528 290 524 l 268 524 l 268 543 z m 432 503 l 379 503 l 379 514 l 424 514 l 424 535 l 379 535 l 379 544 l 431 544 l 431 565 l 344 565 l 344 481 l 432 481 l 432 503 z m 533 503 l 481 503 l 481 514 l 525 514 l 525 535 l 481 535 l 481 544 l 532 544 l 532 565 l 446 565 l 446 481 l 533 481 l 533 503 z m 156 396 l 142 425 l 119 425 l 146 376 l 165 376 l 192 425 l 171 425 l 156 396 z m 214 394 l 240 394 l 240 407 l 214 407 l 214 413 l 243 413 l 243 425 l 193 425 l 193 376 l 244 376 l 244 389 l 214 389 l 214 394 z m 310 407 b 282 425 310 418 300 425 l 253 425 l 253 376 l 274 376 l 274 389 l 279 389 l 289 376 l 311 376 l 299 392 b 310 407 306 394 310 400 z m 281 401 l 274 401 l 274 413 l 281 413 b 289 407 286 413 289 410 b 281 401 289 403 286 401 z m 336 411 b 343 414 336 413 338 414 b 361 410 349 414 354 413 l 367 422 b 343 426 361 425 351 426 b 315 410 325 426 315 419 b 349 390 315 392 349 396 b 342 388 349 389 347 388 b 321 392 335 388 326 389 l 314 379 b 340 375 321 376 331 375 b 369 392 360 375 369 382 b 336 411 369 410 336 404 z m 375 376 l 396 376 l 396 425 l 375 425 l 375 376 z m 439 426 b 404 400 418 426 404 415 b 439 375 404 386 418 375 b 474 400 458 375 474 386 b 439 426 474 415 458 426 z m 439 388 b 425 400 431 388 425 393 b 439 413 425 408 431 413 b 453 400 446 413 453 408 b 439 388 453 393 446 388 z m 521 403 l 497 425 l 481 425 l 481 376 l 501 376 l 501 399 l 524 376 l 542 376 l 542 425 l 521 425 l 521 403 z "},"":{"ha":663,"x_min":0,"x_max":0,"o":"m 536 672 l 129 672 b 18 582 68 672 18 632 l 18 358 b 129 268 18 308 68 268 l 536 268 b 647 358 597 268 647 308 l 647 582 b 536 672 647 632 597 672 z m 624 358 b 536 288 624 319 585 288 l 129 288 b 42 358 82 288 42 319 l 42 582 b 129 653 42 621 82 653 l 536 653 b 624 582 585 653 624 621 l 624 358 z m 171 508 l 215 508 l 215 529 l 171 529 l 171 544 l 221 544 l 221 565 l 136 565 l 136 481 l 171 481 l 171 508 z m 268 503 l 278 503 l 296 481 l 333 481 l 311 507 b 331 533 324 513 331 521 b 283 565 331 553 313 565 l 232 565 l 232 481 l 268 481 l 268 503 z m 268 543 l 281 543 b 296 533 290 543 296 540 b 281 524 296 528 290 524 l 268 524 l 268 543 z m 432 503 l 379 503 l 379 514 l 424 514 l 424 535 l 379 535 l 379 544 l 431 544 l 431 565 l 344 565 l 344 481 l 432 481 l 432 503 z m 533 503 l 481 503 l 481 514 l 525 514 l 525 535 l 481 535 l 481 544 l 532 544 l 532 565 l 446 565 l 446 481 l 533 481 l 533 503 z m 156 396 l 142 425 l 119 425 l 146 376 l 165 376 l 192 425 l 171 425 l 156 396 z m 214 394 l 240 394 l 240 407 l 214 407 l 214 413 l 243 413 l 243 425 l 193 425 l 193 376 l 244 376 l 244 389 l 214 389 l 214 394 z m 310 407 b 282 425 310 418 300 425 l 253 425 l 253 376 l 274 376 l 274 389 l 279 389 l 289 376 l 311 376 l 299 392 b 310 407 306 394 310 400 z m 281 401 l 274 401 l 274 413 l 281 413 b 289 407 286 413 289 410 b 281 401 289 403 286 401 z m 336 411 b 343 414 336 413 338 414 b 361 410 349 414 354 413 l 367 422 b 343 426 361 425 351 426 b 315 410 325 426 315 419 b 349 390 315 392 349 396 b 342 388 349 389 347 388 b 321 392 335 388 326 389 l 314 379 b 340 375 321 376 331 375 b 369 392 360 375 369 382 b 336 411 369 410 336 404 z m 375 376 l 396 376 l 396 425 l 375 425 l 375 376 z m 439 426 b 404 400 418 426 404 415 b 439 375 404 386 418 375 b 474 400 458 375 474 386 b 439 426 474 415 458 426 z m 439 388 b 425 400 431 388 425 393 b 439 413 425 408 431 413 b 453 400 446 413 453 408 b 439 388 453 393 446 388 z m 521 403 l 497 425 l 481 425 l 481 376 l 501 376 l 501 399 l 524 376 l 542 376 l 542 425 l 521 425 l 521 403 z "},"":{"ha":663,"x_min":0,"x_max":0,"o":"m 536 672 l 129 672 b 18 582 68 672 18 632 l 18 358 b 129 268 18 308 68 268 l 536 268 b 647 358 597 268 647 308 l 647 582 b 536 672 647 632 597 672 z m 624 358 b 536 288 624 319 585 288 l 129 288 b 42 358 82 288 42 319 l 42 582 b 129 653 42 621 82 653 l 536 653 b 624 582 585 653 624 621 l 624 358 z m 171 508 l 215 508 l 215 529 l 171 529 l 171 544 l 221 544 l 221 565 l 136 565 l 136 481 l 171 481 l 171 508 z m 268 503 l 278 503 l 296 481 l 333 481 l 311 507 b 331 533 324 513 331 521 b 283 565 331 553 313 565 l 232 565 l 232 481 l 268 481 l 268 503 z m 268 543 l 281 543 b 296 533 290 543 296 540 b 281 524 296 528 290 524 l 268 524 l 268 543 z m 432 503 l 379 503 l 379 514 l 424 514 l 424 535 l 379 535 l 379 544 l 431 544 l 431 565 l 344 565 l 344 481 l 432 481 l 432 503 z m 533 503 l 481 503 l 481 514 l 525 514 l 525 535 l 481 535 l 481 544 l 532 544 l 532 565 l 446 565 l 446 481 l 533 481 l 533 503 z m 156 396 l 142 425 l 119 425 l 146 376 l 165 376 l 192 425 l 171 425 l 156 396 z m 214 394 l 240 394 l 240 407 l 214 407 l 214 413 l 243 413 l 243 425 l 193 425 l 193 376 l 244 376 l 244 389 l 214 389 l 214 394 z m 310 407 b 282 425 310 418 300 425 l 253 425 l 253 376 l 274 376 l 274 389 l 279 389 l 289 376 l 311 376 l 299 392 b 310 407 306 394 310 400 z m 281 401 l 274 401 l 274 413 l 281 413 b 289 407 286 413 289 410 b 281 401 289 403 286 401 z m 336 411 b 343 414 336 413 338 414 b 361 410 349 414 354 413 l 367 422 b 343 426 361 425 351 426 b 315 410 325 426 315 419 b 349 390 315 392 349 396 b 342 388 349 389 347 388 b 321 392 335 388 326 389 l 314 379 b 340 375 321 376 331 375 b 369 392 360 375 369 382 b 336 411 369 410 336 404 z m 375 376 l 396 376 l 396 425 l 375 425 l 375 376 z m 439 426 b 404 400 418 426 404 415 b 439 375 404 386 418 375 b 474 400 458 375 474 386 b 439 426 474 415 458 426 z m 439 388 b 425 400 431 388 425 393 b 439 413 425 408 431 413 b 453 400 446 413 453 408 b 439 388 453 393 446 388 z m 521 403 l 497 425 l 481 425 l 481 376 l 501 376 l 501 399 l 524 376 l 542 376 l 542 425 l 521 425 l 521 403 z "},"":{"ha":663,"x_min":0,"x_max":0,"o":"m 536 672 l 129 672 b 18 582 68 672 18 632 l 18 358 b 129 268 18 308 68 268 l 536 268 b 647 358 597 268 647 308 l 647 582 b 536 672 647 632 597 672 z m 624 358 b 536 288 624 319 585 288 l 129 288 b 42 358 82 288 42 319 l 42 582 b 129 653 42 621 82 653 l 536 653 b 624 582 585 653 624 621 l 624 358 z m 171 508 l 215 508 l 215 529 l 171 529 l 171 544 l 221 544 l 221 565 l 136 565 l 136 481 l 171 481 l 171 508 z m 268 503 l 278 503 l 296 481 l 333 481 l 311 507 b 331 533 324 513 331 521 b 283 565 331 553 313 565 l 232 565 l 232 481 l 268 481 l 268 503 z m 268 543 l 281 543 b 296 533 290 543 296 540 b 281 524 296 528 290 524 l 268 524 l 268 543 z m 432 503 l 379 503 l 379 514 l 424 514 l 424 535 l 379 535 l 379 544 l 431 544 l 431 565 l 344 565 l 344 481 l 432 481 l 432 503 z m 533 503 l 481 503 l 481 514 l 525 514 l 525 535 l 481 535 l 481 544 l 532 544 l 532 565 l 446 565 l 446 481 l 533 481 l 533 503 z m 156 396 l 142 425 l 119 425 l 146 376 l 165 376 l 192 425 l 171 425 l 156 396 z m 214 394 l 240 394 l 240 407 l 214 407 l 214 413 l 243 413 l 243 425 l 193 425 l 193 376 l 244 376 l 244 389 l 214 389 l 214 394 z m 310 407 b 282 425 310 418 300 425 l 253 425 l 253 376 l 274 376 l 274 389 l 279 389 l 289 376 l 311 376 l 299 392 b 310 407 306 394 310 400 z m 281 401 l 274 401 l 274 413 l 281 413 b 289 407 286 413 289 410 b 281 401 289 403 286 401 z m 336 411 b 343 414 336 413 338 414 b 361 410 349 414 354 413 l 367 422 b 343 426 361 425 351 426 b 315 410 325 426 315 419 b 349 390 315 392 349 396 b 342 388 349 389 347 388 b 321 392 335 388 326 389 l 314 379 b 340 375 321 376 331 375 b 369 392 360 375 369 382 b 336 411 369 410 336 404 z m 375 376 l 396 376 l 396 425 l 375 425 l 375 376 z m 439 426 b 404 400 418 426 404 415 b 439 375 404 386 418 375 b 474 400 458 375 474 386 b 439 426 474 415 458 426 z m 439 388 b 425 400 431 388 425 393 b 439 413 425 408 431 413 b 453 400 446 413 453 408 b 439 388 453 393 446 388 z m 521 403 l 497 425 l 481 425 l 481 376 l 501 376 l 501 399 l 524 376 l 542 376 l 542 425 l 521 425 l 521 403 z "},"":{"ha":663,"x_min":0,"x_max":0,"o":"m 536 672 l 129 672 b 18 582 68 672 18 632 l 18 358 b 129 268 18 308 68 268 l 536 268 b 647 358 597 268 647 308 l 647 582 b 536 672 647 632 597 672 z m 624 358 b 536 288 624 319 585 288 l 129 288 b 42 358 82 288 42 319 l 42 582 b 129 653 42 621 82 653 l 536 653 b 624 582 585 653 624 621 l 624 358 z m 171 508 l 215 508 l 215 529 l 171 529 l 171 544 l 221 544 l 221 565 l 136 565 l 136 481 l 171 481 l 171 508 z m 268 503 l 278 503 l 296 481 l 333 481 l 311 507 b 331 533 324 513 331 521 b 283 565 331 553 313 565 l 232 565 l 232 481 l 268 481 l 268 503 z m 268 543 l 281 543 b 296 533 290 543 296 540 b 281 524 296 528 290 524 l 268 524 l 268 543 z m 432 503 l 379 503 l 379 514 l 424 514 l 424 535 l 379 535 l 379 544 l 431 544 l 431 565 l 344 565 l 344 481 l 432 481 l 432 503 z m 533 503 l 481 503 l 481 514 l 525 514 l 525 535 l 481 535 l 481 544 l 532 544 l 532 565 l 446 565 l 446 481 l 533 481 l 533 503 z m 156 396 l 142 425 l 119 425 l 146 376 l 165 376 l 192 425 l 171 425 l 156 396 z m 214 394 l 240 394 l 240 407 l 214 407 l 214 413 l 243 413 l 243 425 l 193 425 l 193 376 l 244 376 l 244 389 l 214 389 l 214 394 z m 310 407 b 282 425 310 418 300 425 l 253 425 l 253 376 l 274 376 l 274 389 l 279 389 l 289 376 l 311 376 l 299 392 b 310 407 306 394 310 400 z m 281 401 l 274 401 l 274 413 l 281 413 b 289 407 286 413 289 410 b 281 401 289 403 286 401 z m 336 411 b 343 414 336 413 338 414 b 361 410 349 414 354 413 l 367 422 b 343 426 361 425 351 426 b 315 410 325 426 315 419 b 349 390 315 392 349 396 b 342 388 349 389 347 388 b 321 392 335 388 326 389 l 314 379 b 340 375 321 376 331 375 b 369 392 360 375 369 382 b 336 411 369 410 336 404 z m 375 376 l 396 376 l 396 425 l 375 425 l 375 376 z m 439 426 b 404 400 418 426 404 415 b 439 375 404 386 418 375 b 474 400 458 375 474 386 b 439 426 474 415 458 426 z m 439 388 b 425 400 431 388 425 393 b 439 413 425 408 431 413 b 453 400 446 413 453 408 b 439 388 453 393 446 388 z m 521 403 l 497 425 l 481 425 l 481 376 l 501 376 l 501 399 l 524 376 l 542 376 l 542 425 l 521 425 l 521 403 z "},"":{"ha":663,"x_min":0,"x_max":0,"o":"m 536 672 l 129 672 b 18 582 68 672 18 632 l 18 358 b 129 268 18 308 68 268 l 536 268 b 647 358 597 268 647 308 l 647 582 b 536 672 647 632 597 672 z m 624 358 b 536 288 624 319 585 288 l 129 288 b 42 358 82 288 42 319 l 42 582 b 129 653 42 621 82 653 l 536 653 b 624 582 585 653 624 621 l 624 358 z m 171 508 l 215 508 l 215 529 l 171 529 l 171 544 l 221 544 l 221 565 l 136 565 l 136 481 l 171 481 l 171 508 z m 268 503 l 278 503 l 296 481 l 333 481 l 311 507 b 331 533 324 513 331 521 b 283 565 331 553 313 565 l 232 565 l 232 481 l 268 481 l 268 503 z m 268 543 l 281 543 b 296 533 290 543 296 540 b 281 524 296 528 290 524 l 268 524 l 268 543 z m 432 503 l 379 503 l 379 514 l 424 514 l 424 535 l 379 535 l 379 544 l 431 544 l 431 565 l 344 565 l 344 481 l 432 481 l 432 503 z m 533 503 l 481 503 l 481 514 l 525 514 l 525 535 l 481 535 l 481 544 l 532 544 l 532 565 l 446 565 l 446 481 l 533 481 l 533 503 z m 156 396 l 142 425 l 119 425 l 146 376 l 165 376 l 192 425 l 171 425 l 156 396 z m 214 394 l 240 394 l 240 407 l 214 407 l 214 413 l 243 413 l 243 425 l 193 425 l 193 376 l 244 376 l 244 389 l 214 389 l 214 394 z m 310 407 b 282 425 310 418 300 425 l 253 425 l 253 376 l 274 376 l 274 389 l 279 389 l 289 376 l 311 376 l 299 392 b 310 407 306 394 310 400 z m 281 401 l 274 401 l 274 413 l 281 413 b 289 407 286 413 289 410 b 281 401 289 403 286 401 z m 336 411 b 343 414 336 413 338 414 b 361 410 349 414 354 413 l 367 422 b 343 426 361 425 351 426 b 315 410 325 426 315 419 b 349 390 315 392 349 396 b 342 388 349 389 347 388 b 321 392 335 388 326 389 l 314 379 b 340 375 321 376 331 375 b 369 392 360 375 369 382 b 336 411 369 410 336 404 z m 375 376 l 396 376 l 396 425 l 375 425 l 375 376 z m 439 426 b 404 400 418 426 404 415 b 439 375 404 386 418 375 b 474 400 458 375 474 386 b 439 426 474 415 458 426 z m 439 388 b 425 400 431 388 425 393 b 439 413 425 408 431 413 b 453 400 446 413 453 408 b 439 388 453 393 446 388 z m 521 403 l 497 425 l 481 425 l 481 376 l 501 376 l 501 399 l 524 376 l 542 376 l 542 425 l 521 425 l 521 403 z "},"":{"ha":663,"x_min":0,"x_max":0,"o":"m 536 672 l 129 672 b 18 582 68 672 18 632 l 18 358 b 129 268 18 308 68 268 l 536 268 b 647 358 597 268 647 308 l 647 582 b 536 672 647 632 597 672 z m 624 358 b 536 288 624 319 585 288 l 129 288 b 42 358 82 288 42 319 l 42 582 b 129 653 42 621 82 653 l 536 653 b 624 582 585 653 624 621 l 624 358 z m 171 508 l 215 508 l 215 529 l 171 529 l 171 544 l 221 544 l 221 565 l 136 565 l 136 481 l 171 481 l 171 508 z m 268 503 l 278 503 l 296 481 l 333 481 l 311 507 b 331 533 324 513 331 521 b 283 565 331 553 313 565 l 232 565 l 232 481 l 268 481 l 268 503 z m 268 543 l 281 543 b 296 533 290 543 296 540 b 281 524 296 528 290 524 l 268 524 l 268 543 z m 432 503 l 379 503 l 379 514 l 424 514 l 424 535 l 379 535 l 379 544 l 431 544 l 431 565 l 344 565 l 344 481 l 432 481 l 432 503 z m 533 503 l 481 503 l 481 514 l 525 514 l 525 535 l 481 535 l 481 544 l 532 544 l 532 565 l 446 565 l 446 481 l 533 481 l 533 503 z m 156 396 l 142 425 l 119 425 l 146 376 l 165 376 l 192 425 l 171 425 l 156 396 z m 214 394 l 240 394 l 240 407 l 214 407 l 214 413 l 243 413 l 243 425 l 193 425 l 193 376 l 244 376 l 244 389 l 214 389 l 214 394 z m 310 407 b 282 425 310 418 300 425 l 253 425 l 253 376 l 274 376 l 274 389 l 279 389 l 289 376 l 311 376 l 299 392 b 310 407 306 394 310 400 z m 281 401 l 274 401 l 274 413 l 281 413 b 289 407 286 413 289 410 b 281 401 289 403 286 401 z m 336 411 b 343 414 336 413 338 414 b 361 410 349 414 354 413 l 367 422 b 343 426 361 425 351 426 b 315 410 325 426 315 419 b 349 390 315 392 349 396 b 342 388 349 389 347 388 b 321 392 335 388 326 389 l 314 379 b 340 375 321 376 331 375 b 369 392 360 375 369 382 b 336 411 369 410 336 404 z m 375 376 l 396 376 l 396 425 l 375 425 l 375 376 z m 439 426 b 404 400 418 426 404 415 b 439 375 404 386 418 375 b 474 400 458 375 474 386 b 439 426 474 415 458 426 z m 439 388 b 425 400 431 388 425 393 b 439 413 425 408 431 413 b 453 400 446 413 453 408 b 439 388 453 393 446 388 z m 521 403 l 497 425 l 481 425 l 481 376 l 501 376 l 501 399 l 524 376 l 542 376 l 542 425 l 521 425 l 521 403 z "},"":{"ha":663,"x_min":0,"x_max":0,"o":"m 536 672 l 129 672 b 18 582 68 672 18 632 l 18 358 b 129 268 18 308 68 268 l 536 268 b 647 358 597 268 647 308 l 647 582 b 536 672 647 632 597 672 z m 624 358 b 536 288 624 319 585 288 l 129 288 b 42 358 82 288 42 319 l 42 582 b 129 653 42 621 82 653 l 536 653 b 624 582 585 653 624 621 l 624 358 z m 171 508 l 215 508 l 215 529 l 171 529 l 171 544 l 221 544 l 221 565 l 136 565 l 136 481 l 171 481 l 171 508 z m 268 503 l 278 503 l 296 481 l 333 481 l 311 507 b 331 533 324 513 331 521 b 283 565 331 553 313 565 l 232 565 l 232 481 l 268 481 l 268 503 z m 268 543 l 281 543 b 296 533 290 543 296 540 b 281 524 296 528 290 524 l 268 524 l 268 543 z m 432 503 l 379 503 l 379 514 l 424 514 l 424 535 l 379 535 l 379 544 l 431 544 l 431 565 l 344 565 l 344 481 l 432 481 l 432 503 z m 533 503 l 481 503 l 481 514 l 525 514 l 525 535 l 481 535 l 481 544 l 532 544 l 532 565 l 446 565 l 446 481 l 533 481 l 533 503 z m 156 396 l 142 425 l 119 425 l 146 376 l 165 376 l 192 425 l 171 425 l 156 396 z m 214 394 l 240 394 l 240 407 l 214 407 l 214 413 l 243 413 l 243 425 l 193 425 l 193 376 l 244 376 l 244 389 l 214 389 l 214 394 z m 310 407 b 282 425 310 418 300 425 l 253 425 l 253 376 l 274 376 l 274 389 l 279 389 l 289 376 l 311 376 l 299 392 b 310 407 306 394 310 400 z m 281 401 l 274 401 l 274 413 l 281 413 b 289 407 286 413 289 410 b 281 401 289 403 286 401 z m 336 411 b 343 414 336 413 338 414 b 361 410 349 414 354 413 l 367 422 b 343 426 361 425 351 426 b 315 410 325 426 315 419 b 349 390 315 392 349 396 b 342 388 349 389 347 388 b 321 392 335 388 326 389 l 314 379 b 340 375 321 376 331 375 b 369 392 360 375 369 382 b 336 411 369 410 336 404 z m 375 376 l 396 376 l 396 425 l 375 425 l 375 376 z m 439 426 b 404 400 418 426 404 415 b 439 375 404 386 418 375 b 474 400 458 375 474 386 b 439 426 474 415 458 426 z m 439 388 b 425 400 431 388 425 393 b 439 413 425 408 431 413 b 453 400 446 413 453 408 b 439 388 453 393 446 388 z m 521 403 l 497 425 l 481 425 l 481 376 l 501 376 l 501 399 l 524 376 l 542 376 l 542 425 l 521 425 l 521 403 z "},"":{"ha":663,"x_min":0,"x_max":0,"o":"m 536 672 l 129 672 b 18 582 68 672 18 632 l 18 358 b 129 268 18 308 68 268 l 536 268 b 647 358 597 268 647 308 l 647 582 b 536 672 647 632 597 672 z m 624 358 b 536 288 624 319 585 288 l 129 288 b 42 358 82 288 42 319 l 42 582 b 129 653 42 621 82 653 l 536 653 b 624 582 585 653 624 621 l 624 358 z m 171 508 l 215 508 l 215 529 l 171 529 l 171 544 l 221 544 l 221 565 l 136 565 l 136 481 l 171 481 l 171 508 z m 268 503 l 278 503 l 296 481 l 333 481 l 311 507 b 331 533 324 513 331 521 b 283 565 331 553 313 565 l 232 565 l 232 481 l 268 481 l 268 503 z m 268 543 l 281 543 b 296 533 290 543 296 540 b 281 524 296 528 290 524 l 268 524 l 268 543 z m 432 503 l 379 503 l 379 514 l 424 514 l 424 535 l 379 535 l 379 544 l 431 544 l 431 565 l 344 565 l 344 481 l 432 481 l 432 503 z m 533 503 l 481 503 l 481 514 l 525 514 l 525 535 l 481 535 l 481 544 l 532 544 l 532 565 l 446 565 l 446 481 l 533 481 l 533 503 z m 156 396 l 142 425 l 119 425 l 146 376 l 165 376 l 192 425 l 171 425 l 156 396 z m 214 394 l 240 394 l 240 407 l 214 407 l 214 413 l 243 413 l 243 425 l 193 425 l 193 376 l 244 376 l 244 389 l 214 389 l 214 394 z m 310 407 b 282 425 310 418 300 425 l 253 425 l 253 376 l 274 376 l 274 389 l 279 389 l 289 376 l 311 376 l 299 392 b 310 407 306 394 310 400 z m 281 401 l 274 401 l 274 413 l 281 413 b 289 407 286 413 289 410 b 281 401 289 403 286 401 z m 336 411 b 343 414 336 413 338 414 b 361 410 349 414 354 413 l 367 422 b 343 426 361 425 351 426 b 315 410 325 426 315 419 b 349 390 315 392 349 396 b 342 388 349 389 347 388 b 321 392 335 388 326 389 l 314 379 b 340 375 321 376 331 375 b 369 392 360 375 369 382 b 336 411 369 410 336 404 z m 375 376 l 396 376 l 396 425 l 375 425 l 375 376 z m 439 426 b 404 400 418 426 404 415 b 439 375 404 386 418 375 b 474 400 458 375 474 386 b 439 426 474 415 458 426 z m 439 388 b 425 400 431 388 425 393 b 439 413 425 408 431 413 b 453 400 446 413 453 408 b 439 388 453 393 446 388 z m 521 403 l 497 425 l 481 425 l 481 376 l 501 376 l 501 399 l 524 376 l 542 376 l 542 425 l 521 425 l 521 403 z "},"":{"ha":663,"x_min":0,"x_max":0,"o":"m 536 672 l 129 672 b 18 582 68 672 18 632 l 18 358 b 129 268 18 308 68 268 l 536 268 b 647 358 597 268 647 308 l 647 582 b 536 672 647 632 597 672 z m 624 358 b 536 288 624 319 585 288 l 129 288 b 42 358 82 288 42 319 l 42 582 b 129 653 42 621 82 653 l 536 653 b 624 582 585 653 624 621 l 624 358 z m 171 508 l 215 508 l 215 529 l 171 529 l 171 544 l 221 544 l 221 565 l 136 565 l 136 481 l 171 481 l 171 508 z m 268 503 l 278 503 l 296 481 l 333 481 l 311 507 b 331 533 324 513 331 521 b 283 565 331 553 313 565 l 232 565 l 232 481 l 268 481 l 268 503 z m 268 543 l 281 543 b 296 533 290 543 296 540 b 281 524 296 528 290 524 l 268 524 l 268 543 z m 432 503 l 379 503 l 379 514 l 424 514 l 424 535 l 379 535 l 379 544 l 431 544 l 431 565 l 344 565 l 344 481 l 432 481 l 432 503 z m 533 503 l 481 503 l 481 514 l 525 514 l 525 535 l 481 535 l 481 544 l 532 544 l 532 565 l 446 565 l 446 481 l 533 481 l 533 503 z m 156 396 l 142 425 l 119 425 l 146 376 l 165 376 l 192 425 l 171 425 l 156 396 z m 214 394 l 240 394 l 240 407 l 214 407 l 214 413 l 243 413 l 243 425 l 193 425 l 193 376 l 244 376 l 244 389 l 214 389 l 214 394 z m 310 407 b 282 425 310 418 300 425 l 253 425 l 253 376 l 274 376 l 274 389 l 279 389 l 289 376 l 311 376 l 299 392 b 310 407 306 394 310 400 z m 281 401 l 274 401 l 274 413 l 281 413 b 289 407 286 413 289 410 b 281 401 289 403 286 401 z m 336 411 b 343 414 336 413 338 414 b 361 410 349 414 354 413 l 367 422 b 343 426 361 425 351 426 b 315 410 325 426 315 419 b 349 390 315 392 349 396 b 342 388 349 389 347 388 b 321 392 335 388 326 389 l 314 379 b 340 375 321 376 331 375 b 369 392 360 375 369 382 b 336 411 369 410 336 404 z m 375 376 l 396 376 l 396 425 l 375 425 l 375 376 z m 439 426 b 404 400 418 426 404 415 b 439 375 404 386 418 375 b 474 400 458 375 474 386 b 439 426 474 415 458 426 z m 439 388 b 425 400 431 388 425 393 b 439 413 425 408 431 413 b 453 400 446 413 453 408 b 439 388 453 393 446 388 z m 521 403 l 497 425 l 481 425 l 481 376 l 501 376 l 501 399 l 524 376 l 542 376 l 542 425 l 521 425 l 521 403 z "},"":{"ha":663,"x_min":0,"x_max":0,"o":"m 536 672 l 129 672 b 18 582 68 672 18 632 l 18 358 b 129 268 18 308 68 268 l 536 268 b 647 358 597 268 647 308 l 647 582 b 536 672 647 632 597 672 z m 624 358 b 536 288 624 319 585 288 l 129 288 b 42 358 82 288 42 319 l 42 582 b 129 653 42 621 82 653 l 536 653 b 624 582 585 653 624 621 l 624 358 z m 171 508 l 215 508 l 215 529 l 171 529 l 171 544 l 221 544 l 221 565 l 136 565 l 136 481 l 171 481 l 171 508 z m 268 503 l 278 503 l 296 481 l 333 481 l 311 507 b 331 533 324 513 331 521 b 283 565 331 553 313 565 l 232 565 l 232 481 l 268 481 l 268 503 z m 268 543 l 281 543 b 296 533 290 543 296 540 b 281 524 296 528 290 524 l 268 524 l 268 543 z m 432 503 l 379 503 l 379 514 l 424 514 l 424 535 l 379 535 l 379 544 l 431 544 l 431 565 l 344 565 l 344 481 l 432 481 l 432 503 z m 533 503 l 481 503 l 481 514 l 525 514 l 525 535 l 481 535 l 481 544 l 532 544 l 532 565 l 446 565 l 446 481 l 533 481 l 533 503 z m 156 396 l 142 425 l 119 425 l 146 376 l 165 376 l 192 425 l 171 425 l 156 396 z m 214 394 l 240 394 l 240 407 l 214 407 l 214 413 l 243 413 l 243 425 l 193 425 l 193 376 l 244 376 l 244 389 l 214 389 l 214 394 z m 310 407 b 282 425 310 418 300 425 l 253 425 l 253 376 l 274 376 l 274 389 l 279 389 l 289 376 l 311 376 l 299 392 b 310 407 306 394 310 400 z m 281 401 l 274 401 l 274 413 l 281 413 b 289 407 286 413 289 410 b 281 401 289 403 286 401 z m 336 411 b 343 414 336 413 338 414 b 361 410 349 414 354 413 l 367 422 b 343 426 361 425 351 426 b 315 410 325 426 315 419 b 349 390 315 392 349 396 b 342 388 349 389 347 388 b 321 392 335 388 326 389 l 314 379 b 340 375 321 376 331 375 b 369 392 360 375 369 382 b 336 411 369 410 336 404 z m 375 376 l 396 376 l 396 425 l 375 425 l 375 376 z m 439 426 b 404 400 418 426 404 415 b 439 375 404 386 418 375 b 474 400 458 375 474 386 b 439 426 474 415 458 426 z m 439 388 b 425 400 431 388 425 393 b 439 413 425 408 431 413 b 453 400 446 413 453 408 b 439 388 453 393 446 388 z m 521 403 l 497 425 l 481 425 l 481 376 l 501 376 l 501 399 l 524 376 l 542 376 l 542 425 l 521 425 l 521 403 z "},"":{"ha":663,"x_min":0,"x_max":0,"o":"m 536 672 l 129 672 b 18 582 68 672 18 632 l 18 358 b 129 268 18 308 68 268 l 536 268 b 647 358 597 268 647 308 l 647 582 b 536 672 647 632 597 672 z m 624 358 b 536 288 624 319 585 288 l 129 288 b 42 358 82 288 42 319 l 42 582 b 129 653 42 621 82 653 l 536 653 b 624 582 585 653 624 621 l 624 358 z m 171 508 l 215 508 l 215 529 l 171 529 l 171 544 l 221 544 l 221 565 l 136 565 l 136 481 l 171 481 l 171 508 z m 268 503 l 278 503 l 296 481 l 333 481 l 311 507 b 331 533 324 513 331 521 b 283 565 331 553 313 565 l 232 565 l 232 481 l 268 481 l 268 503 z m 268 543 l 281 543 b 296 533 290 543 296 540 b 281 524 296 528 290 524 l 268 524 l 268 543 z m 432 503 l 379 503 l 379 514 l 424 514 l 424 535 l 379 535 l 379 544 l 431 544 l 431 565 l 344 565 l 344 481 l 432 481 l 432 503 z m 533 503 l 481 503 l 481 514 l 525 514 l 525 535 l 481 535 l 481 544 l 532 544 l 532 565 l 446 565 l 446 481 l 533 481 l 533 503 z m 156 396 l 142 425 l 119 425 l 146 376 l 165 376 l 192 425 l 171 425 l 156 396 z m 214 394 l 240 394 l 240 407 l 214 407 l 214 413 l 243 413 l 243 425 l 193 425 l 193 376 l 244 376 l 244 389 l 214 389 l 214 394 z m 310 407 b 282 425 310 418 300 425 l 253 425 l 253 376 l 274 376 l 274 389 l 279 389 l 289 376 l 311 376 l 299 392 b 310 407 306 394 310 400 z m 281 401 l 274 401 l 274 413 l 281 413 b 289 407 286 413 289 410 b 281 401 289 403 286 401 z m 336 411 b 343 414 336 413 338 414 b 361 410 349 414 354 413 l 367 422 b 343 426 361 425 351 426 b 315 410 325 426 315 419 b 349 390 315 392 349 396 b 342 388 349 389 347 388 b 321 392 335 388 326 389 l 314 379 b 340 375 321 376 331 375 b 369 392 360 375 369 382 b 336 411 369 410 336 404 z m 375 376 l 396 376 l 396 425 l 375 425 l 375 376 z m 439 426 b 404 400 418 426 404 415 b 439 375 404 386 418 375 b 474 400 458 375 474 386 b 439 426 474 415 458 426 z m 439 388 b 425 400 431 388 425 393 b 439 413 425 408 431 413 b 453 400 446 413 453 408 b 439 388 453 393 446 388 z m 521 403 l 497 425 l 481 425 l 481 376 l 501 376 l 501 399 l 524 376 l 542 376 l 542 425 l 521 425 l 521 403 z "},"":{"ha":663,"x_min":0,"x_max":0,"o":"m 536 672 l 129 672 b 18 582 68 672 18 632 l 18 358 b 129 268 18 308 68 268 l 536 268 b 647 358 597 268 647 308 l 647 582 b 536 672 647 632 597 672 z m 624 358 b 536 288 624 319 585 288 l 129 288 b 42 358 82 288 42 319 l 42 582 b 129 653 42 621 82 653 l 536 653 b 624 582 585 653 624 621 l 624 358 z m 171 508 l 215 508 l 215 529 l 171 529 l 171 544 l 221 544 l 221 565 l 136 565 l 136 481 l 171 481 l 171 508 z m 268 503 l 278 503 l 296 481 l 333 481 l 311 507 b 331 533 324 513 331 521 b 283 565 331 553 313 565 l 232 565 l 232 481 l 268 481 l 268 503 z m 268 543 l 281 543 b 296 533 290 543 296 540 b 281 524 296 528 290 524 l 268 524 l 268 543 z m 432 503 l 379 503 l 379 514 l 424 514 l 424 535 l 379 535 l 379 544 l 431 544 l 431 565 l 344 565 l 344 481 l 432 481 l 432 503 z m 533 503 l 481 503 l 481 514 l 525 514 l 525 535 l 481 535 l 481 544 l 532 544 l 532 565 l 446 565 l 446 481 l 533 481 l 533 503 z m 156 396 l 142 425 l 119 425 l 146 376 l 165 376 l 192 425 l 171 425 l 156 396 z m 214 394 l 240 394 l 240 407 l 214 407 l 214 413 l 243 413 l 243 425 l 193 425 l 193 376 l 244 376 l 244 389 l 214 389 l 214 394 z m 310 407 b 282 425 310 418 300 425 l 253 425 l 253 376 l 274 376 l 274 389 l 279 389 l 289 376 l 311 376 l 299 392 b 310 407 306 394 310 400 z m 281 401 l 274 401 l 274 413 l 281 413 b 289 407 286 413 289 410 b 281 401 289 403 286 401 z m 336 411 b 343 414 336 413 338 414 b 361 410 349 414 354 413 l 367 422 b 343 426 361 425 351 426 b 315 410 325 426 315 419 b 349 390 315 392 349 396 b 342 388 349 389 347 388 b 321 392 335 388 326 389 l 314 379 b 340 375 321 376 331 375 b 369 392 360 375 369 382 b 336 411 369 410 336 404 z m 375 376 l 396 376 l 396 425 l 375 425 l 375 376 z m 439 426 b 404 400 418 426 404 415 b 439 375 404 386 418 375 b 474 400 458 375 474 386 b 439 426 474 415 458 426 z m 439 388 b 425 400 431 388 425 393 b 439 413 425 408 431 413 b 453 400 446 413 453 408 b 439 388 453 393 446 388 z m 521 403 l 497 425 l 481 425 l 481 376 l 501 376 l 501 399 l 524 376 l 542 376 l 542 425 l 521 425 l 521 403 z "},"":{"ha":663,"x_min":0,"x_max":0,"o":"m 536 672 l 129 672 b 18 582 68 672 18 632 l 18 358 b 129 268 18 308 68 268 l 536 268 b 647 358 597 268 647 308 l 647 582 b 536 672 647 632 597 672 z m 624 358 b 536 288 624 319 585 288 l 129 288 b 42 358 82 288 42 319 l 42 582 b 129 653 42 621 82 653 l 536 653 b 624 582 585 653 624 621 l 624 358 z m 171 508 l 215 508 l 215 529 l 171 529 l 171 544 l 221 544 l 221 565 l 136 565 l 136 481 l 171 481 l 171 508 z m 268 503 l 278 503 l 296 481 l 333 481 l 311 507 b 331 533 324 513 331 521 b 283 565 331 553 313 565 l 232 565 l 232 481 l 268 481 l 268 503 z m 268 543 l 281 543 b 296 533 290 543 296 540 b 281 524 296 528 290 524 l 268 524 l 268 543 z m 432 503 l 379 503 l 379 514 l 424 514 l 424 535 l 379 535 l 379 544 l 431 544 l 431 565 l 344 565 l 344 481 l 432 481 l 432 503 z m 533 503 l 481 503 l 481 514 l 525 514 l 525 535 l 481 535 l 481 544 l 532 544 l 532 565 l 446 565 l 446 481 l 533 481 l 533 503 z m 156 396 l 142 425 l 119 425 l 146 376 l 165 376 l 192 425 l 171 425 l 156 396 z m 214 394 l 240 394 l 240 407 l 214 407 l 214 413 l 243 413 l 243 425 l 193 425 l 193 376 l 244 376 l 244 389 l 214 389 l 214 394 z m 310 407 b 282 425 310 418 300 425 l 253 425 l 253 376 l 274 376 l 274 389 l 279 389 l 289 376 l 311 376 l 299 392 b 310 407 306 394 310 400 z m 281 401 l 274 401 l 274 413 l 281 413 b 289 407 286 413 289 410 b 281 401 289 403 286 401 z m 336 411 b 343 414 336 413 338 414 b 361 410 349 414 354 413 l 367 422 b 343 426 361 425 351 426 b 315 410 325 426 315 419 b 349 390 315 392 349 396 b 342 388 349 389 347 388 b 321 392 335 388 326 389 l 314 379 b 340 375 321 376 331 375 b 369 392 360 375 369 382 b 336 411 369 410 336 404 z m 375 376 l 396 376 l 396 425 l 375 425 l 375 376 z m 439 426 b 404 400 418 426 404 415 b 439 375 404 386 418 375 b 474 400 458 375 474 386 b 439 426 474 415 458 426 z m 439 388 b 425 400 431 388 425 393 b 439 413 425 408 431 413 b 453 400 446 413 453 408 b 439 388 453 393 446 388 z m 521 403 l 497 425 l 481 425 l 481 376 l 501 376 l 501 399 l 524 376 l 542 376 l 542 425 l 521 425 l 521 403 z "},"":{"ha":663,"x_min":0,"x_max":0,"o":"m 536 672 l 129 672 b 18 582 68 672 18 632 l 18 358 b 129 268 18 308 68 268 l 536 268 b 647 358 597 268 647 308 l 647 582 b 536 672 647 632 597 672 z m 624 358 b 536 288 624 319 585 288 l 129 288 b 42 358 82 288 42 319 l 42 582 b 129 653 42 621 82 653 l 536 653 b 624 582 585 653 624 621 l 624 358 z m 171 508 l 215 508 l 215 529 l 171 529 l 171 544 l 221 544 l 221 565 l 136 565 l 136 481 l 171 481 l 171 508 z m 268 503 l 278 503 l 296 481 l 333 481 l 311 507 b 331 533 324 513 331 521 b 283 565 331 553 313 565 l 232 565 l 232 481 l 268 481 l 268 503 z m 268 543 l 281 543 b 296 533 290 543 296 540 b 281 524 296 528 290 524 l 268 524 l 268 543 z m 432 503 l 379 503 l 379 514 l 424 514 l 424 535 l 379 535 l 379 544 l 431 544 l 431 565 l 344 565 l 344 481 l 432 481 l 432 503 z m 533 503 l 481 503 l 481 514 l 525 514 l 525 535 l 481 535 l 481 544 l 532 544 l 532 565 l 446 565 l 446 481 l 533 481 l 533 503 z m 156 396 l 142 425 l 119 425 l 146 376 l 165 376 l 192 425 l 171 425 l 156 396 z m 214 394 l 240 394 l 240 407 l 214 407 l 214 413 l 243 413 l 243 425 l 193 425 l 193 376 l 244 376 l 244 389 l 214 389 l 214 394 z m 310 407 b 282 425 310 418 300 425 l 253 425 l 253 376 l 274 376 l 274 389 l 279 389 l 289 376 l 311 376 l 299 392 b 310 407 306 394 310 400 z m 281 401 l 274 401 l 274 413 l 281 413 b 289 407 286 413 289 410 b 281 401 289 403 286 401 z m 336 411 b 343 414 336 413 338 414 b 361 410 349 414 354 413 l 367 422 b 343 426 361 425 351 426 b 315 410 325 426 315 419 b 349 390 315 392 349 396 b 342 388 349 389 347 388 b 321 392 335 388 326 389 l 314 379 b 340 375 321 376 331 375 b 369 392 360 375 369 382 b 336 411 369 410 336 404 z m 375 376 l 396 376 l 396 425 l 375 425 l 375 376 z m 439 426 b 404 400 418 426 404 415 b 439 375 404 386 418 375 b 474 400 458 375 474 386 b 439 426 474 415 458 426 z m 439 388 b 425 400 431 388 425 393 b 439 413 425 408 431 413 b 453 400 446 413 453 408 b 439 388 453 393 446 388 z m 521 403 l 497 425 l 481 425 l 481 376 l 501 376 l 501 399 l 524 376 l 542 376 l 542 425 l 521 425 l 521 403 z "},"":{"ha":663,"x_min":0,"x_max":0,"o":"m 536 672 l 129 672 b 18 582 68 672 18 632 l 18 358 b 129 268 18 308 68 268 l 536 268 b 647 358 597 268 647 308 l 647 582 b 536 672 647 632 597 672 z m 624 358 b 536 288 624 319 585 288 l 129 288 b 42 358 82 288 42 319 l 42 582 b 129 653 42 621 82 653 l 536 653 b 624 582 585 653 624 621 l 624 358 z m 171 508 l 215 508 l 215 529 l 171 529 l 171 544 l 221 544 l 221 565 l 136 565 l 136 481 l 171 481 l 171 508 z m 268 503 l 278 503 l 296 481 l 333 481 l 311 507 b 331 533 324 513 331 521 b 283 565 331 553 313 565 l 232 565 l 232 481 l 268 481 l 268 503 z m 268 543 l 281 543 b 296 533 290 543 296 540 b 281 524 296 528 290 524 l 268 524 l 268 543 z m 432 503 l 379 503 l 379 514 l 424 514 l 424 535 l 379 535 l 379 544 l 431 544 l 431 565 l 344 565 l 344 481 l 432 481 l 432 503 z m 533 503 l 481 503 l 481 514 l 525 514 l 525 535 l 481 535 l 481 544 l 532 544 l 532 565 l 446 565 l 446 481 l 533 481 l 533 503 z m 156 396 l 142 425 l 119 425 l 146 376 l 165 376 l 192 425 l 171 425 l 156 396 z m 214 394 l 240 394 l 240 407 l 214 407 l 214 413 l 243 413 l 243 425 l 193 425 l 193 376 l 244 376 l 244 389 l 214 389 l 214 394 z m 310 407 b 282 425 310 418 300 425 l 253 425 l 253 376 l 274 376 l 274 389 l 279 389 l 289 376 l 311 376 l 299 392 b 310 407 306 394 310 400 z m 281 401 l 274 401 l 274 413 l 281 413 b 289 407 286 413 289 410 b 281 401 289 403 286 401 z m 336 411 b 343 414 336 413 338 414 b 361 410 349 414 354 413 l 367 422 b 343 426 361 425 351 426 b 315 410 325 426 315 419 b 349 390 315 392 349 396 b 342 388 349 389 347 388 b 321 392 335 388 326 389 l 314 379 b 340 375 321 376 331 375 b 369 392 360 375 369 382 b 336 411 369 410 336 404 z m 375 376 l 396 376 l 396 425 l 375 425 l 375 376 z m 439 426 b 404 400 418 426 404 415 b 439 375 404 386 418 375 b 474 400 458 375 474 386 b 439 426 474 415 458 426 z m 439 388 b 425 400 431 388 425 393 b 439 413 425 408 431 413 b 453 400 446 413 453 408 b 439 388 453 393 446 388 z m 521 403 l 497 425 l 481 425 l 481 376 l 501 376 l 501 399 l 524 376 l 542 376 l 542 425 l 521 425 l 521 403 z "},"":{"ha":663,"x_min":0,"x_max":0,"o":"m 536 672 l 129 672 b 18 582 68 672 18 632 l 18 358 b 129 268 18 308 68 268 l 536 268 b 647 358 597 268 647 308 l 647 582 b 536 672 647 632 597 672 z m 624 358 b 536 288 624 319 585 288 l 129 288 b 42 358 82 288 42 319 l 42 582 b 129 653 42 621 82 653 l 536 653 b 624 582 585 653 624 621 l 624 358 z m 171 508 l 215 508 l 215 529 l 171 529 l 171 544 l 221 544 l 221 565 l 136 565 l 136 481 l 171 481 l 171 508 z m 268 503 l 278 503 l 296 481 l 333 481 l 311 507 b 331 533 324 513 331 521 b 283 565 331 553 313 565 l 232 565 l 232 481 l 268 481 l 268 503 z m 268 543 l 281 543 b 296 533 290 543 296 540 b 281 524 296 528 290 524 l 268 524 l 268 543 z m 432 503 l 379 503 l 379 514 l 424 514 l 424 535 l 379 535 l 379 544 l 431 544 l 431 565 l 344 565 l 344 481 l 432 481 l 432 503 z m 533 503 l 481 503 l 481 514 l 525 514 l 525 535 l 481 535 l 481 544 l 532 544 l 532 565 l 446 565 l 446 481 l 533 481 l 533 503 z m 156 396 l 142 425 l 119 425 l 146 376 l 165 376 l 192 425 l 171 425 l 156 396 z m 214 394 l 240 394 l 240 407 l 214 407 l 214 413 l 243 413 l 243 425 l 193 425 l 193 376 l 244 376 l 244 389 l 214 389 l 214 394 z m 310 407 b 282 425 310 418 300 425 l 253 425 l 253 376 l 274 376 l 274 389 l 279 389 l 289 376 l 311 376 l 299 392 b 310 407 306 394 310 400 z m 281 401 l 274 401 l 274 413 l 281 413 b 289 407 286 413 289 410 b 281 401 289 403 286 401 z m 336 411 b 343 414 336 413 338 414 b 361 410 349 414 354 413 l 367 422 b 343 426 361 425 351 426 b 315 410 325 426 315 419 b 349 390 315 392 349 396 b 342 388 349 389 347 388 b 321 392 335 388 326 389 l 314 379 b 340 375 321 376 331 375 b 369 392 360 375 369 382 b 336 411 369 410 336 404 z m 375 376 l 396 376 l 396 425 l 375 425 l 375 376 z m 439 426 b 404 400 418 426 404 415 b 439 375 404 386 418 375 b 474 400 458 375 474 386 b 439 426 474 415 458 426 z m 439 388 b 425 400 431 388 425 393 b 439 413 425 408 431 413 b 453 400 446 413 453 408 b 439 388 453 393 446 388 z m 521 403 l 497 425 l 481 425 l 481 376 l 501 376 l 501 399 l 524 376 l 542 376 l 542 425 l 521 425 l 521 403 z "},"":{"ha":663,"x_min":0,"x_max":0,"o":"m 536 672 l 129 672 b 18 582 68 672 18 632 l 18 358 b 129 268 18 308 68 268 l 536 268 b 647 358 597 268 647 308 l 647 582 b 536 672 647 632 597 672 z m 624 358 b 536 288 624 319 585 288 l 129 288 b 42 358 82 288 42 319 l 42 582 b 129 653 42 621 82 653 l 536 653 b 624 582 585 653 624 621 l 624 358 z m 171 508 l 215 508 l 215 529 l 171 529 l 171 544 l 221 544 l 221 565 l 136 565 l 136 481 l 171 481 l 171 508 z m 268 503 l 278 503 l 296 481 l 333 481 l 311 507 b 331 533 324 513 331 521 b 283 565 331 553 313 565 l 232 565 l 232 481 l 268 481 l 268 503 z m 268 543 l 281 543 b 296 533 290 543 296 540 b 281 524 296 528 290 524 l 268 524 l 268 543 z m 432 503 l 379 503 l 379 514 l 424 514 l 424 535 l 379 535 l 379 544 l 431 544 l 431 565 l 344 565 l 344 481 l 432 481 l 432 503 z m 533 503 l 481 503 l 481 514 l 525 514 l 525 535 l 481 535 l 481 544 l 532 544 l 532 565 l 446 565 l 446 481 l 533 481 l 533 503 z m 156 396 l 142 425 l 119 425 l 146 376 l 165 376 l 192 425 l 171 425 l 156 396 z m 214 394 l 240 394 l 240 407 l 214 407 l 214 413 l 243 413 l 243 425 l 193 425 l 193 376 l 244 376 l 244 389 l 214 389 l 214 394 z m 310 407 b 282 425 310 418 300 425 l 253 425 l 253 376 l 274 376 l 274 389 l 279 389 l 289 376 l 311 376 l 299 392 b 310 407 306 394 310 400 z m 281 401 l 274 401 l 274 413 l 281 413 b 289 407 286 413 289 410 b 281 401 289 403 286 401 z m 336 411 b 343 414 336 413 338 414 b 361 410 349 414 354 413 l 367 422 b 343 426 361 425 351 426 b 315 410 325 426 315 419 b 349 390 315 392 349 396 b 342 388 349 389 347 388 b 321 392 335 388 326 389 l 314 379 b 340 375 321 376 331 375 b 369 392 360 375 369 382 b 336 411 369 410 336 404 z m 375 376 l 396 376 l 396 425 l 375 425 l 375 376 z m 439 426 b 404 400 418 426 404 415 b 439 375 404 386 418 375 b 474 400 458 375 474 386 b 439 426 474 415 458 426 z m 439 388 b 425 400 431 388 425 393 b 439 413 425 408 431 413 b 453 400 446 413 453 408 b 439 388 453 393 446 388 z m 521 403 l 497 425 l 481 425 l 481 376 l 501 376 l 501 399 l 524 376 l 542 376 l 542 425 l 521 425 l 521 403 z "},"":{"ha":663,"x_min":0,"x_max":0,"o":"m 536 672 l 129 672 b 18 582 68 672 18 632 l 18 358 b 129 268 18 308 68 268 l 536 268 b 647 358 597 268 647 308 l 647 582 b 536 672 647 632 597 672 z m 624 358 b 536 288 624 319 585 288 l 129 288 b 42 358 82 288 42 319 l 42 582 b 129 653 42 621 82 653 l 536 653 b 624 582 585 653 624 621 l 624 358 z m 171 508 l 215 508 l 215 529 l 171 529 l 171 544 l 221 544 l 221 565 l 136 565 l 136 481 l 171 481 l 171 508 z m 268 503 l 278 503 l 296 481 l 333 481 l 311 507 b 331 533 324 513 331 521 b 283 565 331 553 313 565 l 232 565 l 232 481 l 268 481 l 268 503 z m 268 543 l 281 543 b 296 533 290 543 296 540 b 281 524 296 528 290 524 l 268 524 l 268 543 z m 432 503 l 379 503 l 379 514 l 424 514 l 424 535 l 379 535 l 379 544 l 431 544 l 431 565 l 344 565 l 344 481 l 432 481 l 432 503 z m 533 503 l 481 503 l 481 514 l 525 514 l 525 535 l 481 535 l 481 544 l 532 544 l 532 565 l 446 565 l 446 481 l 533 481 l 533 503 z m 156 396 l 142 425 l 119 425 l 146 376 l 165 376 l 192 425 l 171 425 l 156 396 z m 214 394 l 240 394 l 240 407 l 214 407 l 214 413 l 243 413 l 243 425 l 193 425 l 193 376 l 244 376 l 244 389 l 214 389 l 214 394 z m 310 407 b 282 425 310 418 300 425 l 253 425 l 253 376 l 274 376 l 274 389 l 279 389 l 289 376 l 311 376 l 299 392 b 310 407 306 394 310 400 z m 281 401 l 274 401 l 274 413 l 281 413 b 289 407 286 413 289 410 b 281 401 289 403 286 401 z m 336 411 b 343 414 336 413 338 414 b 361 410 349 414 354 413 l 367 422 b 343 426 361 425 351 426 b 315 410 325 426 315 419 b 349 390 315 392 349 396 b 342 388 349 389 347 388 b 321 392 335 388 326 389 l 314 379 b 340 375 321 376 331 375 b 369 392 360 375 369 382 b 336 411 369 410 336 404 z m 375 376 l 396 376 l 396 425 l 375 425 l 375 376 z m 439 426 b 404 400 418 426 404 415 b 439 375 404 386 418 375 b 474 400 458 375 474 386 b 439 426 474 415 458 426 z m 439 388 b 425 400 431 388 425 393 b 439 413 425 408 431 413 b 453 400 446 413 453 408 b 439 388 453 393 446 388 z m 521 403 l 497 425 l 481 425 l 481 376 l 501 376 l 501 399 l 524 376 l 542 376 l 542 425 l 521 425 l 521 403 z "},"":{"ha":663,"x_min":0,"x_max":0,"o":"m 536 672 l 129 672 b 18 582 68 672 18 632 l 18 358 b 129 268 18 308 68 268 l 536 268 b 647 358 597 268 647 308 l 647 582 b 536 672 647 632 597 672 z m 624 358 b 536 288 624 319 585 288 l 129 288 b 42 358 82 288 42 319 l 42 582 b 129 653 42 621 82 653 l 536 653 b 624 582 585 653 624 621 l 624 358 z m 171 508 l 215 508 l 215 529 l 171 529 l 171 544 l 221 544 l 221 565 l 136 565 l 136 481 l 171 481 l 171 508 z m 268 503 l 278 503 l 296 481 l 333 481 l 311 507 b 331 533 324 513 331 521 b 283 565 331 553 313 565 l 232 565 l 232 481 l 268 481 l 268 503 z m 268 543 l 281 543 b 296 533 290 543 296 540 b 281 524 296 528 290 524 l 268 524 l 268 543 z m 432 503 l 379 503 l 379 514 l 424 514 l 424 535 l 379 535 l 379 544 l 431 544 l 431 565 l 344 565 l 344 481 l 432 481 l 432 503 z m 533 503 l 481 503 l 481 514 l 525 514 l 525 535 l 481 535 l 481 544 l 532 544 l 532 565 l 446 565 l 446 481 l 533 481 l 533 503 z m 156 396 l 142 425 l 119 425 l 146 376 l 165 376 l 192 425 l 171 425 l 156 396 z m 214 394 l 240 394 l 240 407 l 214 407 l 214 413 l 243 413 l 243 425 l 193 425 l 193 376 l 244 376 l 244 389 l 214 389 l 214 394 z m 310 407 b 282 425 310 418 300 425 l 253 425 l 253 376 l 274 376 l 274 389 l 279 389 l 289 376 l 311 376 l 299 392 b 310 407 306 394 310 400 z m 281 401 l 274 401 l 274 413 l 281 413 b 289 407 286 413 289 410 b 281 401 289 403 286 401 z m 336 411 b 343 414 336 413 338 414 b 361 410 349 414 354 413 l 367 422 b 343 426 361 425 351 426 b 315 410 325 426 315 419 b 349 390 315 392 349 396 b 342 388 349 389 347 388 b 321 392 335 388 326 389 l 314 379 b 340 375 321 376 331 375 b 369 392 360 375 369 382 b 336 411 369 410 336 404 z m 375 376 l 396 376 l 396 425 l 375 425 l 375 376 z m 439 426 b 404 400 418 426 404 415 b 439 375 404 386 418 375 b 474 400 458 375 474 386 b 439 426 474 415 458 426 z m 439 388 b 425 400 431 388 425 393 b 439 413 425 408 431 413 b 453 400 446 413 453 408 b 439 388 453 393 446 388 z m 521 403 l 497 425 l 481 425 l 481 376 l 501 376 l 501 399 l 524 376 l 542 376 l 542 425 l 521 425 l 521 403 z "},"":{"ha":663,"x_min":0,"x_max":0,"o":"m 536 672 l 129 672 b 18 582 68 672 18 632 l 18 358 b 129 268 18 308 68 268 l 536 268 b 647 358 597 268 647 308 l 647 582 b 536 672 647 632 597 672 z m 624 358 b 536 288 624 319 585 288 l 129 288 b 42 358 82 288 42 319 l 42 582 b 129 653 42 621 82 653 l 536 653 b 624 582 585 653 624 621 l 624 358 z m 171 508 l 215 508 l 215 529 l 171 529 l 171 544 l 221 544 l 221 565 l 136 565 l 136 481 l 171 481 l 171 508 z m 268 503 l 278 503 l 296 481 l 333 481 l 311 507 b 331 533 324 513 331 521 b 283 565 331 553 313 565 l 232 565 l 232 481 l 268 481 l 268 503 z m 268 543 l 281 543 b 296 533 290 543 296 540 b 281 524 296 528 290 524 l 268 524 l 268 543 z m 432 503 l 379 503 l 379 514 l 424 514 l 424 535 l 379 535 l 379 544 l 431 544 l 431 565 l 344 565 l 344 481 l 432 481 l 432 503 z m 533 503 l 481 503 l 481 514 l 525 514 l 525 535 l 481 535 l 481 544 l 532 544 l 532 565 l 446 565 l 446 481 l 533 481 l 533 503 z m 156 396 l 142 425 l 119 425 l 146 376 l 165 376 l 192 425 l 171 425 l 156 396 z m 214 394 l 240 394 l 240 407 l 214 407 l 214 413 l 243 413 l 243 425 l 193 425 l 193 376 l 244 376 l 244 389 l 214 389 l 214 394 z m 310 407 b 282 425 310 418 300 425 l 253 425 l 253 376 l 274 376 l 274 389 l 279 389 l 289 376 l 311 376 l 299 392 b 310 407 306 394 310 400 z m 281 401 l 274 401 l 274 413 l 281 413 b 289 407 286 413 289 410 b 281 401 289 403 286 401 z m 336 411 b 343 414 336 413 338 414 b 361 410 349 414 354 413 l 367 422 b 343 426 361 425 351 426 b 315 410 325 426 315 419 b 349 390 315 392 349 396 b 342 388 349 389 347 388 b 321 392 335 388 326 389 l 314 379 b 340 375 321 376 331 375 b 369 392 360 375 369 382 b 336 411 369 410 336 404 z m 375 376 l 396 376 l 396 425 l 375 425 l 375 376 z m 439 426 b 404 400 418 426 404 415 b 439 375 404 386 418 375 b 474 400 458 375 474 386 b 439 426 474 415 458 426 z m 439 388 b 425 400 431 388 425 393 b 439 413 425 408 431 413 b 453 400 446 413 453 408 b 439 388 453 393 446 388 z m 521 403 l 497 425 l 481 425 l 481 376 l 501 376 l 501 399 l 524 376 l 542 376 l 542 425 l 521 425 l 521 403 z "},"":{"ha":663,"x_min":0,"x_max":0,"o":"m 536 672 l 129 672 b 18 582 68 672 18 632 l 18 358 b 129 268 18 308 68 268 l 536 268 b 647 358 597 268 647 308 l 647 582 b 536 672 647 632 597 672 z m 624 358 b 536 288 624 319 585 288 l 129 288 b 42 358 82 288 42 319 l 42 582 b 129 653 42 621 82 653 l 536 653 b 624 582 585 653 624 621 l 624 358 z m 171 508 l 215 508 l 215 529 l 171 529 l 171 544 l 221 544 l 221 565 l 136 565 l 136 481 l 171 481 l 171 508 z m 268 503 l 278 503 l 296 481 l 333 481 l 311 507 b 331 533 324 513 331 521 b 283 565 331 553 313 565 l 232 565 l 232 481 l 268 481 l 268 503 z m 268 543 l 281 543 b 296 533 290 543 296 540 b 281 524 296 528 290 524 l 268 524 l 268 543 z m 432 503 l 379 503 l 379 514 l 424 514 l 424 535 l 379 535 l 379 544 l 431 544 l 431 565 l 344 565 l 344 481 l 432 481 l 432 503 z m 533 503 l 481 503 l 481 514 l 525 514 l 525 535 l 481 535 l 481 544 l 532 544 l 532 565 l 446 565 l 446 481 l 533 481 l 533 503 z m 156 396 l 142 425 l 119 425 l 146 376 l 165 376 l 192 425 l 171 425 l 156 396 z m 214 394 l 240 394 l 240 407 l 214 407 l 214 413 l 243 413 l 243 425 l 193 425 l 193 376 l 244 376 l 244 389 l 214 389 l 214 394 z m 310 407 b 282 425 310 418 300 425 l 253 425 l 253 376 l 274 376 l 274 389 l 279 389 l 289 376 l 311 376 l 299 392 b 310 407 306 394 310 400 z m 281 401 l 274 401 l 274 413 l 281 413 b 289 407 286 413 289 410 b 281 401 289 403 286 401 z m 336 411 b 343 414 336 413 338 414 b 361 410 349 414 354 413 l 367 422 b 343 426 361 425 351 426 b 315 410 325 426 315 419 b 349 390 315 392 349 396 b 342 388 349 389 347 388 b 321 392 335 388 326 389 l 314 379 b 340 375 321 376 331 375 b 369 392 360 375 369 382 b 336 411 369 410 336 404 z m 375 376 l 396 376 l 396 425 l 375 425 l 375 376 z m 439 426 b 404 400 418 426 404 415 b 439 375 404 386 418 375 b 474 400 458 375 474 386 b 439 426 474 415 458 426 z m 439 388 b 425 400 431 388 425 393 b 439 413 425 408 431 413 b 453 400 446 413 453 408 b 439 388 453 393 446 388 z m 521 403 l 497 425 l 481 425 l 481 376 l 501 376 l 501 399 l 524 376 l 542 376 l 542 425 l 521 425 l 521 403 z "},"":{"ha":663,"x_min":0,"x_max":0,"o":"m 536 672 l 129 672 b 18 582 68 672 18 632 l 18 358 b 129 268 18 308 68 268 l 536 268 b 647 358 597 268 647 308 l 647 582 b 536 672 647 632 597 672 z m 624 358 b 536 288 624 319 585 288 l 129 288 b 42 358 82 288 42 319 l 42 582 b 129 653 42 621 82 653 l 536 653 b 624 582 585 653 624 621 l 624 358 z m 171 508 l 215 508 l 215 529 l 171 529 l 171 544 l 221 544 l 221 565 l 136 565 l 136 481 l 171 481 l 171 508 z m 268 503 l 278 503 l 296 481 l 333 481 l 311 507 b 331 533 324 513 331 521 b 283 565 331 553 313 565 l 232 565 l 232 481 l 268 481 l 268 503 z m 268 543 l 281 543 b 296 533 290 543 296 540 b 281 524 296 528 290 524 l 268 524 l 268 543 z m 432 503 l 379 503 l 379 514 l 424 514 l 424 535 l 379 535 l 379 544 l 431 544 l 431 565 l 344 565 l 344 481 l 432 481 l 432 503 z m 533 503 l 481 503 l 481 514 l 525 514 l 525 535 l 481 535 l 481 544 l 532 544 l 532 565 l 446 565 l 446 481 l 533 481 l 533 503 z m 156 396 l 142 425 l 119 425 l 146 376 l 165 376 l 192 425 l 171 425 l 156 396 z m 214 394 l 240 394 l 240 407 l 214 407 l 214 413 l 243 413 l 243 425 l 193 425 l 193 376 l 244 376 l 244 389 l 214 389 l 214 394 z m 310 407 b 282 425 310 418 300 425 l 253 425 l 253 376 l 274 376 l 274 389 l 279 389 l 289 376 l 311 376 l 299 392 b 310 407 306 394 310 400 z m 281 401 l 274 401 l 274 413 l 281 413 b 289 407 286 413 289 410 b 281 401 289 403 286 401 z m 336 411 b 343 414 336 413 338 414 b 361 410 349 414 354 413 l 367 422 b 343 426 361 425 351 426 b 315 410 325 426 315 419 b 349 390 315 392 349 396 b 342 388 349 389 347 388 b 321 392 335 388 326 389 l 314 379 b 340 375 321 376 331 375 b 369 392 360 375 369 382 b 336 411 369 410 336 404 z m 375 376 l 396 376 l 396 425 l 375 425 l 375 376 z m 439 426 b 404 400 418 426 404 415 b 439 375 404 386 418 375 b 474 400 458 375 474 386 b 439 426 474 415 458 426 z m 439 388 b 425 400 431 388 425 393 b 439 413 425 408 431 413 b 453 400 446 413 453 408 b 439 388 453 393 446 388 z m 521 403 l 497 425 l 481 425 l 481 376 l 501 376 l 501 399 l 524 376 l 542 376 l 542 425 l 521 425 l 521 403 z "},"":{"ha":663,"x_min":0,"x_max":0,"o":"m 536 672 l 129 672 b 18 582 68 672 18 632 l 18 358 b 129 268 18 308 68 268 l 536 268 b 647 358 597 268 647 308 l 647 582 b 536 672 647 632 597 672 z m 624 358 b 536 288 624 319 585 288 l 129 288 b 42 358 82 288 42 319 l 42 582 b 129 653 42 621 82 653 l 536 653 b 624 582 585 653 624 621 l 624 358 z m 171 508 l 215 508 l 215 529 l 171 529 l 171 544 l 221 544 l 221 565 l 136 565 l 136 481 l 171 481 l 171 508 z m 268 503 l 278 503 l 296 481 l 333 481 l 311 507 b 331 533 324 513 331 521 b 283 565 331 553 313 565 l 232 565 l 232 481 l 268 481 l 268 503 z m 268 543 l 281 543 b 296 533 290 543 296 540 b 281 524 296 528 290 524 l 268 524 l 268 543 z m 432 503 l 379 503 l 379 514 l 424 514 l 424 535 l 379 535 l 379 544 l 431 544 l 431 565 l 344 565 l 344 481 l 432 481 l 432 503 z m 533 503 l 481 503 l 481 514 l 525 514 l 525 535 l 481 535 l 481 544 l 532 544 l 532 565 l 446 565 l 446 481 l 533 481 l 533 503 z m 156 396 l 142 425 l 119 425 l 146 376 l 165 376 l 192 425 l 171 425 l 156 396 z m 214 394 l 240 394 l 240 407 l 214 407 l 214 413 l 243 413 l 243 425 l 193 425 l 193 376 l 244 376 l 244 389 l 214 389 l 214 394 z m 310 407 b 282 425 310 418 300 425 l 253 425 l 253 376 l 274 376 l 274 389 l 279 389 l 289 376 l 311 376 l 299 392 b 310 407 306 394 310 400 z m 281 401 l 274 401 l 274 413 l 281 413 b 289 407 286 413 289 410 b 281 401 289 403 286 401 z m 336 411 b 343 414 336 413 338 414 b 361 410 349 414 354 413 l 367 422 b 343 426 361 425 351 426 b 315 410 325 426 315 419 b 349 390 315 392 349 396 b 342 388 349 389 347 388 b 321 392 335 388 326 389 l 314 379 b 340 375 321 376 331 375 b 369 392 360 375 369 382 b 336 411 369 410 336 404 z m 375 376 l 396 376 l 396 425 l 375 425 l 375 376 z m 439 426 b 404 400 418 426 404 415 b 439 375 404 386 418 375 b 474 400 458 375 474 386 b 439 426 474 415 458 426 z m 439 388 b 425 400 431 388 425 393 b 439 413 425 408 431 413 b 453 400 446 413 453 408 b 439 388 453 393 446 388 z m 521 403 l 497 425 l 481 425 l 481 376 l 501 376 l 501 399 l 524 376 l 542 376 l 542 425 l 521 425 l 521 403 z "},"":{"ha":663,"x_min":0,"x_max":0,"o":"m 536 672 l 129 672 b 18 582 68 672 18 632 l 18 358 b 129 268 18 308 68 268 l 536 268 b 647 358 597 268 647 308 l 647 582 b 536 672 647 632 597 672 z m 624 358 b 536 288 624 319 585 288 l 129 288 b 42 358 82 288 42 319 l 42 582 b 129 653 42 621 82 653 l 536 653 b 624 582 585 653 624 621 l 624 358 z m 171 508 l 215 508 l 215 529 l 171 529 l 171 544 l 221 544 l 221 565 l 136 565 l 136 481 l 171 481 l 171 508 z m 268 503 l 278 503 l 296 481 l 333 481 l 311 507 b 331 533 324 513 331 521 b 283 565 331 553 313 565 l 232 565 l 232 481 l 268 481 l 268 503 z m 268 543 l 281 543 b 296 533 290 543 296 540 b 281 524 296 528 290 524 l 268 524 l 268 543 z m 432 503 l 379 503 l 379 514 l 424 514 l 424 535 l 379 535 l 379 544 l 431 544 l 431 565 l 344 565 l 344 481 l 432 481 l 432 503 z m 533 503 l 481 503 l 481 514 l 525 514 l 525 535 l 481 535 l 481 544 l 532 544 l 532 565 l 446 565 l 446 481 l 533 481 l 533 503 z m 156 396 l 142 425 l 119 425 l 146 376 l 165 376 l 192 425 l 171 425 l 156 396 z m 214 394 l 240 394 l 240 407 l 214 407 l 214 413 l 243 413 l 243 425 l 193 425 l 193 376 l 244 376 l 244 389 l 214 389 l 214 394 z m 310 407 b 282 425 310 418 300 425 l 253 425 l 253 376 l 274 376 l 274 389 l 279 389 l 289 376 l 311 376 l 299 392 b 310 407 306 394 310 400 z m 281 401 l 274 401 l 274 413 l 281 413 b 289 407 286 413 289 410 b 281 401 289 403 286 401 z m 336 411 b 343 414 336 413 338 414 b 361 410 349 414 354 413 l 367 422 b 343 426 361 425 351 426 b 315 410 325 426 315 419 b 349 390 315 392 349 396 b 342 388 349 389 347 388 b 321 392 335 388 326 389 l 314 379 b 340 375 321 376 331 375 b 369 392 360 375 369 382 b 336 411 369 410 336 404 z m 375 376 l 396 376 l 396 425 l 375 425 l 375 376 z m 439 426 b 404 400 418 426 404 415 b 439 375 404 386 418 375 b 474 400 458 375 474 386 b 439 426 474 415 458 426 z m 439 388 b 425 400 431 388 425 393 b 439 413 425 408 431 413 b 453 400 446 413 453 408 b 439 388 453 393 446 388 z m 521 403 l 497 425 l 481 425 l 481 376 l 501 376 l 501 399 l 524 376 l 542 376 l 542 425 l 521 425 l 521 403 z "},"":{"ha":663,"x_min":0,"x_max":0,"o":"m 536 672 l 129 672 b 18 582 68 672 18 632 l 18 358 b 129 268 18 308 68 268 l 536 268 b 647 358 597 268 647 308 l 647 582 b 536 672 647 632 597 672 z m 624 358 b 536 288 624 319 585 288 l 129 288 b 42 358 82 288 42 319 l 42 582 b 129 653 42 621 82 653 l 536 653 b 624 582 585 653 624 621 l 624 358 z m 171 508 l 215 508 l 215 529 l 171 529 l 171 544 l 221 544 l 221 565 l 136 565 l 136 481 l 171 481 l 171 508 z m 268 503 l 278 503 l 296 481 l 333 481 l 311 507 b 331 533 324 513 331 521 b 283 565 331 553 313 565 l 232 565 l 232 481 l 268 481 l 268 503 z m 268 543 l 281 543 b 296 533 290 543 296 540 b 281 524 296 528 290 524 l 268 524 l 268 543 z m 432 503 l 379 503 l 379 514 l 424 514 l 424 535 l 379 535 l 379 544 l 431 544 l 431 565 l 344 565 l 344 481 l 432 481 l 432 503 z m 533 503 l 481 503 l 481 514 l 525 514 l 525 535 l 481 535 l 481 544 l 532 544 l 532 565 l 446 565 l 446 481 l 533 481 l 533 503 z m 156 396 l 142 425 l 119 425 l 146 376 l 165 376 l 192 425 l 171 425 l 156 396 z m 214 394 l 240 394 l 240 407 l 214 407 l 214 413 l 243 413 l 243 425 l 193 425 l 193 376 l 244 376 l 244 389 l 214 389 l 214 394 z m 310 407 b 282 425 310 418 300 425 l 253 425 l 253 376 l 274 376 l 274 389 l 279 389 l 289 376 l 311 376 l 299 392 b 310 407 306 394 310 400 z m 281 401 l 274 401 l 274 413 l 281 413 b 289 407 286 413 289 410 b 281 401 289 403 286 401 z m 336 411 b 343 414 336 413 338 414 b 361 410 349 414 354 413 l 367 422 b 343 426 361 425 351 426 b 315 410 325 426 315 419 b 349 390 315 392 349 396 b 342 388 349 389 347 388 b 321 392 335 388 326 389 l 314 379 b 340 375 321 376 331 375 b 369 392 360 375 369 382 b 336 411 369 410 336 404 z m 375 376 l 396 376 l 396 425 l 375 425 l 375 376 z m 439 426 b 404 400 418 426 404 415 b 439 375 404 386 418 375 b 474 400 458 375 474 386 b 439 426 474 415 458 426 z m 439 388 b 425 400 431 388 425 393 b 439 413 425 408 431 413 b 453 400 446 413 453 408 b 439 388 453 393 446 388 z m 521 403 l 497 425 l 481 425 l 481 376 l 501 376 l 501 399 l 524 376 l 542 376 l 542 425 l 521 425 l 521 403 z "},"":{"ha":663,"x_min":0,"x_max":0,"o":"m 536 672 l 129 672 b 18 582 68 672 18 632 l 18 358 b 129 268 18 308 68 268 l 536 268 b 647 358 597 268 647 308 l 647 582 b 536 672 647 632 597 672 z m 624 358 b 536 288 624 319 585 288 l 129 288 b 42 358 82 288 42 319 l 42 582 b 129 653 42 621 82 653 l 536 653 b 624 582 585 653 624 621 l 624 358 z m 171 508 l 215 508 l 215 529 l 171 529 l 171 544 l 221 544 l 221 565 l 136 565 l 136 481 l 171 481 l 171 508 z m 268 503 l 278 503 l 296 481 l 333 481 l 311 507 b 331 533 324 513 331 521 b 283 565 331 553 313 565 l 232 565 l 232 481 l 268 481 l 268 503 z m 268 543 l 281 543 b 296 533 290 543 296 540 b 281 524 296 528 290 524 l 268 524 l 268 543 z m 432 503 l 379 503 l 379 514 l 424 514 l 424 535 l 379 535 l 379 544 l 431 544 l 431 565 l 344 565 l 344 481 l 432 481 l 432 503 z m 533 503 l 481 503 l 481 514 l 525 514 l 525 535 l 481 535 l 481 544 l 532 544 l 532 565 l 446 565 l 446 481 l 533 481 l 533 503 z m 156 396 l 142 425 l 119 425 l 146 376 l 165 376 l 192 425 l 171 425 l 156 396 z m 214 394 l 240 394 l 240 407 l 214 407 l 214 413 l 243 413 l 243 425 l 193 425 l 193 376 l 244 376 l 244 389 l 214 389 l 214 394 z m 310 407 b 282 425 310 418 300 425 l 253 425 l 253 376 l 274 376 l 274 389 l 279 389 l 289 376 l 311 376 l 299 392 b 310 407 306 394 310 400 z m 281 401 l 274 401 l 274 413 l 281 413 b 289 407 286 413 289 410 b 281 401 289 403 286 401 z m 336 411 b 343 414 336 413 338 414 b 361 410 349 414 354 413 l 367 422 b 343 426 361 425 351 426 b 315 410 325 426 315 419 b 349 390 315 392 349 396 b 342 388 349 389 347 388 b 321 392 335 388 326 389 l 314 379 b 340 375 321 376 331 375 b 369 392 360 375 369 382 b 336 411 369 410 336 404 z m 375 376 l 396 376 l 396 425 l 375 425 l 375 376 z m 439 426 b 404 400 418 426 404 415 b 439 375 404 386 418 375 b 474 400 458 375 474 386 b 439 426 474 415 458 426 z m 439 388 b 425 400 431 388 425 393 b 439 413 425 408 431 413 b 453 400 446 413 453 408 b 439 388 453 393 446 388 z m 521 403 l 497 425 l 481 425 l 481 376 l 501 376 l 501 399 l 524 376 l 542 376 l 542 425 l 521 425 l 521 403 z "},"":{"ha":663,"x_min":0,"x_max":0,"o":"m 536 672 l 129 672 b 18 582 68 672 18 632 l 18 358 b 129 268 18 308 68 268 l 536 268 b 647 358 597 268 647 308 l 647 582 b 536 672 647 632 597 672 z m 624 358 b 536 288 624 319 585 288 l 129 288 b 42 358 82 288 42 319 l 42 582 b 129 653 42 621 82 653 l 536 653 b 624 582 585 653 624 621 l 624 358 z m 171 508 l 215 508 l 215 529 l 171 529 l 171 544 l 221 544 l 221 565 l 136 565 l 136 481 l 171 481 l 171 508 z m 268 503 l 278 503 l 296 481 l 333 481 l 311 507 b 331 533 324 513 331 521 b 283 565 331 553 313 565 l 232 565 l 232 481 l 268 481 l 268 503 z m 268 543 l 281 543 b 296 533 290 543 296 540 b 281 524 296 528 290 524 l 268 524 l 268 543 z m 432 503 l 379 503 l 379 514 l 424 514 l 424 535 l 379 535 l 379 544 l 431 544 l 431 565 l 344 565 l 344 481 l 432 481 l 432 503 z m 533 503 l 481 503 l 481 514 l 525 514 l 525 535 l 481 535 l 481 544 l 532 544 l 532 565 l 446 565 l 446 481 l 533 481 l 533 503 z m 156 396 l 142 425 l 119 425 l 146 376 l 165 376 l 192 425 l 171 425 l 156 396 z m 214 394 l 240 394 l 240 407 l 214 407 l 214 413 l 243 413 l 243 425 l 193 425 l 193 376 l 244 376 l 244 389 l 214 389 l 214 394 z m 310 407 b 282 425 310 418 300 425 l 253 425 l 253 376 l 274 376 l 274 389 l 279 389 l 289 376 l 311 376 l 299 392 b 310 407 306 394 310 400 z m 281 401 l 274 401 l 274 413 l 281 413 b 289 407 286 413 289 410 b 281 401 289 403 286 401 z m 336 411 b 343 414 336 413 338 414 b 361 410 349 414 354 413 l 367 422 b 343 426 361 425 351 426 b 315 410 325 426 315 419 b 349 390 315 392 349 396 b 342 388 349 389 347 388 b 321 392 335 388 326 389 l 314 379 b 340 375 321 376 331 375 b 369 392 360 375 369 382 b 336 411 369 410 336 404 z m 375 376 l 396 376 l 396 425 l 375 425 l 375 376 z m 439 426 b 404 400 418 426 404 415 b 439 375 404 386 418 375 b 474 400 458 375 474 386 b 439 426 474 415 458 426 z m 439 388 b 425 400 431 388 425 393 b 439 413 425 408 431 413 b 453 400 446 413 453 408 b 439 388 453 393 446 388 z m 521 403 l 497 425 l 481 425 l 481 376 l 501 376 l 501 399 l 524 376 l 542 376 l 542 425 l 521 425 l 521 403 z "},"":{"ha":663,"x_min":0,"x_max":0,"o":"m 536 672 l 129 672 b 18 582 68 672 18 632 l 18 358 b 129 268 18 308 68 268 l 536 268 b 647 358 597 268 647 308 l 647 582 b 536 672 647 632 597 672 z m 624 358 b 536 288 624 319 585 288 l 129 288 b 42 358 82 288 42 319 l 42 582 b 129 653 42 621 82 653 l 536 653 b 624 582 585 653 624 621 l 624 358 z m 171 508 l 215 508 l 215 529 l 171 529 l 171 544 l 221 544 l 221 565 l 136 565 l 136 481 l 171 481 l 171 508 z m 268 503 l 278 503 l 296 481 l 333 481 l 311 507 b 331 533 324 513 331 521 b 283 565 331 553 313 565 l 232 565 l 232 481 l 268 481 l 268 503 z m 268 543 l 281 543 b 296 533 290 543 296 540 b 281 524 296 528 290 524 l 268 524 l 268 543 z m 432 503 l 379 503 l 379 514 l 424 514 l 424 535 l 379 535 l 379 544 l 431 544 l 431 565 l 344 565 l 344 481 l 432 481 l 432 503 z m 533 503 l 481 503 l 481 514 l 525 514 l 525 535 l 481 535 l 481 544 l 532 544 l 532 565 l 446 565 l 446 481 l 533 481 l 533 503 z m 156 396 l 142 425 l 119 425 l 146 376 l 165 376 l 192 425 l 171 425 l 156 396 z m 214 394 l 240 394 l 240 407 l 214 407 l 214 413 l 243 413 l 243 425 l 193 425 l 193 376 l 244 376 l 244 389 l 214 389 l 214 394 z m 310 407 b 282 425 310 418 300 425 l 253 425 l 253 376 l 274 376 l 274 389 l 279 389 l 289 376 l 311 376 l 299 392 b 310 407 306 394 310 400 z m 281 401 l 274 401 l 274 413 l 281 413 b 289 407 286 413 289 410 b 281 401 289 403 286 401 z m 336 411 b 343 414 336 413 338 414 b 361 410 349 414 354 413 l 367 422 b 343 426 361 425 351 426 b 315 410 325 426 315 419 b 349 390 315 392 349 396 b 342 388 349 389 347 388 b 321 392 335 388 326 389 l 314 379 b 340 375 321 376 331 375 b 369 392 360 375 369 382 b 336 411 369 410 336 404 z m 375 376 l 396 376 l 396 425 l 375 425 l 375 376 z m 439 426 b 404 400 418 426 404 415 b 439 375 404 386 418 375 b 474 400 458 375 474 386 b 439 426 474 415 458 426 z m 439 388 b 425 400 431 388 425 393 b 439 413 425 408 431 413 b 453 400 446 413 453 408 b 439 388 453 393 446 388 z m 521 403 l 497 425 l 481 425 l 481 376 l 501 376 l 501 399 l 524 376 l 542 376 l 542 425 l 521 425 l 521 403 z "},"":{"ha":663,"x_min":0,"x_max":0,"o":"m 536 672 l 129 672 b 18 582 68 672 18 632 l 18 358 b 129 268 18 308 68 268 l 536 268 b 647 358 597 268 647 308 l 647 582 b 536 672 647 632 597 672 z m 624 358 b 536 288 624 319 585 288 l 129 288 b 42 358 82 288 42 319 l 42 582 b 129 653 42 621 82 653 l 536 653 b 624 582 585 653 624 621 l 624 358 z m 171 508 l 215 508 l 215 529 l 171 529 l 171 544 l 221 544 l 221 565 l 136 565 l 136 481 l 171 481 l 171 508 z m 268 503 l 278 503 l 296 481 l 333 481 l 311 507 b 331 533 324 513 331 521 b 283 565 331 553 313 565 l 232 565 l 232 481 l 268 481 l 268 503 z m 268 543 l 281 543 b 296 533 290 543 296 540 b 281 524 296 528 290 524 l 268 524 l 268 543 z m 432 503 l 379 503 l 379 514 l 424 514 l 424 535 l 379 535 l 379 544 l 431 544 l 431 565 l 344 565 l 344 481 l 432 481 l 432 503 z m 533 503 l 481 503 l 481 514 l 525 514 l 525 535 l 481 535 l 481 544 l 532 544 l 532 565 l 446 565 l 446 481 l 533 481 l 533 503 z m 156 396 l 142 425 l 119 425 l 146 376 l 165 376 l 192 425 l 171 425 l 156 396 z m 214 394 l 240 394 l 240 407 l 214 407 l 214 413 l 243 413 l 243 425 l 193 425 l 193 376 l 244 376 l 244 389 l 214 389 l 214 394 z m 310 407 b 282 425 310 418 300 425 l 253 425 l 253 376 l 274 376 l 274 389 l 279 389 l 289 376 l 311 376 l 299 392 b 310 407 306 394 310 400 z m 281 401 l 274 401 l 274 413 l 281 413 b 289 407 286 413 289 410 b 281 401 289 403 286 401 z m 336 411 b 343 414 336 413 338 414 b 361 410 349 414 354 413 l 367 422 b 343 426 361 425 351 426 b 315 410 325 426 315 419 b 349 390 315 392 349 396 b 342 388 349 389 347 388 b 321 392 335 388 326 389 l 314 379 b 340 375 321 376 331 375 b 369 392 360 375 369 382 b 336 411 369 410 336 404 z m 375 376 l 396 376 l 396 425 l 375 425 l 375 376 z m 439 426 b 404 400 418 426 404 415 b 439 375 404 386 418 375 b 474 400 458 375 474 386 b 439 426 474 415 458 426 z m 439 388 b 425 400 431 388 425 393 b 439 413 425 408 431 413 b 453 400 446 413 453 408 b 439 388 453 393 446 388 z m 521 403 l 497 425 l 481 425 l 481 376 l 501 376 l 501 399 l 524 376 l 542 376 l 542 425 l 521 425 l 521 403 z "},"":{"ha":663,"x_min":0,"x_max":0,"o":"m 536 672 l 129 672 b 18 582 68 672 18 632 l 18 358 b 129 268 18 308 68 268 l 536 268 b 647 358 597 268 647 308 l 647 582 b 536 672 647 632 597 672 z m 624 358 b 536 288 624 319 585 288 l 129 288 b 42 358 82 288 42 319 l 42 582 b 129 653 42 621 82 653 l 536 653 b 624 582 585 653 624 621 l 624 358 z m 171 508 l 215 508 l 215 529 l 171 529 l 171 544 l 221 544 l 221 565 l 136 565 l 136 481 l 171 481 l 171 508 z m 268 503 l 278 503 l 296 481 l 333 481 l 311 507 b 331 533 324 513 331 521 b 283 565 331 553 313 565 l 232 565 l 232 481 l 268 481 l 268 503 z m 268 543 l 281 543 b 296 533 290 543 296 540 b 281 524 296 528 290 524 l 268 524 l 268 543 z m 432 503 l 379 503 l 379 514 l 424 514 l 424 535 l 379 535 l 379 544 l 431 544 l 431 565 l 344 565 l 344 481 l 432 481 l 432 503 z m 533 503 l 481 503 l 481 514 l 525 514 l 525 535 l 481 535 l 481 544 l 532 544 l 532 565 l 446 565 l 446 481 l 533 481 l 533 503 z m 156 396 l 142 425 l 119 425 l 146 376 l 165 376 l 192 425 l 171 425 l 156 396 z m 214 394 l 240 394 l 240 407 l 214 407 l 214 413 l 243 413 l 243 425 l 193 425 l 193 376 l 244 376 l 244 389 l 214 389 l 214 394 z m 310 407 b 282 425 310 418 300 425 l 253 425 l 253 376 l 274 376 l 274 389 l 279 389 l 289 376 l 311 376 l 299 392 b 310 407 306 394 310 400 z m 281 401 l 274 401 l 274 413 l 281 413 b 289 407 286 413 289 410 b 281 401 289 403 286 401 z m 336 411 b 343 414 336 413 338 414 b 361 410 349 414 354 413 l 367 422 b 343 426 361 425 351 426 b 315 410 325 426 315 419 b 349 390 315 392 349 396 b 342 388 349 389 347 388 b 321 392 335 388 326 389 l 314 379 b 340 375 321 376 331 375 b 369 392 360 375 369 382 b 336 411 369 410 336 404 z m 375 376 l 396 376 l 396 425 l 375 425 l 375 376 z m 439 426 b 404 400 418 426 404 415 b 439 375 404 386 418 375 b 474 400 458 375 474 386 b 439 426 474 415 458 426 z m 439 388 b 425 400 431 388 425 393 b 439 413 425 408 431 413 b 453 400 446 413 453 408 b 439 388 453 393 446 388 z m 521 403 l 497 425 l 481 425 l 481 376 l 501 376 l 501 399 l 524 376 l 542 376 l 542 425 l 521 425 l 521 403 z "},"":{"ha":663,"x_min":0,"x_max":0,"o":"m 536 672 l 129 672 b 18 582 68 672 18 632 l 18 358 b 129 268 18 308 68 268 l 536 268 b 647 358 597 268 647 308 l 647 582 b 536 672 647 632 597 672 z m 624 358 b 536 288 624 319 585 288 l 129 288 b 42 358 82 288 42 319 l 42 582 b 129 653 42 621 82 653 l 536 653 b 624 582 585 653 624 621 l 624 358 z m 171 508 l 215 508 l 215 529 l 171 529 l 171 544 l 221 544 l 221 565 l 136 565 l 136 481 l 171 481 l 171 508 z m 268 503 l 278 503 l 296 481 l 333 481 l 311 507 b 331 533 324 513 331 521 b 283 565 331 553 313 565 l 232 565 l 232 481 l 268 481 l 268 503 z m 268 543 l 281 543 b 296 533 290 543 296 540 b 281 524 296 528 290 524 l 268 524 l 268 543 z m 432 503 l 379 503 l 379 514 l 424 514 l 424 535 l 379 535 l 379 544 l 431 544 l 431 565 l 344 565 l 344 481 l 432 481 l 432 503 z m 533 503 l 481 503 l 481 514 l 525 514 l 525 535 l 481 535 l 481 544 l 532 544 l 532 565 l 446 565 l 446 481 l 533 481 l 533 503 z m 156 396 l 142 425 l 119 425 l 146 376 l 165 376 l 192 425 l 171 425 l 156 396 z m 214 394 l 240 394 l 240 407 l 214 407 l 214 413 l 243 413 l 243 425 l 193 425 l 193 376 l 244 376 l 244 389 l 214 389 l 214 394 z m 310 407 b 282 425 310 418 300 425 l 253 425 l 253 376 l 274 376 l 274 389 l 279 389 l 289 376 l 311 376 l 299 392 b 310 407 306 394 310 400 z m 281 401 l 274 401 l 274 413 l 281 413 b 289 407 286 413 289 410 b 281 401 289 403 286 401 z m 336 411 b 343 414 336 413 338 414 b 361 410 349 414 354 413 l 367 422 b 343 426 361 425 351 426 b 315 410 325 426 315 419 b 349 390 315 392 349 396 b 342 388 349 389 347 388 b 321 392 335 388 326 389 l 314 379 b 340 375 321 376 331 375 b 369 392 360 375 369 382 b 336 411 369 410 336 404 z m 375 376 l 396 376 l 396 425 l 375 425 l 375 376 z m 439 426 b 404 400 418 426 404 415 b 439 375 404 386 418 375 b 474 400 458 375 474 386 b 439 426 474 415 458 426 z m 439 388 b 425 400 431 388 425 393 b 439 413 425 408 431 413 b 453 400 446 413 453 408 b 439 388 453 393 446 388 z m 521 403 l 497 425 l 481 425 l 481 376 l 501 376 l 501 399 l 524 376 l 542 376 l 542 425 l 521 425 l 521 403 z "},"":{"ha":663,"x_min":0,"x_max":0,"o":"m 536 672 l 129 672 b 18 582 68 672 18 632 l 18 358 b 129 268 18 308 68 268 l 536 268 b 647 358 597 268 647 308 l 647 582 b 536 672 647 632 597 672 z m 624 358 b 536 288 624 319 585 288 l 129 288 b 42 358 82 288 42 319 l 42 582 b 129 653 42 621 82 653 l 536 653 b 624 582 585 653 624 621 l 624 358 z m 171 508 l 215 508 l 215 529 l 171 529 l 171 544 l 221 544 l 221 565 l 136 565 l 136 481 l 171 481 l 171 508 z m 268 503 l 278 503 l 296 481 l 333 481 l 311 507 b 331 533 324 513 331 521 b 283 565 331 553 313 565 l 232 565 l 232 481 l 268 481 l 268 503 z m 268 543 l 281 543 b 296 533 290 543 296 540 b 281 524 296 528 290 524 l 268 524 l 268 543 z m 432 503 l 379 503 l 379 514 l 424 514 l 424 535 l 379 535 l 379 544 l 431 544 l 431 565 l 344 565 l 344 481 l 432 481 l 432 503 z m 533 503 l 481 503 l 481 514 l 525 514 l 525 535 l 481 535 l 481 544 l 532 544 l 532 565 l 446 565 l 446 481 l 533 481 l 533 503 z m 156 396 l 142 425 l 119 425 l 146 376 l 165 376 l 192 425 l 171 425 l 156 396 z m 214 394 l 240 394 l 240 407 l 214 407 l 214 413 l 243 413 l 243 425 l 193 425 l 193 376 l 244 376 l 244 389 l 214 389 l 214 394 z m 310 407 b 282 425 310 418 300 425 l 253 425 l 253 376 l 274 376 l 274 389 l 279 389 l 289 376 l 311 376 l 299 392 b 310 407 306 394 310 400 z m 281 401 l 274 401 l 274 413 l 281 413 b 289 407 286 413 289 410 b 281 401 289 403 286 401 z m 336 411 b 343 414 336 413 338 414 b 361 410 349 414 354 413 l 367 422 b 343 426 361 425 351 426 b 315 410 325 426 315 419 b 349 390 315 392 349 396 b 342 388 349 389 347 388 b 321 392 335 388 326 389 l 314 379 b 340 375 321 376 331 375 b 369 392 360 375 369 382 b 336 411 369 410 336 404 z m 375 376 l 396 376 l 396 425 l 375 425 l 375 376 z m 439 426 b 404 400 418 426 404 415 b 439 375 404 386 418 375 b 474 400 458 375 474 386 b 439 426 474 415 458 426 z m 439 388 b 425 400 431 388 425 393 b 439 413 425 408 431 413 b 453 400 446 413 453 408 b 439 388 453 393 446 388 z m 521 403 l 497 425 l 481 425 l 481 376 l 501 376 l 501 399 l 524 376 l 542 376 l 542 425 l 521 425 l 521 403 z "},"":{"ha":663,"x_min":0,"x_max":0,"o":"m 536 672 l 129 672 b 18 582 68 672 18 632 l 18 358 b 129 268 18 308 68 268 l 536 268 b 647 358 597 268 647 308 l 647 582 b 536 672 647 632 597 672 z m 624 358 b 536 288 624 319 585 288 l 129 288 b 42 358 82 288 42 319 l 42 582 b 129 653 42 621 82 653 l 536 653 b 624 582 585 653 624 621 l 624 358 z m 171 508 l 215 508 l 215 529 l 171 529 l 171 544 l 221 544 l 221 565 l 136 565 l 136 481 l 171 481 l 171 508 z m 268 503 l 278 503 l 296 481 l 333 481 l 311 507 b 331 533 324 513 331 521 b 283 565 331 553 313 565 l 232 565 l 232 481 l 268 481 l 268 503 z m 268 543 l 281 543 b 296 533 290 543 296 540 b 281 524 296 528 290 524 l 268 524 l 268 543 z m 432 503 l 379 503 l 379 514 l 424 514 l 424 535 l 379 535 l 379 544 l 431 544 l 431 565 l 344 565 l 344 481 l 432 481 l 432 503 z m 533 503 l 481 503 l 481 514 l 525 514 l 525 535 l 481 535 l 481 544 l 532 544 l 532 565 l 446 565 l 446 481 l 533 481 l 533 503 z m 156 396 l 142 425 l 119 425 l 146 376 l 165 376 l 192 425 l 171 425 l 156 396 z m 214 394 l 240 394 l 240 407 l 214 407 l 214 413 l 243 413 l 243 425 l 193 425 l 193 376 l 244 376 l 244 389 l 214 389 l 214 394 z m 310 407 b 282 425 310 418 300 425 l 253 425 l 253 376 l 274 376 l 274 389 l 279 389 l 289 376 l 311 376 l 299 392 b 310 407 306 394 310 400 z m 281 401 l 274 401 l 274 413 l 281 413 b 289 407 286 413 289 410 b 281 401 289 403 286 401 z m 336 411 b 343 414 336 413 338 414 b 361 410 349 414 354 413 l 367 422 b 343 426 361 425 351 426 b 315 410 325 426 315 419 b 349 390 315 392 349 396 b 342 388 349 389 347 388 b 321 392 335 388 326 389 l 314 379 b 340 375 321 376 331 375 b 369 392 360 375 369 382 b 336 411 369 410 336 404 z m 375 376 l 396 376 l 396 425 l 375 425 l 375 376 z m 439 426 b 404 400 418 426 404 415 b 439 375 404 386 418 375 b 474 400 458 375 474 386 b 439 426 474 415 458 426 z m 439 388 b 425 400 431 388 425 393 b 439 413 425 408 431 413 b 453 400 446 413 453 408 b 439 388 453 393 446 388 z m 521 403 l 497 425 l 481 425 l 481 376 l 501 376 l 501 399 l 524 376 l 542 376 l 542 425 l 521 425 l 521 403 z "},"":{"ha":663,"x_min":0,"x_max":0,"o":"m 536 672 l 129 672 b 18 582 68 672 18 632 l 18 358 b 129 268 18 308 68 268 l 536 268 b 647 358 597 268 647 308 l 647 582 b 536 672 647 632 597 672 z m 624 358 b 536 288 624 319 585 288 l 129 288 b 42 358 82 288 42 319 l 42 582 b 129 653 42 621 82 653 l 536 653 b 624 582 585 653 624 621 l 624 358 z m 171 508 l 215 508 l 215 529 l 171 529 l 171 544 l 221 544 l 221 565 l 136 565 l 136 481 l 171 481 l 171 508 z m 268 503 l 278 503 l 296 481 l 333 481 l 311 507 b 331 533 324 513 331 521 b 283 565 331 553 313 565 l 232 565 l 232 481 l 268 481 l 268 503 z m 268 543 l 281 543 b 296 533 290 543 296 540 b 281 524 296 528 290 524 l 268 524 l 268 543 z m 432 503 l 379 503 l 379 514 l 424 514 l 424 535 l 379 535 l 379 544 l 431 544 l 431 565 l 344 565 l 344 481 l 432 481 l 432 503 z m 533 503 l 481 503 l 481 514 l 525 514 l 525 535 l 481 535 l 481 544 l 532 544 l 532 565 l 446 565 l 446 481 l 533 481 l 533 503 z m 156 396 l 142 425 l 119 425 l 146 376 l 165 376 l 192 425 l 171 425 l 156 396 z m 214 394 l 240 394 l 240 407 l 214 407 l 214 413 l 243 413 l 243 425 l 193 425 l 193 376 l 244 376 l 244 389 l 214 389 l 214 394 z m 310 407 b 282 425 310 418 300 425 l 253 425 l 253 376 l 274 376 l 274 389 l 279 389 l 289 376 l 311 376 l 299 392 b 310 407 306 394 310 400 z m 281 401 l 274 401 l 274 413 l 281 413 b 289 407 286 413 289 410 b 281 401 289 403 286 401 z m 336 411 b 343 414 336 413 338 414 b 361 410 349 414 354 413 l 367 422 b 343 426 361 425 351 426 b 315 410 325 426 315 419 b 349 390 315 392 349 396 b 342 388 349 389 347 388 b 321 392 335 388 326 389 l 314 379 b 340 375 321 376 331 375 b 369 392 360 375 369 382 b 336 411 369 410 336 404 z m 375 376 l 396 376 l 396 425 l 375 425 l 375 376 z m 439 426 b 404 400 418 426 404 415 b 439 375 404 386 418 375 b 474 400 458 375 474 386 b 439 426 474 415 458 426 z m 439 388 b 425 400 431 388 425 393 b 439 413 425 408 431 413 b 453 400 446 413 453 408 b 439 388 453 393 446 388 z m 521 403 l 497 425 l 481 425 l 481 376 l 501 376 l 501 399 l 524 376 l 542 376 l 542 425 l 521 425 l 521 403 z "},"":{"ha":663,"x_min":0,"x_max":0,"o":"m 536 672 l 129 672 b 18 582 68 672 18 632 l 18 358 b 129 268 18 308 68 268 l 536 268 b 647 358 597 268 647 308 l 647 582 b 536 672 647 632 597 672 z m 624 358 b 536 288 624 319 585 288 l 129 288 b 42 358 82 288 42 319 l 42 582 b 129 653 42 621 82 653 l 536 653 b 624 582 585 653 624 621 l 624 358 z m 171 508 l 215 508 l 215 529 l 171 529 l 171 544 l 221 544 l 221 565 l 136 565 l 136 481 l 171 481 l 171 508 z m 268 503 l 278 503 l 296 481 l 333 481 l 311 507 b 331 533 324 513 331 521 b 283 565 331 553 313 565 l 232 565 l 232 481 l 268 481 l 268 503 z m 268 543 l 281 543 b 296 533 290 543 296 540 b 281 524 296 528 290 524 l 268 524 l 268 543 z m 432 503 l 379 503 l 379 514 l 424 514 l 424 535 l 379 535 l 379 544 l 431 544 l 431 565 l 344 565 l 344 481 l 432 481 l 432 503 z m 533 503 l 481 503 l 481 514 l 525 514 l 525 535 l 481 535 l 481 544 l 532 544 l 532 565 l 446 565 l 446 481 l 533 481 l 533 503 z m 156 396 l 142 425 l 119 425 l 146 376 l 165 376 l 192 425 l 171 425 l 156 396 z m 214 394 l 240 394 l 240 407 l 214 407 l 214 413 l 243 413 l 243 425 l 193 425 l 193 376 l 244 376 l 244 389 l 214 389 l 214 394 z m 310 407 b 282 425 310 418 300 425 l 253 425 l 253 376 l 274 376 l 274 389 l 279 389 l 289 376 l 311 376 l 299 392 b 310 407 306 394 310 400 z m 281 401 l 274 401 l 274 413 l 281 413 b 289 407 286 413 289 410 b 281 401 289 403 286 401 z m 336 411 b 343 414 336 413 338 414 b 361 410 349 414 354 413 l 367 422 b 343 426 361 425 351 426 b 315 410 325 426 315 419 b 349 390 315 392 349 396 b 342 388 349 389 347 388 b 321 392 335 388 326 389 l 314 379 b 340 375 321 376 331 375 b 369 392 360 375 369 382 b 336 411 369 410 336 404 z m 375 376 l 396 376 l 396 425 l 375 425 l 375 376 z m 439 426 b 404 400 418 426 404 415 b 439 375 404 386 418 375 b 474 400 458 375 474 386 b 439 426 474 415 458 426 z m 439 388 b 425 400 431 388 425 393 b 439 413 425 408 431 413 b 453 400 446 413 453 408 b 439 388 453 393 446 388 z m 521 403 l 497 425 l 481 425 l 481 376 l 501 376 l 501 399 l 524 376 l 542 376 l 542 425 l 521 425 l 521 403 z "},"":{"ha":663,"x_min":0,"x_max":0,"o":"m 536 672 l 129 672 b 18 582 68 672 18 632 l 18 358 b 129 268 18 308 68 268 l 536 268 b 647 358 597 268 647 308 l 647 582 b 536 672 647 632 597 672 z m 624 358 b 536 288 624 319 585 288 l 129 288 b 42 358 82 288 42 319 l 42 582 b 129 653 42 621 82 653 l 536 653 b 624 582 585 653 624 621 l 624 358 z m 171 508 l 215 508 l 215 529 l 171 529 l 171 544 l 221 544 l 221 565 l 136 565 l 136 481 l 171 481 l 171 508 z m 268 503 l 278 503 l 296 481 l 333 481 l 311 507 b 331 533 324 513 331 521 b 283 565 331 553 313 565 l 232 565 l 232 481 l 268 481 l 268 503 z m 268 543 l 281 543 b 296 533 290 543 296 540 b 281 524 296 528 290 524 l 268 524 l 268 543 z m 432 503 l 379 503 l 379 514 l 424 514 l 424 535 l 379 535 l 379 544 l 431 544 l 431 565 l 344 565 l 344 481 l 432 481 l 432 503 z m 533 503 l 481 503 l 481 514 l 525 514 l 525 535 l 481 535 l 481 544 l 532 544 l 532 565 l 446 565 l 446 481 l 533 481 l 533 503 z m 156 396 l 142 425 l 119 425 l 146 376 l 165 376 l 192 425 l 171 425 l 156 396 z m 214 394 l 240 394 l 240 407 l 214 407 l 214 413 l 243 413 l 243 425 l 193 425 l 193 376 l 244 376 l 244 389 l 214 389 l 214 394 z m 310 407 b 282 425 310 418 300 425 l 253 425 l 253 376 l 274 376 l 274 389 l 279 389 l 289 376 l 311 376 l 299 392 b 310 407 306 394 310 400 z m 281 401 l 274 401 l 274 413 l 281 413 b 289 407 286 413 289 410 b 281 401 289 403 286 401 z m 336 411 b 343 414 336 413 338 414 b 361 410 349 414 354 413 l 367 422 b 343 426 361 425 351 426 b 315 410 325 426 315 419 b 349 390 315 392 349 396 b 342 388 349 389 347 388 b 321 392 335 388 326 389 l 314 379 b 340 375 321 376 331 375 b 369 392 360 375 369 382 b 336 411 369 410 336 404 z m 375 376 l 396 376 l 396 425 l 375 425 l 375 376 z m 439 426 b 404 400 418 426 404 415 b 439 375 404 386 418 375 b 474 400 458 375 474 386 b 439 426 474 415 458 426 z m 439 388 b 425 400 431 388 425 393 b 439 413 425 408 431 413 b 453 400 446 413 453 408 b 439 388 453 393 446 388 z m 521 403 l 497 425 l 481 425 l 481 376 l 501 376 l 501 399 l 524 376 l 542 376 l 542 425 l 521 425 l 521 403 z "},"":{"ha":663,"x_min":0,"x_max":0,"o":"m 536 672 l 129 672 b 18 582 68 672 18 632 l 18 358 b 129 268 18 308 68 268 l 536 268 b 647 358 597 268 647 308 l 647 582 b 536 672 647 632 597 672 z m 624 358 b 536 288 624 319 585 288 l 129 288 b 42 358 82 288 42 319 l 42 582 b 129 653 42 621 82 653 l 536 653 b 624 582 585 653 624 621 l 624 358 z m 171 508 l 215 508 l 215 529 l 171 529 l 171 544 l 221 544 l 221 565 l 136 565 l 136 481 l 171 481 l 171 508 z m 268 503 l 278 503 l 296 481 l 333 481 l 311 507 b 331 533 324 513 331 521 b 283 565 331 553 313 565 l 232 565 l 232 481 l 268 481 l 268 503 z m 268 543 l 281 543 b 296 533 290 543 296 540 b 281 524 296 528 290 524 l 268 524 l 268 543 z m 432 503 l 379 503 l 379 514 l 424 514 l 424 535 l 379 535 l 379 544 l 431 544 l 431 565 l 344 565 l 344 481 l 432 481 l 432 503 z m 533 503 l 481 503 l 481 514 l 525 514 l 525 535 l 481 535 l 481 544 l 532 544 l 532 565 l 446 565 l 446 481 l 533 481 l 533 503 z m 156 396 l 142 425 l 119 425 l 146 376 l 165 376 l 192 425 l 171 425 l 156 396 z m 214 394 l 240 394 l 240 407 l 214 407 l 214 413 l 243 413 l 243 425 l 193 425 l 193 376 l 244 376 l 244 389 l 214 389 l 214 394 z m 310 407 b 282 425 310 418 300 425 l 253 425 l 253 376 l 274 376 l 274 389 l 279 389 l 289 376 l 311 376 l 299 392 b 310 407 306 394 310 400 z m 281 401 l 274 401 l 274 413 l 281 413 b 289 407 286 413 289 410 b 281 401 289 403 286 401 z m 336 411 b 343 414 336 413 338 414 b 361 410 349 414 354 413 l 367 422 b 343 426 361 425 351 426 b 315 410 325 426 315 419 b 349 390 315 392 349 396 b 342 388 349 389 347 388 b 321 392 335 388 326 389 l 314 379 b 340 375 321 376 331 375 b 369 392 360 375 369 382 b 336 411 369 410 336 404 z m 375 376 l 396 376 l 396 425 l 375 425 l 375 376 z m 439 426 b 404 400 418 426 404 415 b 439 375 404 386 418 375 b 474 400 458 375 474 386 b 439 426 474 415 458 426 z m 439 388 b 425 400 431 388 425 393 b 439 413 425 408 431 413 b 453 400 446 413 453 408 b 439 388 453 393 446 388 z m 521 403 l 497 425 l 481 425 l 481 376 l 501 376 l 501 399 l 524 376 l 542 376 l 542 425 l 521 425 l 521 403 z "},"":{"ha":663,"x_min":0,"x_max":0,"o":"m 536 672 l 129 672 b 18 582 68 672 18 632 l 18 358 b 129 268 18 308 68 268 l 536 268 b 647 358 597 268 647 308 l 647 582 b 536 672 647 632 597 672 z m 624 358 b 536 288 624 319 585 288 l 129 288 b 42 358 82 288 42 319 l 42 582 b 129 653 42 621 82 653 l 536 653 b 624 582 585 653 624 621 l 624 358 z m 171 508 l 215 508 l 215 529 l 171 529 l 171 544 l 221 544 l 221 565 l 136 565 l 136 481 l 171 481 l 171 508 z m 268 503 l 278 503 l 296 481 l 333 481 l 311 507 b 331 533 324 513 331 521 b 283 565 331 553 313 565 l 232 565 l 232 481 l 268 481 l 268 503 z m 268 543 l 281 543 b 296 533 290 543 296 540 b 281 524 296 528 290 524 l 268 524 l 268 543 z m 432 503 l 379 503 l 379 514 l 424 514 l 424 535 l 379 535 l 379 544 l 431 544 l 431 565 l 344 565 l 344 481 l 432 481 l 432 503 z m 533 503 l 481 503 l 481 514 l 525 514 l 525 535 l 481 535 l 481 544 l 532 544 l 532 565 l 446 565 l 446 481 l 533 481 l 533 503 z m 156 396 l 142 425 l 119 425 l 146 376 l 165 376 l 192 425 l 171 425 l 156 396 z m 214 394 l 240 394 l 240 407 l 214 407 l 214 413 l 243 413 l 243 425 l 193 425 l 193 376 l 244 376 l 244 389 l 214 389 l 214 394 z m 310 407 b 282 425 310 418 300 425 l 253 425 l 253 376 l 274 376 l 274 389 l 279 389 l 289 376 l 311 376 l 299 392 b 310 407 306 394 310 400 z m 281 401 l 274 401 l 274 413 l 281 413 b 289 407 286 413 289 410 b 281 401 289 403 286 401 z m 336 411 b 343 414 336 413 338 414 b 361 410 349 414 354 413 l 367 422 b 343 426 361 425 351 426 b 315 410 325 426 315 419 b 349 390 315 392 349 396 b 342 388 349 389 347 388 b 321 392 335 388 326 389 l 314 379 b 340 375 321 376 331 375 b 369 392 360 375 369 382 b 336 411 369 410 336 404 z m 375 376 l 396 376 l 396 425 l 375 425 l 375 376 z m 439 426 b 404 400 418 426 404 415 b 439 375 404 386 418 375 b 474 400 458 375 474 386 b 439 426 474 415 458 426 z m 439 388 b 425 400 431 388 425 393 b 439 413 425 408 431 413 b 453 400 446 413 453 408 b 439 388 453 393 446 388 z m 521 403 l 497 425 l 481 425 l 481 376 l 501 376 l 501 399 l 524 376 l 542 376 l 542 425 l 521 425 l 521 403 z "},"":{"ha":663,"x_min":0,"x_max":0,"o":"m 536 672 l 129 672 b 18 582 68 672 18 632 l 18 358 b 129 268 18 308 68 268 l 536 268 b 647 358 597 268 647 308 l 647 582 b 536 672 647 632 597 672 z m 624 358 b 536 288 624 319 585 288 l 129 288 b 42 358 82 288 42 319 l 42 582 b 129 653 42 621 82 653 l 536 653 b 624 582 585 653 624 621 l 624 358 z m 171 508 l 215 508 l 215 529 l 171 529 l 171 544 l 221 544 l 221 565 l 136 565 l 136 481 l 171 481 l 171 508 z m 268 503 l 278 503 l 296 481 l 333 481 l 311 507 b 331 533 324 513 331 521 b 283 565 331 553 313 565 l 232 565 l 232 481 l 268 481 l 268 503 z m 268 543 l 281 543 b 296 533 290 543 296 540 b 281 524 296 528 290 524 l 268 524 l 268 543 z m 432 503 l 379 503 l 379 514 l 424 514 l 424 535 l 379 535 l 379 544 l 431 544 l 431 565 l 344 565 l 344 481 l 432 481 l 432 503 z m 533 503 l 481 503 l 481 514 l 525 514 l 525 535 l 481 535 l 481 544 l 532 544 l 532 565 l 446 565 l 446 481 l 533 481 l 533 503 z m 156 396 l 142 425 l 119 425 l 146 376 l 165 376 l 192 425 l 171 425 l 156 396 z m 214 394 l 240 394 l 240 407 l 214 407 l 214 413 l 243 413 l 243 425 l 193 425 l 193 376 l 244 376 l 244 389 l 214 389 l 214 394 z m 310 407 b 282 425 310 418 300 425 l 253 425 l 253 376 l 274 376 l 274 389 l 279 389 l 289 376 l 311 376 l 299 392 b 310 407 306 394 310 400 z m 281 401 l 274 401 l 274 413 l 281 413 b 289 407 286 413 289 410 b 281 401 289 403 286 401 z m 336 411 b 343 414 336 413 338 414 b 361 410 349 414 354 413 l 367 422 b 343 426 361 425 351 426 b 315 410 325 426 315 419 b 349 390 315 392 349 396 b 342 388 349 389 347 388 b 321 392 335 388 326 389 l 314 379 b 340 375 321 376 331 375 b 369 392 360 375 369 382 b 336 411 369 410 336 404 z m 375 376 l 396 376 l 396 425 l 375 425 l 375 376 z m 439 426 b 404 400 418 426 404 415 b 439 375 404 386 418 375 b 474 400 458 375 474 386 b 439 426 474 415 458 426 z m 439 388 b 425 400 431 388 425 393 b 439 413 425 408 431 413 b 453 400 446 413 453 408 b 439 388 453 393 446 388 z m 521 403 l 497 425 l 481 425 l 481 376 l 501 376 l 501 399 l 524 376 l 542 376 l 542 425 l 521 425 l 521 403 z "},"":{"ha":663,"x_min":0,"x_max":0,"o":"m 536 672 l 129 672 b 18 582 68 672 18 632 l 18 358 b 129 268 18 308 68 268 l 536 268 b 647 358 597 268 647 308 l 647 582 b 536 672 647 632 597 672 z m 624 358 b 536 288 624 319 585 288 l 129 288 b 42 358 82 288 42 319 l 42 582 b 129 653 42 621 82 653 l 536 653 b 624 582 585 653 624 621 l 624 358 z m 171 508 l 215 508 l 215 529 l 171 529 l 171 544 l 221 544 l 221 565 l 136 565 l 136 481 l 171 481 l 171 508 z m 268 503 l 278 503 l 296 481 l 333 481 l 311 507 b 331 533 324 513 331 521 b 283 565 331 553 313 565 l 232 565 l 232 481 l 268 481 l 268 503 z m 268 543 l 281 543 b 296 533 290 543 296 540 b 281 524 296 528 290 524 l 268 524 l 268 543 z m 432 503 l 379 503 l 379 514 l 424 514 l 424 535 l 379 535 l 379 544 l 431 544 l 431 565 l 344 565 l 344 481 l 432 481 l 432 503 z m 533 503 l 481 503 l 481 514 l 525 514 l 525 535 l 481 535 l 481 544 l 532 544 l 532 565 l 446 565 l 446 481 l 533 481 l 533 503 z m 156 396 l 142 425 l 119 425 l 146 376 l 165 376 l 192 425 l 171 425 l 156 396 z m 214 394 l 240 394 l 240 407 l 214 407 l 214 413 l 243 413 l 243 425 l 193 425 l 193 376 l 244 376 l 244 389 l 214 389 l 214 394 z m 310 407 b 282 425 310 418 300 425 l 253 425 l 253 376 l 274 376 l 274 389 l 279 389 l 289 376 l 311 376 l 299 392 b 310 407 306 394 310 400 z m 281 401 l 274 401 l 274 413 l 281 413 b 289 407 286 413 289 410 b 281 401 289 403 286 401 z m 336 411 b 343 414 336 413 338 414 b 361 410 349 414 354 413 l 367 422 b 343 426 361 425 351 426 b 315 410 325 426 315 419 b 349 390 315 392 349 396 b 342 388 349 389 347 388 b 321 392 335 388 326 389 l 314 379 b 340 375 321 376 331 375 b 369 392 360 375 369 382 b 336 411 369 410 336 404 z m 375 376 l 396 376 l 396 425 l 375 425 l 375 376 z m 439 426 b 404 400 418 426 404 415 b 439 375 404 386 418 375 b 474 400 458 375 474 386 b 439 426 474 415 458 426 z m 439 388 b 425 400 431 388 425 393 b 439 413 425 408 431 413 b 453 400 446 413 453 408 b 439 388 453 393 446 388 z m 521 403 l 497 425 l 481 425 l 481 376 l 501 376 l 501 399 l 524 376 l 542 376 l 542 425 l 521 425 l 521 403 z "},"":{"ha":663,"x_min":0,"x_max":0,"o":"m 536 672 l 129 672 b 18 582 68 672 18 632 l 18 358 b 129 268 18 308 68 268 l 536 268 b 647 358 597 268 647 308 l 647 582 b 536 672 647 632 597 672 z m 624 358 b 536 288 624 319 585 288 l 129 288 b 42 358 82 288 42 319 l 42 582 b 129 653 42 621 82 653 l 536 653 b 624 582 585 653 624 621 l 624 358 z m 171 508 l 215 508 l 215 529 l 171 529 l 171 544 l 221 544 l 221 565 l 136 565 l 136 481 l 171 481 l 171 508 z m 268 503 l 278 503 l 296 481 l 333 481 l 311 507 b 331 533 324 513 331 521 b 283 565 331 553 313 565 l 232 565 l 232 481 l 268 481 l 268 503 z m 268 543 l 281 543 b 296 533 290 543 296 540 b 281 524 296 528 290 524 l 268 524 l 268 543 z m 432 503 l 379 503 l 379 514 l 424 514 l 424 535 l 379 535 l 379 544 l 431 544 l 431 565 l 344 565 l 344 481 l 432 481 l 432 503 z m 533 503 l 481 503 l 481 514 l 525 514 l 525 535 l 481 535 l 481 544 l 532 544 l 532 565 l 446 565 l 446 481 l 533 481 l 533 503 z m 156 396 l 142 425 l 119 425 l 146 376 l 165 376 l 192 425 l 171 425 l 156 396 z m 214 394 l 240 394 l 240 407 l 214 407 l 214 413 l 243 413 l 243 425 l 193 425 l 193 376 l 244 376 l 244 389 l 214 389 l 214 394 z m 310 407 b 282 425 310 418 300 425 l 253 425 l 253 376 l 274 376 l 274 389 l 279 389 l 289 376 l 311 376 l 299 392 b 310 407 306 394 310 400 z m 281 401 l 274 401 l 274 413 l 281 413 b 289 407 286 413 289 410 b 281 401 289 403 286 401 z m 336 411 b 343 414 336 413 338 414 b 361 410 349 414 354 413 l 367 422 b 343 426 361 425 351 426 b 315 410 325 426 315 419 b 349 390 315 392 349 396 b 342 388 349 389 347 388 b 321 392 335 388 326 389 l 314 379 b 340 375 321 376 331 375 b 369 392 360 375 369 382 b 336 411 369 410 336 404 z m 375 376 l 396 376 l 396 425 l 375 425 l 375 376 z m 439 426 b 404 400 418 426 404 415 b 439 375 404 386 418 375 b 474 400 458 375 474 386 b 439 426 474 415 458 426 z m 439 388 b 425 400 431 388 425 393 b 439 413 425 408 431 413 b 453 400 446 413 453 408 b 439 388 453 393 446 388 z m 521 403 l 497 425 l 481 425 l 481 376 l 501 376 l 501 399 l 524 376 l 542 376 l 542 425 l 521 425 l 521 403 z "},"":{"ha":663,"x_min":0,"x_max":0,"o":"m 536 672 l 129 672 b 18 582 68 672 18 632 l 18 358 b 129 268 18 308 68 268 l 536 268 b 647 358 597 268 647 308 l 647 582 b 536 672 647 632 597 672 z m 624 358 b 536 288 624 319 585 288 l 129 288 b 42 358 82 288 42 319 l 42 582 b 129 653 42 621 82 653 l 536 653 b 624 582 585 653 624 621 l 624 358 z m 171 508 l 215 508 l 215 529 l 171 529 l 171 544 l 221 544 l 221 565 l 136 565 l 136 481 l 171 481 l 171 508 z m 268 503 l 278 503 l 296 481 l 333 481 l 311 507 b 331 533 324 513 331 521 b 283 565 331 553 313 565 l 232 565 l 232 481 l 268 481 l 268 503 z m 268 543 l 281 543 b 296 533 290 543 296 540 b 281 524 296 528 290 524 l 268 524 l 268 543 z m 432 503 l 379 503 l 379 514 l 424 514 l 424 535 l 379 535 l 379 544 l 431 544 l 431 565 l 344 565 l 344 481 l 432 481 l 432 503 z m 533 503 l 481 503 l 481 514 l 525 514 l 525 535 l 481 535 l 481 544 l 532 544 l 532 565 l 446 565 l 446 481 l 533 481 l 533 503 z m 156 396 l 142 425 l 119 425 l 146 376 l 165 376 l 192 425 l 171 425 l 156 396 z m 214 394 l 240 394 l 240 407 l 214 407 l 214 413 l 243 413 l 243 425 l 193 425 l 193 376 l 244 376 l 244 389 l 214 389 l 214 394 z m 310 407 b 282 425 310 418 300 425 l 253 425 l 253 376 l 274 376 l 274 389 l 279 389 l 289 376 l 311 376 l 299 392 b 310 407 306 394 310 400 z m 281 401 l 274 401 l 274 413 l 281 413 b 289 407 286 413 289 410 b 281 401 289 403 286 401 z m 336 411 b 343 414 336 413 338 414 b 361 410 349 414 354 413 l 367 422 b 343 426 361 425 351 426 b 315 410 325 426 315 419 b 349 390 315 392 349 396 b 342 388 349 389 347 388 b 321 392 335 388 326 389 l 314 379 b 340 375 321 376 331 375 b 369 392 360 375 369 382 b 336 411 369 410 336 404 z m 375 376 l 396 376 l 396 425 l 375 425 l 375 376 z m 439 426 b 404 400 418 426 404 415 b 439 375 404 386 418 375 b 474 400 458 375 474 386 b 439 426 474 415 458 426 z m 439 388 b 425 400 431 388 425 393 b 439 413 425 408 431 413 b 453 400 446 413 453 408 b 439 388 453 393 446 388 z m 521 403 l 497 425 l 481 425 l 481 376 l 501 376 l 501 399 l 524 376 l 542 376 l 542 425 l 521 425 l 521 403 z "},"":{"ha":663,"x_min":0,"x_max":0,"o":"m 536 672 l 129 672 b 18 582 68 672 18 632 l 18 358 b 129 268 18 308 68 268 l 536 268 b 647 358 597 268 647 308 l 647 582 b 536 672 647 632 597 672 z m 624 358 b 536 288 624 319 585 288 l 129 288 b 42 358 82 288 42 319 l 42 582 b 129 653 42 621 82 653 l 536 653 b 624 582 585 653 624 621 l 624 358 z m 171 508 l 215 508 l 215 529 l 171 529 l 171 544 l 221 544 l 221 565 l 136 565 l 136 481 l 171 481 l 171 508 z m 268 503 l 278 503 l 296 481 l 333 481 l 311 507 b 331 533 324 513 331 521 b 283 565 331 553 313 565 l 232 565 l 232 481 l 268 481 l 268 503 z m 268 543 l 281 543 b 296 533 290 543 296 540 b 281 524 296 528 290 524 l 268 524 l 268 543 z m 432 503 l 379 503 l 379 514 l 424 514 l 424 535 l 379 535 l 379 544 l 431 544 l 431 565 l 344 565 l 344 481 l 432 481 l 432 503 z m 533 503 l 481 503 l 481 514 l 525 514 l 525 535 l 481 535 l 481 544 l 532 544 l 532 565 l 446 565 l 446 481 l 533 481 l 533 503 z m 156 396 l 142 425 l 119 425 l 146 376 l 165 376 l 192 425 l 171 425 l 156 396 z m 214 394 l 240 394 l 240 407 l 214 407 l 214 413 l 243 413 l 243 425 l 193 425 l 193 376 l 244 376 l 244 389 l 214 389 l 214 394 z m 310 407 b 282 425 310 418 300 425 l 253 425 l 253 376 l 274 376 l 274 389 l 279 389 l 289 376 l 311 376 l 299 392 b 310 407 306 394 310 400 z m 281 401 l 274 401 l 274 413 l 281 413 b 289 407 286 413 289 410 b 281 401 289 403 286 401 z m 336 411 b 343 414 336 413 338 414 b 361 410 349 414 354 413 l 367 422 b 343 426 361 425 351 426 b 315 410 325 426 315 419 b 349 390 315 392 349 396 b 342 388 349 389 347 388 b 321 392 335 388 326 389 l 314 379 b 340 375 321 376 331 375 b 369 392 360 375 369 382 b 336 411 369 410 336 404 z m 375 376 l 396 376 l 396 425 l 375 425 l 375 376 z m 439 426 b 404 400 418 426 404 415 b 439 375 404 386 418 375 b 474 400 458 375 474 386 b 439 426 474 415 458 426 z m 439 388 b 425 400 431 388 425 393 b 439 413 425 408 431 413 b 453 400 446 413 453 408 b 439 388 453 393 446 388 z m 521 403 l 497 425 l 481 425 l 481 376 l 501 376 l 501 399 l 524 376 l 542 376 l 542 425 l 521 425 l 521 403 z "}}}
